<svg width="80" height="80" viewBox="0 0 80 80" fill="none" xmlns="http://www.w3.org/2000/svg">
<g id="human, devices, gadgets, tools, settings">
<path id="Vector" d="M38.0008 39.3361C36.7544 40.0777 35.4088 40.5001 34.0008 40.5001C32.2008 40.5001 30.5032 39.8329 28.9928 38.6641V39.1025C28.9928 40.5769 28.3976 41.9129 27.4304 42.8753C26.9368 43.3673 26.3496 43.7625 25.6968 44.0313L10.692 50.2497C9.0272 51.9145 8 54.2113 8 56.7489V72.0001H38.0008V39.3361Z" fill="#75C6A4" stroke="#335C5F" stroke-width="1.5" stroke-miterlimit="10" stroke-linecap="round" stroke-linejoin="round"/>
<path id="Vector_2" d="M67.1216 45.2816L57.2216 35.384C56.0496 34.2128 54.1512 34.2128 52.9792 35.384L38 50.3624V62.8248L43.788 68.6152C44.9584 69.7872 46.8584 69.7904 48.0288 68.6152L53.2528 63.3936C52.884 63.3184 52.4952 63.3184 52.1136 63.4232C52.0448 62.9576 52.0008 62.484 52.0008 61.9984C52.0008 61.5144 52.0448 61.0424 52.1136 60.5768C53.3104 60.8984 54.5872 60.3032 55.0712 59.1296C55.5584 57.9576 55.0776 56.6328 54.0024 56.0184C54.576 55.2512 55.2528 54.576 56.0168 54.0024C56.6336 55.0744 57.9544 55.5568 59.128 55.0728C60.3032 54.584 60.8984 53.3088 60.5768 52.112C61.0424 52.0472 61.5128 52 62 52C62.4832 52 62.9576 52.0472 63.4232 52.1128C63.32 52.496 63.32 52.8848 63.392 53.2536L67.1216 49.5256C68.2928 48.352 68.2928 46.4512 67.1216 45.2816Z" fill="#E9EAEF" stroke="#335C5F" stroke-width="1.5" stroke-miterlimit="10" stroke-linecap="round" stroke-linejoin="round"/>
<path id="Vector_3" d="M69.3536 13.4543H60.6232L49.1872 24.8887L44.0024 28.0007L47.112 22.8103L56.472 13.4543H38V42.5471H45.816L52.9792 35.3839C54.1512 34.2127 56.0496 34.2127 57.2216 35.3839L64.384 42.5471H69.3536C70.8144 42.5471 71.9992 41.3631 71.9992 39.9015V16.0999C71.9992 14.6391 70.8152 13.4543 69.3536 13.4543Z" fill="#E9EAEF" stroke="#335C5F" stroke-width="1.5" stroke-miterlimit="10" stroke-linecap="round" stroke-linejoin="round"/>
<path id="Vector_4" d="M52.272 36.0928L38 50.3624V55.7624L49.4432 67.204L53.256 63.3936C52.884 63.3184 52.4952 63.3184 52.1136 63.4232C52.0448 62.9576 52.0008 62.484 52.0008 61.9984C52.0008 61.5144 52.0448 61.0424 52.1136 60.5768C53.3104 60.8984 54.5872 60.3032 55.0712 59.1296C55.5584 57.9576 55.0776 56.6328 54.0024 56.0184C54.576 55.2512 55.2528 54.576 56.0168 54.0024C56.6336 55.0744 57.9544 55.5568 59.128 55.0728C60.3032 54.584 60.8984 53.3088 60.5768 52.112C61.0424 52.0472 61.5128 52 62 52C62.4832 52 62.9576 52.0472 63.4232 52.1128C63.32 52.496 63.32 52.8848 63.392 53.2568L66.4152 50.2336L52.272 36.0928Z" fill="#46C6F1" stroke="#335C5F" stroke-width="1.5" stroke-miterlimit="10" stroke-linecap="round" stroke-linejoin="round"/>
<path id="Vector_5" d="M58.8032 15.2728L49.1872 24.8888L44.0024 28.0008L47.112 22.8104L54.6536 15.2728H38V40.728H47.6344L52.9792 35.384C54.1512 34.2128 56.0496 34.2128 57.2216 35.384L62.5656 40.728H66.5456V15.2728H58.8032Z" fill="#46C6F1" stroke="#335C5F" stroke-width="1.5" stroke-miterlimit="10" stroke-linecap="round" stroke-linejoin="round"/>
<path id="Vector_6" d="M65.3978 40.728L58.637 33.9696C57.693 33.0248 56.437 32.5048 55.1026 32.5048C53.7666 32.5048 52.5122 33.0248 51.5666 33.9696L44.8066 40.728H47.6346L52.981 35.384C54.153 34.2128 56.0514 34.2128 57.2234 35.384L62.5674 40.728H65.3978Z" fill="#3EAED3"/>
<path id="Vector_7" d="M66.5469 15.2728H63.5469V40.728H66.5469V15.2728Z" fill="#3EAED3"/>
<path id="Vector_8" d="M20.0008 55.9984L18 72" stroke="#335C5F" stroke-width="1.5" stroke-miterlimit="10" stroke-linecap="round" stroke-linejoin="round"/>
<path id="Vector_9" d="M38 39.3361C36.7536 40.0777 35.408 40.5001 34 40.5001C32.2 40.5001 30.5024 39.8329 28.992 38.6641V39.1025C28.992 40.0905 28.7184 41.0129 28.252 41.8049C30.0208 42.9033 31.9656 43.5001 34 43.5001C35.3696 43.5001 36.708 43.2265 38 42.6953V39.3361Z" fill="#65AD90"/>
<path id="Vector_10" d="M37.9999 8.7304C36.7535 8.2616 35.4079 8 33.9999 8C28.1895 8 23.4071 12.3576 22.7159 17.9832V21.2288C21.2439 21.7528 20.1855 23.1424 20.1855 24.7928C20.1855 28.0232 21.8263 30.6416 23.8703 30.732C25.7503 36.5256 29.5759 40.5 33.9999 40.5C35.4079 40.5 36.7535 40.0944 37.9999 39.356V8.7304Z" fill="#FADF7E" stroke="#335C5F" stroke-width="1.5" stroke-miterlimit="10" stroke-linecap="round" stroke-linejoin="round"/>
<path id="Vector_11" d="M61.8189 42.808L59.6973 40.688" stroke="#335C5F" stroke-width="1.5" stroke-miterlimit="10" stroke-linecap="round" stroke-linejoin="round"/>
<path id="Vector_12" d="M59.128 55.0736C60.3032 54.5848 60.8984 53.3096 60.5768 52.1128C61.0424 52.0472 61.5128 52 62 52C62.4832 52 62.9576 52.0472 63.4232 52.1128C63.32 52.496 63.32 52.8848 63.392 53.2568L65.8464 50.8024L65.9416 50.4512L63.704 50.1344C63.0648 50.044 62.524 50.0016 61.9992 50.0016C61.4744 50.0016 60.932 50.044 60.2944 50.1344L58.0552 50.4512L58.6424 52.6352C58.7 52.8464 58.6224 53.1184 58.3624 53.224C58.3032 53.2488 58.2424 53.2616 58.1808 53.2616C58.0056 53.2616 57.8384 53.1648 57.748 53.0072L56.62 51.048L54.8136 52.4056C53.8936 53.096 53.0808 53.9088 52.3992 54.8216L51.0432 56.6328L53.0072 57.756C53.1912 57.8608 53.3288 58.1088 53.2216 58.3672C53.1312 58.5872 52.92 58.6656 52.7672 58.6656C52.7232 58.6656 52.6784 58.6592 52.6328 58.6472L50.464 58.0632L50.1344 60.2864C50.044 60.8976 50 61.4584 50 62.0008C50 62.5448 50.044 63.1072 50.1344 63.7192L50.464 65.9416L50.7968 65.8512L53.2544 63.396C52.8824 63.3208 52.4936 63.3208 52.112 63.4256C52.0432 62.96 51.9992 62.4864 51.9992 62.0008C51.9992 61.5168 52.0432 61.0448 52.112 60.5792C53.3088 60.9008 54.5856 60.3056 55.0696 59.132C55.5568 57.96 55.076 56.6352 54.0008 56.0208C54.5744 55.2536 55.2512 54.5784 56.0152 54.0048C56.6344 55.0752 57.9544 55.5576 59.128 55.0736Z" fill="#3EAED3"/>
<path id="Vector_13" d="M71.8844 60.5768C70.6924 60.8984 69.4156 60.3016 68.93 59.1296C68.4428 57.956 68.9252 56.6328 69.9972 56.0184C69.4268 55.2512 68.7484 54.5728 67.9844 54C67.366 55.0752 66.0412 55.5576 64.8708 55.0736C63.6956 54.5848 63.1004 53.3096 63.4236 52.1128C62.9588 52.0472 62.4836 52 62.0012 52C61.514 52 61.0436 52.0472 60.578 52.1128C60.8996 53.3096 60.3044 54.5848 59.1292 55.0736C57.9556 55.5576 56.6356 55.0752 56.018 54.0032C55.254 54.5768 54.5772 55.252 54.0036 56.0192C55.0788 56.6336 55.5596 57.9584 55.0724 59.1304C54.5884 60.304 53.3116 60.8992 52.1148 60.5776C52.046 61.0432 52.002 61.5152 52.002 61.9992C52.002 62.4848 52.046 62.9584 52.1148 63.424C53.3116 63.1024 54.5884 63.6976 55.0724 64.8704C55.5596 66.0456 55.0788 67.368 54.0036 67.9856C54.5772 68.7496 55.254 69.4248 56.018 69.9984C56.6348 68.9264 57.9588 68.444 59.1292 68.9296C60.3044 69.4168 60.8996 70.6936 60.578 71.8888C61.0436 71.9528 61.514 72 62.0012 72C62.4868 72 62.9588 71.9528 63.4244 71.8872C63.1012 70.692 63.6996 69.4152 64.8716 68.928C66.0452 68.4424 67.366 68.9248 67.9852 69.9968C68.7492 69.4232 69.4276 68.7456 69.998 67.9824C68.926 67.3656 68.4436 66.0408 68.9308 64.8656C69.4164 63.6928 70.6932 63.1008 71.8852 63.4224C71.9532 62.9576 72.0004 62.484 72.0004 61.9984C72.0004 61.5144 71.9532 61.0424 71.8844 60.5768ZM62.0012 66.5824C59.4684 66.5824 57.418 64.5312 57.418 61.9992C57.418 59.4696 59.4684 57.4192 62.0012 57.4192C64.5324 57.4192 66.5828 59.4696 66.5828 61.9992C66.5828 64.5304 64.5324 66.5824 62.0012 66.5824Z" fill="#FADF7E" stroke="#335C5F" stroke-width="1.5" stroke-miterlimit="10" stroke-linecap="round" stroke-linejoin="round"/>
<path id="Vector_14" d="M61.8047 15.2728H58.8047L49.1887 24.8888L48.6879 25.1888L47.0039 28.0008L52.1887 24.8888L61.8047 15.2728Z" fill="#3EAED3"/>
<path id="Vector_15" d="M24.6115 20.6392C24.6115 14.236 29.3747 8.9504 35.5483 8.1184C35.0411 8.0496 34.5259 8 33.9987 8C27.7691 8 22.7195 13.0504 22.7195 19.28V21.2304C21.2483 21.7536 20.1875 23.1408 20.1875 24.792C20.1875 28.0248 21.8283 30.6408 23.8707 30.7312C25.7523 36.5264 29.5763 40.5 33.9987 40.5C34.5395 40.5 35.0699 40.4392 35.5907 40.324C29.3947 39.0464 24.6115 30.7248 24.6115 20.6392Z" fill="#D8C26F"/>
<path id="Vector_16" d="M37.9999 8.7304C36.7535 8.2616 35.4079 8 33.9999 8C28.1895 8 23.4071 12.3576 22.7159 17.9832V21.2288C21.2439 21.7528 20.1855 23.1424 20.1855 24.7928C20.1855 28.0232 21.8263 30.6416 23.8703 30.732C25.7503 36.5256 29.5759 40.5 33.9999 40.5C35.4079 40.5 36.7535 40.0944 37.9999 39.356V8.7304Z" stroke="#335C5F" stroke-width="1.5" stroke-miterlimit="10" stroke-linecap="round" stroke-linejoin="round"/>
<path id="Vector_17" d="M38.0008 39.3361C36.7544 40.0777 35.4088 40.5001 34.0008 40.5001C32.2008 40.5001 30.5032 39.8329 28.9928 38.6641V39.1025C28.9928 40.5769 28.3976 41.9129 27.4304 42.8753C26.9368 43.3673 26.3496 43.7625 25.6968 44.0313L10.692 50.2497C9.0272 51.9145 8 54.2113 8 56.7489V72.0001H38.0008V39.3361Z" stroke="#335C5F" stroke-width="1.5" stroke-miterlimit="10" stroke-linecap="round" stroke-linejoin="round"/>
<path id="Vector_18" d="M63.6247 13.4543H60.6247L58.8047 15.2727H61.8047L63.6247 13.4543Z" fill="#CACCD1"/>
<path id="Vector_19" d="M69.3544 13.4543H66.3552C67.8152 13.4543 69.0016 14.6391 69.0016 16.0999V39.9015C69.0016 41.1015 68.1952 42.1063 67.0976 42.4287L65.3976 40.7287H62.5664L64.3848 42.5471H69.3544C70.8152 42.5471 72 41.3631 72 39.9015V16.0999C72 14.6391 70.816 13.4543 69.3544 13.4543Z" fill="#CACCD1"/>
<path id="Vector_20" d="M44.8059 40.728L42.9883 42.5472H45.8163L47.6339 40.728H44.8059Z" fill="#CACCD1"/>
<path id="Vector_21" d="M69.2715 29.3207V26.6783" stroke="#335C5F" stroke-width="1.5" stroke-miterlimit="10" stroke-linecap="round" stroke-linejoin="round"/>
<path id="Vector_22" d="M63.0247 8.28642C62.6431 7.90562 62.0247 7.90562 61.6407 8.28962L47.1135 22.8104L44.0039 28.0008L49.1887 24.8888L63.7167 10.3616C64.0999 9.98162 64.0967 9.36162 63.7167 8.98082L63.0247 8.28642Z" fill="#FADF7E" stroke="#335C5F" stroke-width="1.5" stroke-miterlimit="10" stroke-linecap="round" stroke-linejoin="round"/>
<path id="Vector_23" d="M60.2559 9.67041L62.3311 11.7456" stroke="#335C5F" stroke-width="1.5" stroke-miterlimit="10" stroke-linecap="round" stroke-linejoin="round"/>
<path id="Vector_24" d="M58.873 11.0536L60.9498 13.128" stroke="#335C5F" stroke-width="1.5" stroke-miterlimit="10" stroke-linecap="round" stroke-linejoin="round"/>
<path id="Vector_25" d="M47.1133 22.8136L49.1893 24.8888" stroke="#335C5F" stroke-width="1.5" stroke-miterlimit="10" stroke-linecap="round" stroke-linejoin="round"/>
<path id="Vector_26" d="M67.1216 45.2816L57.2216 35.384C56.0496 34.2128 54.1512 34.2128 52.9792 35.384L38 50.3624V62.8248L43.788 68.6152C44.9584 69.7872 46.8584 69.7904 48.0288 68.6152L53.2528 63.3936C52.884 63.3184 52.4952 63.3184 52.1136 63.4232C52.0448 62.9576 52.0008 62.484 52.0008 61.9984C52.0008 61.5144 52.0448 61.0424 52.1136 60.5768C53.3104 60.8984 54.5872 60.3032 55.0712 59.1296C55.5584 57.9576 55.0776 56.6328 54.0024 56.0184C54.576 55.2512 55.2528 54.576 56.0168 54.0024C56.6336 55.0744 57.9544 55.5568 59.128 55.0728C60.3032 54.584 60.8984 53.3088 60.5768 52.112C61.0424 52.0472 61.5128 52 62 52C62.4832 52 62.9576 52.0472 63.4232 52.1128C63.32 52.496 63.32 52.8848 63.392 53.2536L67.1216 49.5256C68.2928 48.352 68.2928 46.4512 67.1216 45.2816Z" stroke="#335C5F" stroke-width="1.5" stroke-miterlimit="10" stroke-linecap="round" stroke-linejoin="round"/>
<path id="Vector_27" d="M69.3536 13.4543H60.6232L49.1872 24.8887L44.0024 28.0007L47.112 22.8103L56.472 13.4543H38V42.5471H45.816L52.9792 35.3839C54.1512 34.2127 56.0496 34.2127 57.2216 35.3839L64.384 42.5471H69.3536C70.8144 42.5471 71.9992 41.3631 71.9992 39.9015V16.0999C71.9992 14.6391 70.8152 13.4543 69.3536 13.4543Z" stroke="#335C5F" stroke-width="1.5" stroke-miterlimit="10" stroke-linecap="round" stroke-linejoin="round"/>
<path id="Vector_28" d="M52.272 36.0928L38 50.3624V55.7624L49.4432 67.204L53.256 63.3936C52.884 63.3184 52.4952 63.3184 52.1136 63.4232C52.0448 62.9576 52.0008 62.484 52.0008 61.9984C52.0008 61.5144 52.0448 61.0424 52.1136 60.5768C53.3104 60.8984 54.5872 60.3032 55.0712 59.1296C55.5584 57.9576 55.0776 56.6328 54.0024 56.0184C54.576 55.2512 55.2528 54.576 56.0168 54.0024C56.6336 55.0744 57.9544 55.5568 59.128 55.0728C60.3032 54.584 60.8984 53.3088 60.5768 52.112C61.0424 52.0472 61.5128 52 62 52C62.4832 52 62.9576 52.0472 63.4232 52.1128C63.32 52.496 63.32 52.8848 63.392 53.2568L66.4152 50.2336L52.272 36.0928Z" stroke="#335C5F" stroke-width="1.5" stroke-miterlimit="10" stroke-linecap="round" stroke-linejoin="round"/>
<path id="Vector_29" d="M58.8032 15.2728L49.1872 24.8888L44.0024 28.0008L47.112 22.8104L54.6536 15.2728H38V40.728H47.6344L52.9792 35.384C54.1512 34.2128 56.0496 34.2128 57.2216 35.384L62.5656 40.728H66.5456V15.2728H58.8032Z" stroke="#335C5F" stroke-width="1.5" stroke-miterlimit="10" stroke-linecap="round" stroke-linejoin="round"/>
</g>
</svg>
