<svg width="80" height="80" viewBox="0 0 80 80" fill="none" xmlns="http://www.w3.org/2000/svg">
<g id="brainstorming, idea, business, brain, creativity, brainstorm">
<path id="Vector" d="M56.552 56.5504C56.552 60.5016 54.516 63.7048 52.0016 63.7048C49.4872 63.7048 47.4512 60.5016 47.4512 56.5504C47.4512 54.0392 49.488 52 52.0016 52C54.5152 52 56.552 54.0392 56.552 56.5504Z" fill="#FADF7E" stroke="#335C5F" stroke-width="1.5" stroke-miterlimit="10" stroke-linecap="round" stroke-linejoin="round"/>
<path id="Vector_2" d="M66.5531 34.5495C66.5531 38.5023 64.5139 41.7047 62.0003 41.7047C59.4891 41.7047 57.4531 38.5023 57.4531 34.5495C57.4531 32.0383 59.4891 29.9991 62.0003 29.9991C64.5147 29.9991 66.5531 32.0383 66.5531 34.5495Z" fill="#FADF7E" stroke="#335C5F" stroke-width="1.5" stroke-miterlimit="10" stroke-linecap="round" stroke-linejoin="round"/>
<path id="Vector_3" d="M35.8873 37.9288C35.8873 35.3872 34.9169 32.8464 32.9793 30.9056C31.1825 29.1088 30.0713 26.628 30.0713 23.8856C30.0713 18.4016 34.5169 13.9552 39.9993 13.9552H40.0025C45.4865 13.9552 49.9313 18.4008 49.9313 23.8856C49.9313 26.628 48.8193 29.1088 47.0193 30.9056C45.0849 32.8464 44.1145 35.3872 44.1145 37.9288H35.8873Z" fill="#FADF7E" stroke="#335C5F" stroke-width="1.5" stroke-miterlimit="10" stroke-linecap="round" stroke-linejoin="round"/>
<path id="Vector_4" d="M40.0016 13.9561H39.9984C39.4872 13.9561 38.9896 14.0065 38.5 14.0809C43.2712 14.8057 46.928 18.9129 46.928 23.8857C46.928 26.6281 45.8168 29.1089 44.0184 30.9057C42.0824 32.8465 41.112 35.3873 41.112 37.9289H44.1136C44.1136 35.3873 45.084 32.8465 47.0184 30.9057C48.8184 29.1089 49.9304 26.6281 49.9304 23.8857C49.9304 18.4017 45.4856 13.9561 40.0016 13.9561Z" fill="#D8C26F"/>
<path id="Vector_5" d="M35.8867 37.9288V45.872L37.3027 47.9992H42.6931L44.1139 45.872V37.9288H35.8867Z" fill="#E9EAEF" stroke="#335C5F" stroke-width="1.5" stroke-miterlimit="10" stroke-linecap="round" stroke-linejoin="round"/>
<path id="Vector_6" d="M41.1145 37.9288V45.872L39.6953 47.9992H42.6937L44.1145 45.872V37.9288H41.1145Z" fill="#CACCD1"/>
<path id="Vector_7" d="M41.4188 32.2536C41.4188 31.4704 40.7812 30.8368 39.9988 30.8368C39.2156 30.8368 38.582 31.4704 38.582 32.2536V37.9312H41.418L41.4188 32.2536Z" fill="#E9EAEF" stroke="#335C5F" stroke-width="1.5" stroke-miterlimit="10" stroke-linecap="round" stroke-linejoin="round"/>
<path id="Vector_8" d="M38.888 31.4128C39.1448 31.0712 39.5368 30.8368 39.9992 30.8368C40.4632 30.8368 40.8536 31.0712 41.1128 31.4128H41.1376L44.2544 23.8856C42.6888 23.8856 41.4184 22.6152 41.4184 21.0496H38.5824C38.5792 22.6152 37.312 23.8856 35.7432 23.8856L38.8632 31.4128H38.888Z" stroke="#335C5F" stroke-width="1.5" stroke-miterlimit="10" stroke-linecap="round" stroke-linejoin="round"/>
<path id="Vector_9" d="M39.999 8V13.9552" stroke="#335C5F" stroke-width="1.5" stroke-miterlimit="10" stroke-linecap="round" stroke-linejoin="round"/>
<path id="Vector_10" d="M47.0186 30.9056L51.2338 35.12" stroke="#335C5F" stroke-width="1.5" stroke-miterlimit="10" stroke-linecap="round" stroke-linejoin="round"/>
<path id="Vector_11" d="M28.7646 12.6528L32.979 16.864" stroke="#335C5F" stroke-width="1.5" stroke-miterlimit="10" stroke-linecap="round" stroke-linejoin="round"/>
<path id="Vector_12" d="M32.979 30.9056L28.7646 35.12" stroke="#335C5F" stroke-width="1.5" stroke-miterlimit="10" stroke-linecap="round" stroke-linejoin="round"/>
<path id="Vector_13" d="M51.2338 12.6528L47.0186 16.864" stroke="#335C5F" stroke-width="1.5" stroke-miterlimit="10" stroke-linecap="round" stroke-linejoin="round"/>
<path id="Vector_14" d="M30.0715 23.8856H24.1123" stroke="#335C5F" stroke-width="1.5" stroke-miterlimit="10" stroke-linecap="round" stroke-linejoin="round"/>
<path id="Vector_15" d="M55.8883 23.8856H49.9307" stroke="#335C5F" stroke-width="1.5" stroke-miterlimit="10" stroke-linecap="round" stroke-linejoin="round"/>
<path id="Vector_16" d="M38.0012 70.0032C38.0012 67.2432 35.7628 65.0024 33.0012 65.0024H30.818C30.4132 64.3656 30.154 63.6656 30.0348 62.944C29.4204 63.4264 28.734 63.7048 28.0012 63.7048C27.2708 63.7048 26.582 63.4256 25.9692 62.9472C25.8452 63.6912 25.578 64.3912 25.186 65.0024H23.0004C20.2396 65.0024 17.998 67.2432 17.998 70.0032V70.0056C24.1812 72.5632 31.334 72.7648 38.0012 70.0032Z" fill="#75C6A4" stroke="#335C5F" stroke-width="1.5" stroke-miterlimit="10" stroke-linecap="round" stroke-linejoin="round"/>
<path id="Vector_17" d="M32.5508 56.5504C32.5508 60.5016 30.514 63.7048 28.0004 63.7048C25.486 63.7048 23.4492 60.5016 23.4492 56.5504C23.4492 54.0392 25.486 52 28.0004 52C30.5148 51.9992 32.5508 54.0392 32.5508 56.5504Z" fill="#FADF7E" stroke="#335C5F" stroke-width="1.5" stroke-miterlimit="10" stroke-linecap="round" stroke-linejoin="round"/>
<path id="Vector_18" d="M27.9984 48.0024C27.9984 45.244 25.7632 43.0032 23.0008 43.0032H20.8176C20.4128 42.3664 20.1536 41.6664 20.0328 40.944C19.4176 41.4272 18.732 41.7048 17.9984 41.7048C17.2712 41.7048 16.5816 41.4264 15.9696 40.9472C15.8456 41.6912 15.576 42.3912 15.1848 43.0032H12.9992C10.2376 43.0032 8 45.244 8 48.0024V48.0048C14.1792 50.5632 21.3336 50.7648 27.9984 48.0024Z" fill="#46C6F1" stroke="#335C5F" stroke-width="1.5" stroke-miterlimit="10" stroke-linecap="round" stroke-linejoin="round"/>
<path id="Vector_19" d="M22.5521 34.5495C22.5521 38.5023 20.5129 41.7047 17.9993 41.7047C15.4889 41.7047 13.4521 38.5023 13.4521 34.5495C13.4521 32.0383 15.4889 29.9991 17.9993 29.9991C20.5129 29.9991 22.5521 32.0383 22.5521 34.5495Z" fill="#FADF7E" stroke="#335C5F" stroke-width="1.5" stroke-miterlimit="10" stroke-linecap="round" stroke-linejoin="round"/>
<path id="Vector_20" d="M16.4512 34.5495C16.4512 32.5655 17.7256 30.8791 19.4992 30.2583C19.0288 30.0935 18.5248 29.9991 17.9984 29.9991C15.488 29.9991 13.4512 32.0391 13.4512 34.5495C13.4512 38.5023 15.488 41.7047 17.9984 41.7047C18.5248 41.7047 19.0288 41.5567 19.4992 41.2991C17.7264 40.3231 16.4512 37.6743 16.4512 34.5495Z" fill="#D8C26F"/>
<path id="Vector_21" d="M60.4531 34.5495C60.4531 32.5655 61.7267 30.8791 63.5003 30.2583C63.0299 30.0935 62.5267 29.9991 62.0003 29.9991C59.4891 29.9991 57.4531 32.0391 57.4531 34.5495C57.4531 38.5023 59.4891 41.7047 62.0003 41.7047C62.5267 41.7047 63.0299 41.5567 63.5003 41.2991C61.7267 40.3231 60.4531 37.6743 60.4531 34.5495Z" fill="#D8C26F"/>
<path id="Vector_22" d="M50.452 56.5504C50.452 54.5664 51.7272 52.8792 53.5008 52.2592C53.0304 52.0944 52.5256 52 51.9992 52C49.488 52 47.4512 54.04 47.4512 56.5504C47.4512 60.5016 49.488 63.7048 51.9992 63.7048C52.5256 63.7048 53.0304 63.5568 53.5008 63.2984C51.7272 62.3224 50.452 59.6744 50.452 56.5504Z" fill="#D8C26F"/>
<path id="Vector_23" d="M26.4502 56.5504C26.4502 54.5664 27.7254 52.8792 29.499 52.2592C29.0286 52.0944 28.5246 52 27.9982 52C25.487 52 23.4502 54.04 23.4502 56.5504C23.4502 60.5016 25.487 63.7048 27.9982 63.7048C28.5246 63.7048 29.0286 63.5568 29.499 63.2984C27.7254 62.3224 26.4502 59.6744 26.4502 56.5504Z" fill="#D8C26F"/>
<path id="Vector_24" d="M71.9997 48.0024C71.9997 45.244 69.7653 43.0032 67.0037 43.0032H64.8205C64.4141 42.3664 64.1549 41.6664 64.0349 40.944C63.4189 41.4272 62.7333 41.7048 62.0005 41.7048C61.2725 41.7048 60.5837 41.4264 59.9725 40.9472C59.8477 41.6912 59.5789 42.3912 59.1869 43.0032H57.0013C54.2405 43.0032 52.0029 45.244 52.0029 48.0024V48.0048C58.1805 50.5632 65.3349 50.7648 71.9997 48.0024Z" fill="#75C6A4" stroke="#335C5F" stroke-width="1.5" stroke-miterlimit="10" stroke-linecap="round" stroke-linejoin="round"/>
<path id="Vector_25" d="M62.0006 70.0032C62.0006 67.2432 59.763 65.0024 57.0006 65.0024H54.819C54.4126 64.3656 54.155 63.6656 54.0358 62.944C53.4198 63.4264 52.7342 63.7048 52.0014 63.7048C51.2718 63.7048 50.583 63.4256 49.9702 62.9472C49.847 63.6912 49.5798 64.3912 49.187 65.0024H47.0006C44.2398 65.0024 41.999 67.2432 41.999 70.0032V70.0056C48.1814 72.5632 55.3334 72.7648 62.0006 70.0032Z" fill="#46C6F1" stroke="#335C5F" stroke-width="1.5" stroke-miterlimit="10" stroke-linecap="round" stroke-linejoin="round"/>
<path id="Vector_26" d="M30.7493 64.8808C30.3869 64.2768 30.1469 63.6216 30.0357 62.944C29.4213 63.4264 28.7349 63.7048 28.0021 63.7048C27.2717 63.7048 26.5829 63.4256 25.9701 62.9472C25.8533 63.644 25.6077 64.2992 25.2549 64.8824C26.0869 65.4064 27.0141 65.7048 28.0013 65.7048C28.9885 65.7048 29.9173 65.4056 30.7493 64.8808Z" fill="#65AD90"/>
<path id="Vector_27" d="M64.7503 42.88C64.3879 42.276 64.1487 41.6208 64.0343 40.944C63.4183 41.4272 62.7327 41.7048 61.9999 41.7048C61.2719 41.7048 60.5831 41.4264 59.9719 40.9472C59.8559 41.6432 59.6079 42.2984 59.2559 42.8816C60.0871 43.4056 61.0135 43.7048 61.9999 43.7048C62.9895 43.7048 63.9175 43.4056 64.7503 42.88Z" fill="#65AD90"/>
<path id="Vector_28" d="M35.8873 37.9288C35.8873 35.3872 34.9169 32.8464 32.9793 30.9056C31.1825 29.1088 30.0713 26.628 30.0713 23.8856C30.0713 18.4016 34.5169 13.9552 39.9993 13.9552H40.0025C45.4865 13.9552 49.9313 18.4008 49.9313 23.8856C49.9313 26.628 48.8193 29.1088 47.0193 30.9056C45.0849 32.8464 44.1145 35.3872 44.1145 37.9288H35.8873Z" stroke="#335C5F" stroke-width="1.5" stroke-miterlimit="10" stroke-linecap="round" stroke-linejoin="round"/>
<path id="Vector_29" d="M35.8867 37.9288V45.872L37.3027 47.9992H42.6931L44.1139 45.872V37.9288H35.8867Z" stroke="#335C5F" stroke-width="1.5" stroke-miterlimit="10" stroke-linecap="round" stroke-linejoin="round"/>
<path id="Vector_30" d="M20.7481 42.88C20.3865 42.276 20.1465 41.6208 20.0329 40.944C19.4177 41.4272 18.7321 41.7048 17.9985 41.7048C17.2713 41.7048 16.5817 41.4264 15.9697 40.9472C15.8529 41.6432 15.6049 42.2984 15.2529 42.8816C16.0841 43.4056 17.0105 43.7048 17.9977 43.7048C18.9881 43.7048 19.9161 43.4056 20.7481 42.88Z" fill="#3EAED3"/>
<path id="Vector_31" d="M22.5521 34.5495C22.5521 38.5023 20.5129 41.7047 17.9993 41.7047C15.4889 41.7047 13.4521 38.5023 13.4521 34.5495C13.4521 32.0383 15.4889 29.9991 17.9993 29.9991C20.5129 29.9991 22.5521 32.0383 22.5521 34.5495Z" stroke="#335C5F" stroke-width="1.5" stroke-miterlimit="10" stroke-linecap="round" stroke-linejoin="round"/>
<path id="Vector_32" d="M27.9984 48.0024C27.9984 45.244 25.7632 43.0032 23.0008 43.0032H20.8176C20.4128 42.3664 20.1536 41.6664 20.0328 40.944C19.4176 41.4272 18.732 41.7048 17.9984 41.7048C17.2712 41.7048 16.5816 41.4264 15.9696 40.9472C15.8456 41.6912 15.576 42.3912 15.1848 43.0032H12.9992C10.2376 43.0032 8 45.244 8 48.0024V48.0048C14.1792 50.5632 21.3336 50.7648 27.9984 48.0024Z" stroke="#335C5F" stroke-width="1.5" stroke-miterlimit="10" stroke-linecap="round" stroke-linejoin="round"/>
<path id="Vector_33" d="M54.7496 64.8808C54.3872 64.2768 54.148 63.6216 54.0368 62.944C53.4208 63.4264 52.7352 63.7048 52.0024 63.7048C51.2728 63.7048 50.584 63.4256 49.9712 62.9472C49.8552 63.644 49.6088 64.2992 49.2568 64.8824C50.088 65.4064 51.0144 65.7048 52.0024 65.7048C52.9904 65.7048 53.9176 65.4056 54.7496 64.8808Z" fill="#3EAED3"/>
<path id="Vector_34" d="M56.552 56.5504C56.552 60.5016 54.516 63.7048 52.0016 63.7048C49.4872 63.7048 47.4512 60.5016 47.4512 56.5504C47.4512 54.0392 49.488 52 52.0016 52C54.5152 52 56.552 54.0392 56.552 56.5504Z" stroke="#335C5F" stroke-width="1.5" stroke-miterlimit="10" stroke-linecap="round" stroke-linejoin="round"/>
<path id="Vector_35" d="M66.5531 34.5495C66.5531 38.5023 64.5139 41.7047 62.0003 41.7047C59.4891 41.7047 57.4531 38.5023 57.4531 34.5495C57.4531 32.0383 59.4891 29.9991 62.0003 29.9991C64.5147 29.9991 66.5531 32.0383 66.5531 34.5495Z" stroke="#335C5F" stroke-width="1.5" stroke-miterlimit="10" stroke-linecap="round" stroke-linejoin="round"/>
<path id="Vector_36" d="M32.5508 56.5504C32.5508 60.5016 30.514 63.7048 28.0004 63.7048C25.486 63.7048 23.4492 60.5016 23.4492 56.5504C23.4492 54.0392 25.486 52 28.0004 52C30.5148 51.9992 32.5508 54.0392 32.5508 56.5504Z" stroke="#335C5F" stroke-width="1.5" stroke-miterlimit="10" stroke-linecap="round" stroke-linejoin="round"/>
<path id="Vector_37" d="M38.0012 70.0032C38.0012 67.2432 35.7628 65.0024 33.0012 65.0024H30.818C30.4132 64.3656 30.154 63.6656 30.0348 62.944C29.4204 63.4264 28.734 63.7048 28.0012 63.7048C27.2708 63.7048 26.582 63.4256 25.9692 62.9472C25.8452 63.6912 25.578 64.3912 25.186 65.0024H23.0004C20.2396 65.0024 17.998 67.2432 17.998 70.0032V70.0056C24.1812 72.5632 31.334 72.7648 38.0012 70.0032Z" stroke="#335C5F" stroke-width="1.5" stroke-miterlimit="10" stroke-linecap="round" stroke-linejoin="round"/>
<path id="Vector_38" d="M71.9997 48.0024C71.9997 45.244 69.7653 43.0032 67.0037 43.0032H64.8205C64.4141 42.3664 64.1549 41.6664 64.0349 40.944C63.4189 41.4272 62.7333 41.7048 62.0005 41.7048C61.2725 41.7048 60.5837 41.4264 59.9725 40.9472C59.8477 41.6912 59.5789 42.3912 59.1869 43.0032H57.0013C54.2405 43.0032 52.0029 45.244 52.0029 48.0024V48.0048C58.1805 50.5632 65.3349 50.7648 71.9997 48.0024Z" stroke="#335C5F" stroke-width="1.5" stroke-miterlimit="10" stroke-linecap="round" stroke-linejoin="round"/>
<path id="Vector_39" d="M62.0006 70.0032C62.0006 67.2432 59.763 65.0024 57.0006 65.0024H54.819C54.4126 64.3656 54.155 63.6656 54.0358 62.944C53.4198 63.4264 52.7342 63.7048 52.0014 63.7048C51.2718 63.7048 50.583 63.4256 49.9702 62.9472C49.847 63.6912 49.5798 64.3912 49.187 65.0024H47.0006C44.2398 65.0024 41.999 67.2432 41.999 70.0032V70.0056C48.1814 72.5632 55.3334 72.7648 62.0006 70.0032Z" stroke="#335C5F" stroke-width="1.5" stroke-miterlimit="10" stroke-linecap="round" stroke-linejoin="round"/>
</g>
</svg>
