<svg width="358" height="321" viewBox="0 0 358 321" fill="none" xmlns="http://www.w3.org/2000/svg">
<path d="M68.1657 178.369H245.802C247.273 178.369 248.418 177.184 248.418 175.753V10.3383H65.5498V175.713C65.5498 177.184 66.6943 178.369 68.1657 178.369Z" fill="#F8FAFF" stroke="#A8B7E2" stroke-width="3" stroke-miterlimit="10"/>
<path d="M68.1657 2H245.802C247.273 2 248.418 3.18533 248.418 4.6159V10.3382H65.5498V4.6159C65.5498 3.18533 66.6943 2 68.1657 2Z" fill="#F8FAFF" stroke="#A8B7E2" stroke-width="3" stroke-miterlimit="10"/>
<path d="M88.2758 8.25366C89.4497 8.25366 90.4012 7.30207 90.4012 6.12824C90.4012 4.9544 89.4497 4.00281 88.2758 4.00281C87.102 4.00281 86.1504 4.9544 86.1504 6.12824C86.1504 7.30207 87.102 8.25366 88.2758 8.25366Z" fill="#9EF482"/>
<path d="M81.4496 8.25366C82.6235 8.25366 83.5751 7.30207 83.5751 6.12824C83.5751 4.9544 82.6235 4.00281 81.4496 4.00281C80.2758 4.00281 79.3242 4.9544 79.3242 6.12824C79.3242 7.30207 80.2758 8.25366 81.4496 8.25366Z" fill="#FFC95E"/>
<path d="M74.6235 8.25366C75.7973 8.25366 76.7489 7.30207 76.7489 6.12824C76.7489 4.9544 75.7973 4.00281 74.6235 4.00281C73.4496 4.00281 72.498 4.9544 72.498 6.12824C72.498 7.30207 73.4496 8.25366 74.6235 8.25366Z" fill="#D44945"/>
<path d="M147.501 32.9409H46.0117V100.995H147.501V32.9409Z" stroke="#D44945" stroke-width="0.75" stroke-miterlimit="10"/>
<path d="M46.0117 32.9409L147.501 100.995" stroke="#D44945" stroke-width="0.75" stroke-miterlimit="10"/>
<path d="M147.501 32.9409L46.0117 100.995" stroke="#D44945" stroke-width="0.75" stroke-miterlimit="10"/>
<path d="M57.4975 76.8391H39.7993C38.7774 76.8391 37.96 76.0217 37.96 74.9998C37.96 73.978 38.7774 73.1605 39.7993 73.1605H57.4975C58.5193 73.1605 59.3368 73.978 59.3368 74.9998C59.3368 75.9808 58.5193 76.8391 57.4975 76.8391Z" fill="#687CCD"/>
<path d="M66.0809 83.6651H39.7993C38.7774 83.6651 37.96 82.8476 37.96 81.8258C37.96 80.8039 38.7774 79.9865 39.7993 79.9865H66.0809C67.1028 79.9865 67.9203 80.8039 67.9203 81.8258C67.9203 82.8067 67.0619 83.6651 66.0809 83.6651Z" fill="#687CCD"/>
<path d="M66.0809 90.4909H39.7993C38.7774 90.4909 37.96 89.6734 37.96 88.6516C37.96 87.6297 38.7774 86.8123 39.7993 86.8123H66.0809C67.1028 86.8123 67.9203 87.6297 67.9203 88.6516C67.9203 89.6734 67.0619 90.4909 66.0809 90.4909Z" fill="#687CCD"/>
<path d="M115.906 173.423H24.0226C23.1234 173.423 22.3877 172.688 22.3877 171.788V115.71H117.5V171.788C117.541 172.688 116.806 173.423 115.906 173.423Z" fill="#687CCD"/>
<path d="M35.1402 115.71H34.7314V173.423H35.1402V115.71Z" fill="#4541FC"/>
<path d="M115.906 107.535H24.0226C23.1234 107.535 22.3877 108.271 22.3877 109.17V115.71H117.5V109.17C117.541 108.271 116.806 107.535 115.906 107.535Z" fill="#4541FC"/>
<path d="M29.9491 125.397H27.4967C26.8019 125.397 26.2705 124.866 26.2705 124.171C26.2705 123.476 26.8019 122.944 27.4967 122.944H29.9491C30.644 122.944 31.1753 123.476 31.1753 124.171C31.1753 124.825 30.6031 125.397 29.9491 125.397Z" fill="#B3C0E2"/>
<path d="M29.9491 129.484H27.4967C26.8019 129.484 26.2705 128.953 26.2705 128.258C26.2705 127.563 26.8019 127.032 27.4967 127.032H29.9491C30.644 127.032 31.1753 127.563 31.1753 128.258C31.1753 128.912 30.6031 129.484 29.9491 129.484Z" fill="#B3C0E2"/>
<path d="M29.9491 133.572H27.4967C26.8019 133.572 26.2705 133.04 26.2705 132.345C26.2705 131.651 26.8019 131.119 27.4967 131.119H29.9491C30.644 131.119 31.1753 131.651 31.1753 132.345C31.1753 132.999 30.6031 133.572 29.9491 133.572Z" fill="#B3C0E2"/>
<path d="M29.9491 137.659H27.4967C26.8019 137.659 26.2705 137.128 26.2705 136.433C26.2705 135.738 26.8019 135.207 27.4967 135.207H29.9491C30.644 135.207 31.1753 135.738 31.1753 136.433C31.1753 137.087 30.6031 137.659 29.9491 137.659Z" fill="#B3C0E2"/>
<path d="M29.9491 141.746H27.4967C26.8019 141.746 26.2705 141.215 26.2705 140.52C26.2705 139.825 26.8019 139.294 27.4967 139.294H29.9491C30.644 139.294 31.1753 139.825 31.1753 140.52C31.1753 141.174 30.6031 141.746 29.9491 141.746Z" fill="#B3C0E2"/>
<path d="M29.9491 145.834H27.4967C26.8019 145.834 26.2705 145.302 26.2705 144.607C26.2705 143.913 26.8019 143.381 27.4967 143.381H29.9491C30.644 143.381 31.1753 143.913 31.1753 144.607C31.1753 145.261 30.6031 145.834 29.9491 145.834Z" fill="#B3C0E2"/>
<path d="M29.9491 149.921H27.4967C26.8019 149.921 26.2705 149.39 26.2705 148.695C26.2705 148 26.8019 147.469 27.4967 147.469H29.9491C30.644 147.469 31.1753 148 31.1753 148.695C31.1753 149.349 30.6031 149.921 29.9491 149.921Z" fill="#B3C0E2"/>
<path d="M29.9491 154.008H27.4967C26.8019 154.008 26.2705 153.477 26.2705 152.782C26.2705 152.087 26.8019 151.556 27.4967 151.556H29.9491C30.644 151.556 31.1753 152.087 31.1753 152.782C31.1753 153.436 30.6031 154.008 29.9491 154.008Z" fill="#B3C0E2"/>
<path d="M29.9491 158.096H27.4967C26.8019 158.096 26.2705 157.564 26.2705 156.87C26.2705 156.175 26.8019 155.643 27.4967 155.643H29.9491C30.644 155.643 31.1753 156.175 31.1753 156.87C31.1753 157.523 30.6031 158.096 29.9491 158.096Z" fill="#B3C0E2"/>
<path d="M29.9491 162.183H27.4967C26.8019 162.183 26.2705 161.652 26.2705 160.957C26.2705 160.262 26.8019 159.731 27.4967 159.731H29.9491C30.644 159.731 31.1753 160.262 31.1753 160.957C31.1753 161.611 30.6031 162.183 29.9491 162.183Z" fill="#B3C0E2"/>
<path d="M29.9491 166.27H27.4967C26.8019 166.27 26.2705 165.739 26.2705 165.044C26.2705 164.349 26.8019 163.818 27.4967 163.818H29.9491C30.644 163.818 31.1753 164.349 31.1753 165.044C31.1753 165.698 30.6031 166.27 29.9491 166.27Z" fill="#B3C0E2"/>
<path d="M48.7513 125.397H42.2116C41.5167 125.397 40.9854 124.866 40.9854 124.171C40.9854 123.476 41.5167 122.944 42.2116 122.944H48.7513C49.4462 122.944 49.9775 123.476 49.9775 124.171C49.9775 124.825 49.4053 125.397 48.7513 125.397Z" fill="#B3C0E2"/>
<path d="M39.7993 122.699L38.6548 123.844C38.4914 124.007 38.4914 124.252 38.6548 124.416L39.7993 125.56C39.9628 125.724 40.208 125.724 40.3715 125.56C40.535 125.397 40.535 125.152 40.3715 124.988L39.5132 124.13L40.3715 123.272C40.535 123.108 40.535 122.863 40.3715 122.699C40.208 122.577 39.9628 122.577 39.7993 122.699Z" fill="#B3C0E2"/>
<path d="M39.7993 163.573L38.6548 164.717C38.4914 164.881 38.4914 165.126 38.6548 165.289L39.7993 166.434C39.9628 166.597 40.208 166.597 40.3715 166.434C40.535 166.27 40.535 166.025 40.3715 165.862L39.5132 165.003L40.3715 164.145C40.535 163.982 40.535 163.736 40.3715 163.573C40.208 163.45 39.9628 163.45 39.7993 163.573Z" fill="#B3C0E2"/>
<path d="M51.0806 122.699L52.225 123.844C52.3885 124.007 52.3885 124.252 52.225 124.416L51.0806 125.56C50.9171 125.724 50.6719 125.724 50.5084 125.56C50.3449 125.397 50.3449 125.152 50.5084 124.988L51.3667 124.13L50.5084 123.272C50.3449 123.108 50.3449 122.863 50.5084 122.699C50.6719 122.577 50.9171 122.577 51.0806 122.699Z" fill="#B3C0E2"/>
<path d="M53.7788 163.573L54.9233 164.717C55.0868 164.881 55.0868 165.126 54.9233 165.289L53.7788 166.434C53.6153 166.597 53.3701 166.597 53.2066 166.434C53.0431 166.27 53.0431 166.025 53.2066 165.862L54.065 165.003L53.2066 164.145C53.0431 163.982 53.0431 163.736 53.2066 163.573C53.3292 163.45 53.6153 163.45 53.7788 163.573Z" fill="#B3C0E2"/>
<path d="M46.2982 129.484H39.7584C39.0636 129.484 38.5322 128.953 38.5322 128.258C38.5322 127.563 39.0636 127.032 39.7584 127.032H46.2982C46.993 127.032 47.5244 127.563 47.5244 128.258C47.5244 128.912 46.9522 129.484 46.2982 129.484Z" fill="#FFA79B"/>
<path d="M51.1218 133.572H43.8463C43.1515 133.572 42.6201 133.04 42.6201 132.345C42.6201 131.651 43.1515 131.119 43.8463 131.119H51.1218C51.8167 131.119 52.348 131.651 52.348 132.345C52.348 132.999 51.8167 133.572 51.1218 133.572Z" fill="#FFC75D"/>
<path d="M57.8656 133.572H54.4323C53.7374 133.572 53.2061 133.04 53.2061 132.345C53.2061 131.651 53.7374 131.119 54.4323 131.119H57.8656C58.5605 131.119 59.0918 131.651 59.0918 132.345C59.0918 132.999 58.5605 133.572 57.8656 133.572Z" fill="#4541FC"/>
<path d="M74.5419 133.572H61.4215C60.7267 133.572 60.1953 133.04 60.1953 132.345C60.1953 131.651 60.7267 131.119 61.4215 131.119H74.5419C75.2368 131.119 75.7681 131.651 75.7681 132.345C75.7681 132.999 75.1959 133.572 74.5419 133.572Z" fill="#FFA79B"/>
<path d="M96.001 133.572H78.1393C77.4444 133.572 76.9131 133.04 76.9131 132.345C76.9131 131.651 77.4444 131.119 78.1393 131.119H96.001C96.6959 131.119 97.2272 131.651 97.2272 132.345C97.2272 132.999 96.6959 133.572 96.001 133.572Z" fill="#8BBAE8"/>
<path d="M106.382 133.572H99.5563C98.8614 133.572 98.3301 133.04 98.3301 132.345C98.3301 131.651 98.8614 131.119 99.5563 131.119H106.382C107.077 131.119 107.608 131.651 107.608 132.345C107.608 132.999 107.077 133.572 106.382 133.572Z" fill="#FFA79B"/>
<path d="M55.209 137.659H43.8053C43.1105 137.659 42.5791 137.128 42.5791 136.433C42.5791 135.738 43.1105 135.207 43.8053 135.207H55.209C55.9039 135.207 56.4352 135.738 56.4352 136.433C56.4352 137.087 55.9039 137.659 55.209 137.659Z" fill="#8BBAE8"/>
<path d="M65.9992 137.659H58.5602C57.8653 137.659 57.334 137.128 57.334 136.433C57.334 135.738 57.8653 135.207 58.5602 135.207H65.9992C66.694 135.207 67.2254 135.738 67.2254 136.433C67.2254 137.087 66.694 137.659 65.9992 137.659Z" fill="#FFC75D"/>
<path d="M84.9243 137.659H69.4332C68.7384 137.659 68.207 137.128 68.207 136.433C68.207 135.738 68.7384 135.207 69.4332 135.207H84.9243C85.6191 135.207 86.1505 135.738 86.1505 136.433C86.1505 137.087 85.6191 137.659 84.9243 137.659Z" fill="#FFA79B"/>
<path d="M100.006 137.659H88.316C87.6212 137.659 87.0898 137.128 87.0898 136.433C87.0898 135.738 87.6212 135.207 88.316 135.207H100.006C100.701 135.207 101.232 135.738 101.232 136.433C101.232 137.087 100.701 137.659 100.006 137.659Z" fill="#4541FC"/>
<path d="M48.7511 141.746H43.8463C43.1515 141.746 42.6201 141.215 42.6201 140.52C42.6201 139.825 43.1515 139.294 43.8463 139.294H48.7511C49.446 139.294 49.9774 139.825 49.9774 140.52C49.9774 141.174 49.4051 141.746 48.7511 141.746Z" fill="#B3C0E2"/>
<path d="M62.4849 141.746H52.0621C51.3673 141.746 50.8359 141.215 50.8359 140.52C50.8359 139.825 51.3673 139.294 52.0621 139.294H62.4849C63.1797 139.294 63.7111 139.825 63.7111 140.52C63.7111 141.174 63.1797 141.746 62.4849 141.746Z" fill="#FFC75D"/>
<path d="M90.3598 141.746H65.8766C65.1817 141.746 64.6504 141.215 64.6504 140.52C64.6504 139.825 65.1817 139.294 65.8766 139.294H90.3598C91.0547 139.294 91.586 139.825 91.586 140.52C91.586 141.174 91.0547 141.746 90.3598 141.746Z" fill="#8BBAE8"/>
<path d="M46.2982 145.834H39.7584C39.0636 145.834 38.5322 145.302 38.5322 144.607C38.5322 143.913 39.0636 143.381 39.7584 143.381H46.2982C46.993 143.381 47.5244 143.913 47.5244 144.607C47.5244 145.261 46.9522 145.834 46.2982 145.834Z" fill="#FFA79B"/>
<path d="M46.2982 149.921H39.7584C39.0636 149.921 38.5322 149.39 38.5322 148.695C38.5322 148 39.0636 147.469 39.7584 147.469H46.2982C46.993 147.469 47.5244 148 47.5244 148.695C47.5244 149.349 46.9522 149.921 46.2982 149.921Z" fill="#FFA79B"/>
<path d="M53.8195 154.008H43.8463C43.1515 154.008 42.6201 153.477 42.6201 152.782C42.6201 152.087 43.1515 151.556 43.8463 151.556H53.8195C54.5143 151.556 55.0457 152.087 55.0457 152.782C55.0457 153.436 54.4734 154.008 53.8195 154.008Z" fill="#4541FC"/>
<path d="M80.0191 154.008H57.2526C56.5577 154.008 56.0264 153.477 56.0264 152.782C56.0264 152.087 56.5577 151.556 57.2526 151.556H80.0191C80.714 151.556 81.2453 152.087 81.2453 152.782C81.2453 153.436 80.714 154.008 80.0191 154.008Z" fill="#FFC75D"/>
<path d="M95.3466 154.008H83.6159C82.921 154.008 82.3896 153.477 82.3896 152.782C82.3896 152.087 82.921 151.556 83.6159 151.556H95.3466C96.0414 151.556 96.5728 152.087 96.5728 152.782C96.5728 153.436 96.0414 154.008 95.3466 154.008Z" fill="#FFA79B"/>
<path d="M51.1218 158.096H43.8463C43.1515 158.096 42.6201 157.564 42.6201 156.87C42.6201 156.175 43.1515 155.643 43.8463 155.643H51.1218C51.8167 155.643 52.348 156.175 52.348 156.87C52.348 157.523 51.8167 158.096 51.1218 158.096Z" fill="#FFC75D"/>
<path d="M66.7353 158.096H54.4733C53.7784 158.096 53.2471 157.564 53.2471 156.87C53.2471 156.175 53.7784 155.643 54.4733 155.643H66.7353C67.4302 155.643 67.9615 156.175 67.9615 156.87C67.9615 157.523 67.4302 158.096 66.7353 158.096Z" fill="#8BBAE8"/>
<path d="M74.5425 158.096H70.2916C69.5968 158.096 69.0654 157.564 69.0654 156.87C69.0654 156.175 69.5968 155.643 70.2916 155.643H74.5425C75.2373 155.643 75.7687 156.175 75.7687 156.87C75.7687 157.523 75.1965 158.096 74.5425 158.096Z" fill="#FFC75D"/>
<path d="M46.2982 162.183H39.7584C39.0636 162.183 38.5322 161.652 38.5322 160.957C38.5322 160.262 39.0636 159.731 39.7584 159.731H46.2982C46.993 159.731 47.5244 160.262 47.5244 160.957C47.5244 161.611 46.9522 162.183 46.2982 162.183Z" fill="#FFA79B"/>
<path d="M51.2445 166.27H44.7047C44.0099 166.27 43.4785 165.739 43.4785 165.044C43.4785 164.349 44.0099 163.818 44.7047 163.818H51.2445C51.9393 163.818 52.4707 164.349 52.4707 165.044C52.4707 165.698 51.8985 166.27 51.2445 166.27Z" fill="#B3C0E2"/>
<path d="M41.2305 165.862L42.4158 163.818C42.5384 163.614 42.7837 163.573 42.988 163.655C43.1924 163.777 43.2333 164.022 43.1515 164.227L41.9662 166.27C41.8436 166.475 41.5983 166.516 41.394 166.434C41.1896 166.311 41.1078 166.066 41.2305 165.862Z" fill="#B3C0E2"/>
<path d="M314.225 316.726H189.397C182.735 316.726 177.299 311.331 177.299 304.627V40.5434C177.299 33.881 182.694 28.4448 189.397 28.4448H314.225C320.888 28.4448 326.324 33.8401 326.324 40.5434V304.627C326.324 311.29 320.888 316.726 314.225 316.726Z" fill="#CFE5FF"/>
<path d="M326.324 40.5434C326.324 33.881 320.928 28.4448 314.225 28.4448H189.397C182.735 28.4448 177.299 33.8401 177.299 40.5434V152.373C193.607 166.27 216.251 178.492 247.07 182.252C279.851 186.258 306.296 183.274 326.283 178.246V40.5434H326.324Z" fill="#BCD7FD"/>
<path d="M204.194 280.839H169.533C167.04 280.839 164.996 278.795 164.996 276.302V241.6C164.996 239.107 167.04 237.063 169.533 237.063H204.235C206.728 237.063 208.772 239.107 208.772 241.6V276.302C208.731 278.836 206.728 280.839 204.194 280.839Z" fill="#8BBAE8"/>
<path d="M254.672 280.839H219.971C217.477 280.839 215.434 278.795 215.434 276.302V241.6C215.434 239.107 217.477 237.063 219.971 237.063H254.672C257.165 237.063 259.209 239.107 259.209 241.6V276.302C259.209 278.836 257.165 280.839 254.672 280.839Z" fill="#8BBAE8"/>
<path d="M305.11 280.839H270.408C267.915 280.839 265.871 278.795 265.871 276.302V241.6C265.871 239.107 267.915 237.063 270.408 237.063H305.11C307.603 237.063 309.647 239.107 309.647 241.6V276.302C309.647 278.836 307.603 280.839 305.11 280.839Z" fill="#8BBAE8"/>
<path d="M307.399 311.985H182.571C175.909 311.985 170.473 306.589 170.473 299.886V35.843C170.473 29.1806 175.868 23.7444 182.571 23.7444H307.399C314.061 23.7444 319.498 29.1397 319.498 35.843V299.927C319.498 306.589 314.061 311.985 307.399 311.985Z" stroke="#687CCD" stroke-width="3" stroke-miterlimit="10"/>
<path d="M275.681 126.133H221.401C218.703 126.133 216.496 123.925 216.496 121.228V66.9068C216.496 64.2091 218.703 62.002 221.401 62.002H275.722C278.419 62.002 280.627 64.2091 280.627 66.9068V121.228C280.586 123.925 278.379 126.133 275.681 126.133Z" fill="#63A7EA"/>
<path d="M311.365 90.6953L301.024 80.3951L297.672 83.7468L308.013 94.0469L297.672 104.388L301.024 107.699L311.365 97.3985L314.675 94.0469L311.365 90.6953Z" fill="white"/>
<path d="M184.451 97.3985L194.751 107.699L198.103 104.388L187.803 94.0469L198.103 83.7468L194.751 80.3951L184.451 90.6953L181.1 94.0469L184.451 97.3985Z" fill="white"/>
<path d="M312.794 40.0529H301.227C300.655 40.0529 300.164 39.5624 300.164 38.9902V38.4588C300.164 37.8866 300.655 37.3961 301.227 37.3961H312.794C313.366 37.3961 313.857 37.8866 313.857 38.4588V38.9902C313.857 39.5624 313.366 40.0529 312.794 40.0529Z" fill="#74ABED"/>
<path d="M312.794 43.9767H301.227C300.655 43.9767 300.164 43.4862 300.164 42.914V42.3827C300.164 41.8104 300.655 41.3199 301.227 41.3199H312.794C313.366 41.3199 313.857 41.8104 313.857 42.3827V42.914C313.857 43.5271 313.366 43.9767 312.794 43.9767Z" fill="#74ABED"/>
<path d="M312.794 47.9414H301.227C300.655 47.9414 300.164 47.451 300.164 46.8787V46.3474C300.164 45.7752 300.655 45.2847 301.227 45.2847H312.794C313.366 45.2847 313.857 45.7752 313.857 46.3474V46.8787C313.857 47.451 313.366 47.9414 312.794 47.9414Z" fill="#74ABED"/>
<path d="M200.72 42.6279L194.057 35.9655C193.853 35.7612 193.567 35.7612 193.403 35.9655L186.741 42.6279C186.455 42.914 186.659 43.4454 187.068 43.4454H188.907V49.0859C188.907 49.3312 189.111 49.5764 189.398 49.5764H198.063C198.308 49.5764 198.553 49.3721 198.553 49.0859V43.4454H200.393C200.801 43.4045 201.006 42.914 200.72 42.6279Z" fill="#74ABED"/>
<path d="M287.003 176.162H210.079C207.381 176.162 205.174 173.955 205.174 171.257V171.093C205.174 168.396 207.381 166.189 210.079 166.189H286.962C289.659 166.189 291.867 168.396 291.867 171.093V171.257C291.907 173.955 289.7 176.162 287.003 176.162Z" fill="white"/>
<path d="M292.849 188.219H193.118C191.973 188.219 191.033 189.16 191.033 190.304C191.033 191.449 191.973 192.389 193.118 192.389H292.849C293.994 192.389 294.934 191.449 294.934 190.304C294.934 189.16 293.994 188.219 292.849 188.219Z" fill="white"/>
<path d="M292.849 199.174H193.118C191.973 199.174 191.033 200.114 191.033 201.258C191.033 202.403 191.973 203.343 193.118 203.343H292.849C293.994 203.343 294.934 202.403 294.934 201.258C294.934 200.114 293.994 199.174 292.849 199.174Z" fill="white"/>
<path d="M292.849 210.128H193.118C191.973 210.128 191.033 211.068 191.033 212.212C191.033 213.357 191.973 214.297 193.118 214.297H292.849C293.994 214.297 294.934 213.357 294.934 212.212C294.934 211.068 293.994 210.128 292.849 210.128Z" fill="white"/>
<path d="M260.722 221.041H193.077C191.932 221.041 190.992 221.981 190.992 223.125C190.992 224.27 191.932 225.21 193.077 225.21H260.722C261.867 225.21 262.807 224.27 262.807 223.125C262.848 221.981 261.908 221.041 260.722 221.041Z" fill="white"/>
<path d="M268.978 119.879H214.657C211.959 119.879 209.752 117.672 209.752 114.974V60.6535C209.752 57.9558 211.959 55.7487 214.657 55.7487H268.978C271.675 55.7487 273.882 57.9558 273.882 60.6535V114.974C273.882 117.672 271.675 119.879 268.978 119.879Z" fill="#E2ECF9"/>
<path d="M209.874 102.304L209.465 111.337H200.555L203.171 101.895L209.874 102.304Z" fill="#FFC75D"/>
<path d="M209.466 111.337L208.199 141.011C208.035 145.057 204.929 148.409 200.923 148.899L173.988 152.169L172.884 149.758L166.508 136.024H193.689L200.555 111.337H209.466Z" fill="#E5A39E"/>
<path d="M203.17 101.936C203.17 101.936 201.617 97.8484 202.516 93.7202C203.416 89.5919 206.318 89.1832 208.647 88.4066C210.977 87.5891 212.653 86.8943 214.779 89.6328C216.904 92.3713 218.089 92.1261 216.373 92.6575C214.656 93.1888 213.266 93.2706 212.367 92.167C211.468 91.0634 211.345 90.5729 211.345 90.5729C211.345 90.5729 213.348 94.7011 212.163 96.0908C210.936 97.4805 209.751 97.6032 209.751 97.6032L209.874 102.385L203.17 101.936Z" fill="#FFC75D"/>
<path d="M194.629 137.782C194.793 139.212 194.956 140.684 195.12 142.114C195.161 142.441 195.692 142.441 195.651 142.114C195.488 140.684 195.324 139.212 195.161 137.782C195.12 137.455 194.588 137.455 194.629 137.782Z" fill="black"/>
<path d="M195.937 136.924C197.245 137.823 198.594 138.722 199.902 139.662C200.188 139.866 200.474 139.376 200.188 139.212C198.88 138.313 197.531 137.414 196.223 136.474C195.896 136.27 195.651 136.719 195.937 136.924Z" fill="black"/>
<path d="M164.547 116.528C164.547 116.528 173.212 114.28 169.656 106.023C166.1 97.7666 158.62 96.6631 153.879 100.383C149.138 104.143 152.694 109.375 152.694 109.375C152.694 109.375 148.361 106.759 146.399 110.11C144.437 113.503 146.808 115.342 146.808 115.342C146.808 115.342 140.881 113.339 139.328 117.222C137.489 121.719 142.884 122.863 142.884 122.863C142.884 122.863 140.513 125.847 141.699 128.095C142.884 130.343 144.478 131.079 144.478 131.079C144.478 131.079 138.184 132.223 138.184 137.455C138.184 142.687 146.849 141.215 146.849 141.215H158.293L159.07 121.719L164.547 116.528Z" fill="black"/>
<path d="M154.697 127.4L153.92 137.128L163.812 141.706L164.139 128.136L168.43 126.582C170.474 125.847 171.332 123.394 170.188 121.555L162.585 109.416C162.585 109.416 160.215 120.288 156.659 121.024C153.103 121.759 152.735 119.143 152.735 119.143C152.735 119.143 146.44 122.127 148.811 125.52C151.141 128.912 154.697 127.4 154.697 127.4Z" fill="#FFC75D"/>
<path d="M164.548 116.568C164.915 117.549 165.651 118.244 166.591 118.612C166.51 118.53 166.469 118.449 166.387 118.367C166.346 118.817 166.183 119.184 165.896 119.511C165.692 119.797 166.142 120.043 166.346 119.797C166.673 119.348 166.837 118.898 166.877 118.367C166.877 118.244 166.796 118.163 166.673 118.122C165.896 117.836 165.283 117.222 164.997 116.446C164.956 116.119 164.425 116.282 164.548 116.568Z" fill="black"/>
<path d="M166.263 123.272C165.078 124.007 163.525 123.762 162.585 122.7C162.38 122.454 161.971 122.822 162.217 123.067C163.279 124.334 165.119 124.58 166.508 123.721C166.795 123.558 166.549 123.108 166.263 123.272Z" fill="black"/>
<path d="M163.73 127.523C162.872 127.768 161.973 128.054 161.114 128.299C160.787 128.381 160.91 128.912 161.237 128.831C162.095 128.585 162.994 128.299 163.853 128.054C164.221 127.972 164.057 127.441 163.73 127.523Z" fill="black"/>
<path d="M150.65 124.294C150.65 122.986 151.999 121.964 153.266 122.332C154.329 122.618 154.983 123.64 155.146 124.702C155.31 124.621 155.433 124.539 155.596 124.457C154.288 123.108 152.163 123.64 151.631 125.438C151.55 125.765 152.04 125.929 152.163 125.561C152.571 124.13 154.165 123.762 155.228 124.784C155.433 124.988 155.719 124.784 155.678 124.539C155.433 123.108 154.329 121.719 152.776 121.678C151.345 121.637 150.119 122.822 150.078 124.253C150.119 124.661 150.65 124.661 150.65 124.294Z" fill="black"/>
<path d="M139.328 202.771L189.766 202.035L181.877 165.29L182.491 164.636C187.395 159.567 187.355 151.515 182.409 146.529L175.828 139.866C173.417 137.414 170.106 136.065 166.673 136.065H154.615C148.933 136.065 144.315 140.561 144.151 146.243L139.328 202.771Z" fill="#FFA79B"/>
<path d="M141.577 176.203L141.127 181.598L156.986 184.909L144.479 175.222L141.577 176.203Z" fill="black"/>
<path d="M179.916 164.636C177.3 162.51 173.295 163.001 170.147 163.246C166.837 163.491 163.567 164.309 161.155 166.679C160.91 166.925 161.278 167.293 161.523 167.047C163.853 164.758 167 164.023 170.147 163.777C173.131 163.532 177.055 163.042 179.548 165.004C179.793 165.208 180.161 164.84 179.916 164.636Z" fill="black"/>
<path d="M152.242 303.115L150.362 310.023C146.806 310.023 146.029 311.617 144.435 310.023C143.945 309.532 142.637 309.083 141.002 308.674L141.329 303.115H152.242Z" fill="#FFC75D"/>
<path d="M203.744 303.115L203.54 309.246C199.984 308.47 201.578 312.802 199.207 310.799C198.839 310.472 197.409 310.268 195.324 310.064L194.139 303.074H203.744V303.115Z" fill="#FFC75D"/>
<path d="M205.009 264.898L203.783 303.115H194.178L189.477 275.566C189.191 273.809 189.069 272.01 189.11 270.212L189.396 261.669L170.471 228.684L163.359 262.037L152.242 303.156H141.328L142.963 276.874C143.168 274.054 143.699 271.275 144.557 268.577L147.173 260.566C147.173 260.566 141.655 232.036 141.247 222.594C140.838 213.153 142.432 202.852 142.432 202.852L189.723 202.117L204.069 257.092C204.805 259.585 205.091 262.242 205.009 264.898Z" fill="black"/>
<path d="M161.807 316.726H140.512L141.002 308.674C142.637 309.083 143.945 309.532 144.436 310.023C146.03 311.617 146.806 310.023 150.362 310.023L162.256 314.314C163.564 314.805 163.197 316.726 161.807 316.726Z" fill="#687CCD"/>
<path d="M216.25 316.726H196.467L195.322 310.104C197.448 310.268 198.837 310.513 199.205 310.84C201.576 312.802 199.982 308.51 203.538 309.287L216.699 314.396C217.966 314.805 217.639 316.726 216.25 316.726Z" fill="#687CCD"/>
<path d="M148.605 204.814C147.869 217.608 147.951 230.442 148.973 243.195C149.504 249.653 150.444 256.029 151.139 262.446C151.834 268.7 149.831 275.035 148.769 281.166C147.542 287.992 146.48 294.859 145.58 301.766C145.539 302.093 146.071 302.093 146.112 301.766C146.97 295.267 147.951 288.809 149.095 282.351C149.627 279.286 150.199 276.22 150.812 273.155C151.344 270.416 151.957 267.719 151.875 264.898C151.793 261.751 151.139 258.604 150.771 255.457C150.363 252.187 150.036 248.917 149.709 245.647C149.136 239.312 148.809 232.976 148.687 226.641C148.564 219.365 148.687 212.09 149.136 204.814C149.177 204.446 148.646 204.446 148.605 204.814Z" fill="white"/>
<path d="M153.958 204.487C154.898 209.678 153.468 214.992 149.993 218.997C149.789 219.243 150.157 219.651 150.361 219.365C153.958 215.196 155.43 209.719 154.449 204.324C154.408 203.997 153.917 204.16 153.958 204.487Z" fill="white"/>
<path d="M171.452 227.704C171.738 225.742 172.433 223.943 173.578 222.308C173.782 222.022 173.291 221.736 173.128 222.022C171.983 223.698 171.248 225.537 170.962 227.54C170.88 227.908 171.411 228.03 171.452 227.704Z" fill="white"/>
<path d="M173.087 225.374C176.153 231.586 179.341 237.758 182.57 243.889C184.082 246.751 185.635 249.612 187.189 252.432C188.865 255.457 191.113 258.563 192.216 261.833C193.32 265.103 193.115 268.904 193.442 272.296C193.728 275.526 194.096 278.795 194.464 282.024C195.282 288.769 196.303 295.472 197.489 302.134C197.571 302.461 198.061 302.339 198.02 302.012C196.753 294.94 195.69 287.828 194.832 280.676C194.423 277.201 194.096 273.727 193.769 270.253C193.524 267.269 193.606 263.999 192.502 261.138C191.358 258.236 189.478 255.538 188.006 252.8C186.33 249.775 184.655 246.71 183.06 243.644C179.791 237.513 176.643 231.341 173.578 225.128C173.414 224.801 172.965 225.088 173.087 225.374Z" fill="white"/>
<path d="M170.064 183.519L166.917 188.874L156.984 184.909L161.235 176.693L170.064 183.519Z" fill="#FFC75D"/>
<path d="M149.178 167.333L161.235 176.693L156.985 184.95L139.695 178.001C135.036 176.162 132.665 170.971 134.259 166.23L141.207 145.629C143.128 139.907 148.565 136.106 154.573 136.188L165.732 136.392L149.178 167.333Z" fill="#FFA79B"/>
<path d="M182.081 229.543L157.556 205.019C155.799 203.261 155.799 200.359 157.556 198.602L182.081 174.077C183.838 172.32 186.74 172.32 188.498 174.077L213.022 198.602C214.779 200.359 214.779 203.261 213.022 205.019L188.498 229.543C186.74 231.341 183.838 231.341 182.081 229.543Z" fill="#8BBAE8"/>
<path d="M174.723 187.688L173.334 183.029C173.007 181.884 171.781 181.271 170.636 181.68C169.492 182.089 168.592 182.947 168.102 184.092L165.609 189.119C165.241 189.977 165.323 190.958 165.772 191.735L167.938 195.168C167.611 195.781 167.325 196.476 167.325 196.926C167.325 197.825 168.838 199.092 169.124 198.193C169.369 197.294 170.677 195.863 170.677 195.863L171.781 194.187C172.516 193.533 172.884 192.552 172.843 191.571L172.761 190.141C174.151 190.223 175.132 188.955 174.723 187.688Z" fill="#FFC75D"/>
<path d="M171.332 184.827C171.945 186.503 172.517 188.179 172.967 189.896C173.049 190.222 173.58 190.1 173.498 189.773C173.008 188.056 172.476 186.38 171.863 184.705C171.7 184.337 171.209 184.5 171.332 184.827Z" fill="black"/>
<path d="M168.919 182.824C167.775 184.337 166.835 185.89 166.017 187.607C165.854 187.934 166.344 188.179 166.467 187.893C167.284 186.217 168.265 184.623 169.369 183.111C169.573 182.824 169.124 182.538 168.919 182.824Z" fill="black"/>
<path d="M170.063 187.607C170.758 189.569 171.33 191.53 171.78 193.533C171.862 193.86 172.393 193.738 172.311 193.411C171.821 191.408 171.248 189.446 170.595 187.484C170.472 187.157 169.941 187.28 170.063 187.607Z" fill="black"/>
<path d="M168.389 190.999C169.247 192.43 169.983 193.901 170.555 195.454C170.678 195.781 171.209 195.618 171.086 195.332C170.514 193.738 169.778 192.184 168.879 190.754C168.675 190.427 168.184 190.713 168.389 190.999Z" fill="black"/>
<path d="M158.211 150.861C156.617 153.273 155.105 155.725 153.715 158.259C152.448 160.548 150.731 163.164 150.036 165.739C149.505 167.619 152.162 169.132 153.347 170.276C155.636 172.483 157.884 174.65 160.173 176.857C160.418 177.102 160.786 176.734 160.541 176.489C158.701 174.691 156.821 172.933 154.982 171.135C154.042 170.235 153.143 169.336 152.202 168.478C151.835 168.151 151.181 167.701 150.935 167.252C150.322 166.025 150.976 164.922 151.467 163.941C153.551 159.526 155.963 155.276 158.661 151.188C158.865 150.82 158.415 150.575 158.211 150.861Z" fill="black"/>
<path d="M152.693 138.722C155.513 140.316 157.23 143.218 157.312 146.447C157.312 146.774 157.843 146.774 157.843 146.447C157.762 143.014 155.963 139.948 152.979 138.272C152.652 138.109 152.366 138.558 152.693 138.722Z" fill="black"/>
<path d="M148.032 166.271C146.724 166.271 145.416 166.271 144.109 166.271C143.782 166.271 143.782 166.802 144.109 166.802C145.416 166.802 146.724 166.802 148.032 166.802C148.4 166.802 148.4 166.271 148.032 166.271Z" fill="black"/>
<path d="M148.688 167.865C147.871 168.355 147.298 169.091 147.012 170.031C146.89 170.358 147.421 170.521 147.544 170.154C147.789 169.377 148.279 168.764 148.974 168.314C149.26 168.151 148.974 167.701 148.688 167.865Z" fill="black"/>
<path d="M85.2096 298.905L80.1413 309.613C76.2175 308.837 75.4 311.167 73.8468 309.205C73.1928 308.387 71.19 308.305 69.1055 308.51L72.3345 298.905H85.2096Z" fill="#FFA79B"/>
<path d="M96.8182 274.421L88.1121 298.905L72.0488 298.986L87.8669 252.881L96.8182 274.421Z" fill="#687CCD"/>
<path d="M92.6891 286.029L96.8174 274.421L87.8661 252.881L83.3291 266.042L92.6891 286.029Z" fill="black"/>
<path d="M90.932 316.725H66.3262L69.1056 308.551C71.1901 308.346 73.1929 308.387 73.8469 309.246C75.441 311.207 76.2176 308.837 80.1414 309.654L91.4634 314.273C92.7305 314.763 92.3626 316.725 90.932 316.725Z" fill="#4541FC"/>
<path d="M90.3189 269.108C86.9264 278.509 83.5748 287.91 80.1823 297.311C80.0597 297.638 80.591 297.76 80.7137 297.433C84.1062 288.032 87.4578 278.631 90.8503 269.23C90.9729 268.944 90.4416 268.781 90.3189 269.108Z" fill="black"/>
<path d="M74.6236 294.899C79.4058 295.022 84.188 295.185 88.9702 295.308C89.2972 295.308 89.2972 294.776 88.9702 294.776C84.188 294.654 79.4058 294.49 74.6236 294.368C74.2557 294.327 74.2557 294.858 74.6236 294.899Z" fill="black"/>
<path d="M125.021 214.337H88.9297V215.931H125.021V214.337Z" fill="black"/>
<path d="M124.566 215.775L134.639 186.302L133.556 185.932L123.483 215.405L124.566 215.775Z" fill="black"/>
<path d="M49.5273 177.715L65.8359 161.243L80.5504 168.763L74.6237 179.84C73.2749 182.415 70.0459 183.314 67.5526 181.843L63.22 179.268L58.4787 185.562L49.5273 177.715Z" fill="#FFA79B"/>
<path d="M70.0053 167.741C70.0053 167.741 80.5098 175.63 84.1884 170.889C87.867 166.147 73.1525 154.58 66.3267 156.706C59.5008 158.831 56.3535 170.357 56.3535 170.357L63.1794 172.442C63.1794 172.442 61.5853 165.085 65.2639 165.085C68.9426 165.085 67.8799 169.826 67.8799 169.826L70.0053 167.741Z" fill="black"/>
<path d="M76.2992 174.036C76.2992 174.935 76.2583 175.834 76.2583 176.734C76.34 176.652 76.3809 176.57 76.4627 176.488C75.7269 176.652 74.9912 176.529 74.3372 176.161C74.0511 175.998 73.765 176.448 74.0511 176.611C74.8277 177.061 75.6861 177.183 76.5853 176.979C76.7079 176.938 76.7897 176.815 76.7897 176.734C76.7897 175.834 76.8305 174.935 76.8305 174.036C76.8305 173.709 76.2992 173.709 76.2992 174.036Z" fill="black"/>
<path d="M71.1091 177.878C70.0463 177.101 69.188 176.121 68.5749 174.976C68.4931 174.813 68.2479 174.813 68.1662 174.935C66.94 176.284 66.9808 178.369 68.2479 179.677C68.4931 179.922 68.861 179.554 68.6158 179.309C67.5531 178.205 67.5122 176.447 68.534 175.344C68.4114 175.344 68.2479 175.303 68.1253 175.303C68.7793 176.529 69.7194 177.592 70.8638 178.409C71.1091 178.532 71.3952 178.082 71.1091 177.878Z" fill="black"/>
<path d="M64.4053 167.374C64.5279 166.474 65.7541 166.638 66.2854 167.128C67.2255 168.028 66.2854 169.744 65.795 170.643C65.9585 170.725 66.122 170.766 66.2854 170.848C66.6124 169.54 65.7541 168.15 64.4461 167.946C64.1191 167.905 63.9557 168.395 64.3235 168.477C65.3862 168.641 66.0811 169.703 65.795 170.725C65.7132 171.011 66.122 171.216 66.2854 170.93C66.9394 169.744 67.9613 167.537 66.4081 166.556C65.5906 166.025 64.1192 166.106 63.9148 167.251C63.833 167.578 64.3644 167.741 64.4053 167.374Z" fill="black"/>
<path d="M97.5128 294.817C103.031 294.695 108.549 294.94 114.026 295.512C114.353 295.553 114.353 295.022 114.026 294.981C108.549 294.408 103.031 294.204 97.5128 294.286C97.1858 294.286 97.1858 294.817 97.5128 294.817Z" fill="black"/>
<path d="M117.828 307.243C113.741 307.243 113.25 310.39 110.88 309.205C110.308 308.919 108.468 308.837 105.934 308.878L102.133 298.905H116.03L117.828 307.243Z" fill="#FFA79B"/>
<path d="M115.988 298.905L97.8402 298.945L86.273 257.541H36.2438C27.9873 257.541 21.0797 251.246 20.3031 243.03L19.5674 234.938H86.3139C95.5104 234.938 103.44 241.355 105.32 250.347L115.865 298.332L115.988 298.905Z" fill="#687CCD"/>
<path d="M131.398 316.725H108.876L105.893 308.919C108.427 308.878 110.266 308.96 110.838 309.246C113.209 310.431 113.74 307.284 117.787 307.284L131.929 314.314C133.196 314.886 132.746 316.725 131.398 316.725Z" fill="#4541FC"/>
<path d="M36.0394 236.041C37.8379 241.436 43.7237 242.826 48.7511 243.194C56.3127 243.766 63.8743 244.298 71.395 245.197C75.3189 245.687 79.2428 246.219 83.1666 246.832C84.9242 247.118 86.6409 247.404 88.3576 247.69C89.1342 247.813 89.9925 247.894 90.7282 248.14C92.1997 248.589 92.6902 249.815 93.0989 251.164C95.3061 258.399 97.4315 265.634 99.6387 272.868C102.132 281.125 104.584 289.381 107.078 297.637C107.159 297.964 107.691 297.842 107.609 297.515C103.236 282.923 98.8212 268.372 94.4477 253.78C93.7937 251.655 93.5485 248.589 91.137 247.772C89.6655 247.281 87.9897 247.159 86.4365 246.913C84.4746 246.586 82.5127 246.3 80.5098 245.973C73.2752 244.911 66.0406 244.093 58.7651 243.48C54.5552 243.112 50.2634 243.112 46.0943 242.499C42.0887 241.927 37.8788 240.169 36.4891 236C36.4482 235.551 35.9577 235.714 36.0394 236.041Z" fill="black"/>
<path d="M86.9678 252.472C86.9678 253.903 86.9678 255.374 86.9678 256.805C86.9678 257.132 87.4991 257.132 87.4991 256.805C87.4991 255.374 87.4991 253.903 87.4991 252.472C87.4991 252.145 86.9678 252.145 86.9678 252.472Z" fill="black"/>
<path d="M89.0525 256.887C89.2978 256.233 89.5839 255.579 89.8291 254.925C89.9517 254.598 89.4204 254.475 89.2978 254.802C89.0525 255.456 88.7664 256.11 88.5212 256.764C88.3985 257.05 88.9299 257.214 89.0525 256.887Z" fill="black"/>
<path d="M19.5674 235.019L20.1396 241.069L48.0971 235.019H19.5674Z" fill="black"/>
<path d="M26.5566 195.576L19.5264 235.019H68.9425L64.242 189.118C63.8741 185.603 61.7896 182.538 58.6832 180.903L54.3506 178.614C47.443 174.976 38.9413 176.366 33.5051 181.965C29.9082 185.685 27.4967 190.426 26.5566 195.576Z" fill="#FFC75D"/>
<path d="M50.1815 211.108C50.1815 211.108 51.8981 220.387 62.1574 222.226C64.2828 222.348 66.163 222.43 67.6753 222.471L64.2828 189.118C64.0785 187.197 63.3427 185.399 62.2392 183.887C57.4569 181.352 49.8953 179.799 44.7862 190.794C44.7862 190.794 43.7643 203.097 45.6854 212.13L50.1815 211.108Z" fill="black"/>
<path d="M45.5217 203.751C44.0912 214.174 42.3745 224.556 40.3308 234.897C40.249 235.224 40.7804 235.387 40.8621 235.019C42.9058 224.678 44.6225 214.296 46.0531 203.874C46.094 203.588 45.5626 203.424 45.5217 203.751Z" fill="black"/>
<path d="M44.7859 190.753L46.9113 209.228L69.5144 205.018L64.8957 188.015C64.1191 185.154 62.198 182.742 59.5821 181.352L59.0099 181.066C52.0614 177.388 43.8867 182.987 44.7859 190.753Z" fill="#FFC75D"/>
<path d="M112.555 213.275C112.555 213.275 110.47 210.454 109.407 208.901C107.323 205.795 105.892 206.817 103.644 208.043C101.355 209.269 95.7556 208.738 95.7556 208.738L69.4739 205.059L52.1436 207.961C53.0019 215.073 59.4599 220.141 66.6128 219.324L95.7556 214.542C95.7556 214.542 99.9656 215.073 102.05 214.91C104.135 214.746 104.666 213.316 106.097 212.089C107.486 210.863 107.323 208.942 107.486 210.495C107.65 212.089 109.08 213.316 109.939 213.479C110.838 213.643 112.228 214.174 112.555 213.275Z" fill="#FFA79B"/>
<path d="M55.7405 180.044C50.5904 178.859 44.3776 182.701 43.9689 188.219C43.928 188.546 44.5002 188.546 44.5002 188.219C44.8681 183.069 50.8356 179.472 55.577 180.576C55.9448 180.658 56.1083 180.126 55.7405 180.044Z" fill="black"/>
<path d="M48.5468 206.939C54.8005 205.345 61.1359 204.201 67.553 203.547C67.88 203.506 67.88 202.974 67.553 203.015C61.095 203.71 54.6778 204.855 48.3833 206.449C48.0563 206.49 48.2198 207.021 48.5468 206.939Z" fill="black"/>
<path d="M15.8887 316.725H49.1188C61.0948 316.725 69.76 305.24 66.4492 293.714L56.8439 260.238C56.3943 258.685 54.9638 257.581 53.3288 257.581H39.391C37.8786 257.581 36.5298 256.641 35.9984 255.252L27.0063 232.076C25.6574 228.602 28.2325 224.842 31.952 224.842H58.8876" stroke="black" stroke-width="7" stroke-miterlimit="10" stroke-linecap="round"/>
<path d="M72.621 257.581H36.8567C24.8399 257.581 14.7033 247.567 13.3136 234.243L8 183.478" stroke="#D44945" stroke-width="15" stroke-miterlimit="10" stroke-linecap="round"/>
<path d="M86.8037 316.725H115.783C129.353 316.725 139.163 300.172 135.402 283.577L120.524 221.327C120.034 219.079 118.399 217.525 116.56 217.525" stroke="black" stroke-width="7" stroke-miterlimit="10" stroke-linecap="round"/>
<path d="M83.4521 218.874H133.113" stroke="#D44945" stroke-width="15" stroke-miterlimit="10" stroke-linecap="round"/>
<path d="M276.54 145.139C276.54 145.139 276.417 142.237 275.477 140.398C273.72 136.883 271.635 136.556 271.635 136.556C270.245 136.556 265.136 135.166 265.136 135.166C265.136 135.166 264.973 137.251 266.894 138.477C268.815 139.703 270.205 138.641 270.205 138.641C270.205 138.641 269.142 140.398 269.51 142.687C269.878 144.976 271.267 144.772 271.267 144.772L271.431 150.371H274.415L309.607 168.764L312.223 154.581L276.54 145.139Z" fill="#E89087"/>
<path d="M320.928 143.055H326.691C337.318 143.055 345.697 152.129 344.839 162.715L343.408 215.033H300.164L313.693 148.941C314.388 145.507 317.413 143.055 320.928 143.055Z" fill="#D44945"/>
<path d="M315.206 145.753C314.471 146.652 313.939 147.714 313.694 148.9L307.154 180.863L322.441 159.568C327.591 153.805 322.727 144.853 315.206 145.753Z" fill="black"/>
<path d="M316.595 168.805C316.922 183.888 316.268 199.011 314.633 214.011C314.592 214.338 315.124 214.338 315.164 214.011C316.799 199.011 317.453 183.928 317.126 168.805C317.126 168.437 316.595 168.437 316.595 168.805Z" fill="black"/>
<path d="M315.411 121.474L313.244 131.937C312.754 134.39 314.634 136.72 317.127 136.72H319.089L318.558 144.077L329.594 145.139L326.978 119.389L315.411 121.474Z" fill="#FFA79B"/>
<path d="M312.264 113.626C317.537 108.885 322.237 115.22 322.237 115.22C322.237 115.22 328.859 114.321 331.679 117.836C338.505 126.256 326.937 136.229 326.937 136.229L322.196 132.55C322.196 132.55 327.469 130.956 325.875 126.256C324.281 121.515 320.602 127.319 320.602 127.319C320.602 127.319 318.518 120.493 315.329 121.555C312.141 122.618 306.828 118.49 312.264 113.626Z" fill="black"/>
<path d="M315.003 125.684C315.044 126.787 314.349 127.809 313.286 128.177C312.959 128.3 313.082 128.79 313.409 128.708C314.676 128.259 315.575 127.073 315.534 125.724C315.534 125.357 315.003 125.357 315.003 125.684Z" fill="black"/>
<path d="M314.389 132.264C315.493 132.387 316.555 132.182 317.577 131.733C317.455 131.692 317.332 131.61 317.169 131.569C317.455 132.428 317.128 133.368 316.351 133.858C316.065 134.022 316.31 134.512 316.637 134.308C317.618 133.695 318.068 132.509 317.7 131.406C317.659 131.242 317.455 131.161 317.291 131.242C316.351 131.651 315.37 131.774 314.389 131.692C314.021 131.692 314.021 132.223 314.389 132.264Z" fill="black"/>
<path d="M324.484 157.892L300.205 181.885L290.682 168.356L314.061 145.18C315.451 143.791 317.331 143.014 319.293 143.014C327.141 143.055 330.615 152.987 324.484 157.892Z" fill="#D44945"/>
<path d="M319.09 145.63C323.014 147.428 325.016 152.006 323.627 156.094C323.504 156.421 324.035 156.543 324.158 156.216C325.589 151.884 323.504 147.02 319.376 145.14C319.049 145.017 318.763 145.507 319.09 145.63Z" fill="black"/>
<path d="M294.28 166.721C295.874 170.808 298.286 174.487 301.392 177.552C301.637 177.797 302.005 177.429 301.76 177.184C298.694 174.16 296.324 170.604 294.77 166.557C294.689 166.23 294.157 166.394 294.28 166.721Z" fill="black"/>
<path d="M290.682 168.356L288.107 170.89L263.42 161.938C263.42 161.938 263.787 157.892 261.335 156.87C258.883 155.807 255.899 154.786 254.673 153.559C253.446 152.333 253.446 156.175 254.836 156.543C256.226 156.911 257.452 157.606 257.452 157.606C257.452 157.606 253.937 158.996 252.179 158.301C250.422 157.606 248.337 155.848 246.907 155.848C245.476 155.848 243.065 156.38 243.759 156.707C244.454 157.075 246.58 157.769 247.275 158.628C247.602 159.036 248.215 159.282 248.828 159.445C248.991 159.486 248.95 159.731 248.787 159.731C247.806 159.731 246.416 159.731 245.517 159.527C243.923 159.159 242.697 159.159 242.206 159.895C241.675 160.59 244.127 161.121 244.127 161.121C244.127 161.121 244.659 162.347 245.353 163.042C246.048 163.737 249.4 164.432 250.626 165.127C251.852 165.821 258.515 166.721 258.515 166.721L286.145 181.026C289.497 182.784 293.543 182.457 296.609 180.209L298.162 179.064L290.682 168.356Z" fill="#FFA79B"/>
<path d="M249.114 159.936C249.564 160.017 250.054 160.058 250.504 160.14C250.831 160.181 250.994 159.65 250.627 159.609C250.177 159.527 249.686 159.486 249.237 159.404C248.951 159.404 248.787 159.895 249.114 159.936Z" fill="black"/>
<path d="M244.864 161.652C246.335 162.347 247.889 162.756 249.523 162.797C249.85 162.797 249.85 162.265 249.523 162.265C247.97 162.225 246.499 161.857 245.109 161.203C244.823 161.039 244.578 161.489 244.864 161.652Z" fill="black"/>
<path d="M273.924 310.146C279.197 310.8 276.417 312.762 280.75 311.985C285.082 311.209 285.082 311.209 285.082 311.209L285.409 311.168L284.428 316.727H261.376C260.354 316.727 260.109 315.296 261.049 314.969L273.924 310.146Z" fill="black"/>
<path d="M358.001 316.727H335.806C334.826 316.727 334.539 315.337 335.439 314.969L346.434 310.432C351.175 309.655 351.42 313.334 353.259 311.74C353.995 311.086 354.813 310.35 355.467 309.737L358.001 316.727Z" fill="black"/>
<path d="M347.373 287.011H333.19L324.034 270.826C321.827 266.943 320.356 262.692 319.702 258.277L316.554 237.023L294.401 259.667L289.619 287.011H275.477L277.152 261.833C277.438 257.664 278.624 253.577 280.668 249.898L300.164 214.992H340.629C340.629 214.992 341.651 222.881 341.406 227.99C341.16 233.14 338.504 262.283 338.504 262.283L347.373 287.011Z" fill="#4541FC"/>
<path d="M287.698 298.047L285.409 311.168L285.082 311.209C285.082 311.209 285.082 311.209 280.75 311.985C276.417 312.762 279.156 310.8 273.924 310.146L274.741 298.047H287.698Z" fill="#FFC75D"/>
<path d="M355.466 309.696C354.771 310.35 353.994 311.045 353.259 311.699C351.419 313.293 351.174 309.615 346.433 310.391L339.443 298.047H351.338L355.466 309.696Z" fill="#FFC75D"/>
<path d="M289.62 287.011L287.699 298.047H274.701L275.478 287.011H289.62Z" fill="#FFA79B"/>
<path d="M351.339 298.047H339.445L333.191 287.011H347.375L351.339 298.047Z" fill="#FFA79B"/>
<path d="M312.549 216.178C304.865 227.214 297.18 238.249 289.496 249.285C287.902 251.574 286.104 253.863 285.041 256.479C284.06 258.931 283.937 261.588 283.815 264.204C283.488 270.948 283.161 277.652 282.793 284.396C282.793 284.723 283.324 284.723 283.324 284.396C283.651 278.019 283.978 271.643 284.264 265.267C284.428 261.956 284.469 258.645 285.981 255.621C287.248 253.046 289.128 250.716 290.763 248.386C298.161 237.759 305.56 227.091 312.999 216.464C313.244 216.178 312.753 215.892 312.549 216.178Z" fill="black"/>
<path d="M308.79 215.892C307.809 217.772 307.318 219.775 307.277 221.859C307.277 222.186 307.809 222.186 307.809 221.859C307.85 219.856 308.299 217.935 309.239 216.178C309.403 215.851 308.953 215.605 308.79 215.892Z" fill="black"/>
<path d="M317.086 236.124C318.885 234.039 320.601 231.71 322.563 229.789C324.035 228.358 325.016 228.808 326.691 229.053C327.345 229.175 327.958 229.175 328.612 228.93C328.939 228.808 328.776 228.276 328.49 228.399C326.61 229.053 324.729 227.336 322.972 228.644C321.787 229.502 320.887 230.974 319.947 232.037C318.885 233.263 317.822 234.489 316.759 235.715C316.514 236.001 316.882 236.369 317.086 236.124Z" fill="black"/>
<path d="M322.154 230.279C320.274 249.857 325.955 269.845 337.89 285.499C338.095 285.785 338.544 285.499 338.34 285.213C326.446 269.64 320.805 249.776 322.685 230.279C322.726 229.952 322.195 229.952 322.154 230.279Z" fill="black"/>
<path d="M277.602 281.534C281.976 281.534 286.349 281.534 290.722 281.534C291.049 281.534 291.049 281.003 290.722 281.003C286.349 281.003 281.976 281.003 277.602 281.003C277.234 280.962 277.234 281.534 277.602 281.534Z" fill="black"/>
<path d="M331.189 281.575C335.562 281.33 339.936 281.126 344.309 280.88C344.636 280.88 344.636 280.308 344.309 280.349C339.936 280.594 335.562 280.799 331.189 281.044C330.862 281.044 330.862 281.575 331.189 281.575Z" fill="black"/>
<path d="M319.62 220.551C322.768 220.347 325.915 220.101 329.062 219.897C329.389 219.856 329.389 219.325 329.062 219.366C325.915 219.57 322.768 219.815 319.62 220.02C319.293 220.02 319.293 220.551 319.62 220.551Z" fill="black"/>
<path d="M336.95 220.551C338.013 220.551 339.035 220.551 340.098 220.551C340.425 220.551 340.425 220.02 340.098 220.02C339.035 220.02 338.013 220.02 336.95 220.02C336.623 220.02 336.623 220.551 336.95 220.551Z" fill="black"/>
<path d="M313.857 215.033L341.079 218.916C340.875 216.668 340.67 215.033 340.67 215.033H313.857Z" fill="black"/>
<path d="M223.241 161.244H265.34C271.758 161.244 276.989 156.012 276.989 149.595C276.989 143.177 271.758 137.946 265.34 137.946H223.241C216.824 137.946 211.592 143.177 211.592 149.595C211.592 156.053 216.824 161.244 223.241 161.244Z" fill="#4541FC"/>
<path d="M214.168 150.208C213.841 150.208 213.555 149.922 213.555 149.595C213.555 149.472 213.555 149.349 213.555 149.227C213.555 148.9 213.841 148.614 214.209 148.655C214.536 148.655 214.822 148.941 214.781 149.309C214.781 149.431 214.781 149.513 214.781 149.636C214.781 149.963 214.495 150.208 214.168 150.208Z" fill="white"/>
<path d="M214.453 147.837C214.413 147.837 214.331 147.837 214.29 147.837C213.963 147.755 213.759 147.428 213.84 147.101C214.985 142.687 218.949 139.621 223.527 139.621C223.854 139.621 224.14 139.908 224.14 140.235C224.14 140.562 223.854 140.848 223.527 140.848C219.522 140.848 216.047 143.545 215.026 147.387C214.985 147.674 214.74 147.837 214.453 147.837Z" fill="white"/>
<path d="M223.977 155.113H264.605C267.671 155.113 270.123 152.66 270.123 149.595C270.123 146.529 267.671 144.077 264.605 144.077H223.977C220.911 144.077 218.459 146.529 218.459 149.595C218.459 152.66 220.952 155.113 223.977 155.113Z" fill="#69B4E8"/>
<path d="M324.074 18.8814C328.386 18.8814 331.881 15.3861 331.881 11.0745C331.881 6.76294 328.386 3.2677 324.074 3.2677C319.763 3.2677 316.268 6.76294 316.268 11.0745C316.268 15.3861 319.763 18.8814 324.074 18.8814Z" stroke="#DCE4F7" stroke-width="4" stroke-miterlimit="10" stroke-linecap="round" stroke-linejoin="round"/>
<path d="M144.682 40.9939C148.993 40.9939 152.489 37.4987 152.489 33.1871C152.489 28.8755 148.993 25.3802 144.682 25.3802C140.37 25.3802 136.875 28.8755 136.875 33.1871C136.875 37.4987 140.37 40.9939 144.682 40.9939Z" stroke="#DCE4F7" stroke-width="4" stroke-miterlimit="10" stroke-linecap="round" stroke-linejoin="round"/>
<path d="M336.992 39.2364C340.175 39.2364 342.755 36.6562 342.755 33.4733C342.755 30.2903 340.175 27.7101 336.992 27.7101C333.809 27.7101 331.229 30.2903 331.229 33.4733C331.229 36.6562 333.809 39.2364 336.992 39.2364Z" stroke="#DCE4F7" stroke-width="4" stroke-miterlimit="10" stroke-linecap="round" stroke-linejoin="round"/>
<path d="M98.3315 27.1378C101.514 27.1378 104.095 24.5575 104.095 21.3746C104.095 18.1917 101.514 15.6115 98.3315 15.6115C95.1486 15.6115 92.5684 18.1917 92.5684 21.3746C92.5684 24.5575 95.1486 27.1378 98.3315 27.1378Z" stroke="#DCE4F7" stroke-width="4" stroke-miterlimit="10" stroke-linecap="round" stroke-linejoin="round"/>
<path d="M18.4634 97.5629C21.6463 97.5629 24.2265 94.9827 24.2265 91.7998C24.2265 88.6169 21.6463 86.0366 18.4634 86.0366C15.2804 86.0366 12.7002 88.6169 12.7002 91.7998C12.7002 94.9827 15.2804 97.5629 18.4634 97.5629Z" stroke="#DCE4F7" stroke-width="4" stroke-miterlimit="10" stroke-linecap="round" stroke-linejoin="round"/>
<path d="M127.269 197.703C107.527 197.703 91.5451 181.681 91.586 161.98" stroke="#687CCD" stroke-width="3" stroke-miterlimit="10"/>
<path d="M27.4153 37.8058C29.7042 38.8276 31.9931 39.8903 34.282 40.9122C35.4674 41.4435 36.5301 39.686 35.3039 39.1546C33.0149 38.1328 30.726 37.0701 28.4371 36.0482C27.2926 35.476 26.2299 37.2744 27.4153 37.8058Z" fill="#DCE4F7"/>
<path d="M33.6276 27.5466C35.2216 29.0998 36.7748 30.6939 38.3689 32.2471C39.309 33.1872 40.7396 31.7157 39.7995 30.8165C38.2054 29.2633 36.6522 27.6692 35.0581 26.116C34.118 25.1759 32.6875 26.6474 33.6276 27.5466Z" fill="#DCE4F7"/>
<path d="M42.7839 20.5981C43.4788 21.9878 44.2145 23.3775 44.9094 24.7672C45.5225 25.9525 47.28 24.8898 46.6669 23.7454C45.9721 22.3557 45.2364 20.966 44.5415 19.5763C43.9693 18.3909 42.2117 19.4537 42.7839 20.5981Z" fill="#DCE4F7"/>
<path d="M339.28 82.3989C341.732 81.5405 344.185 80.6822 346.637 79.8238C347.863 79.3742 347.332 77.4123 346.106 77.8619C343.653 78.7202 341.201 79.5786 338.749 80.4369C337.522 80.8865 338.054 82.8485 339.28 82.3989Z" fill="#DCE4F7"/>
<path d="M340.139 90.9823C342.755 90.7779 345.371 90.5326 348.028 90.3283C349.335 90.2057 349.335 88.162 348.028 88.2846C345.412 88.489 342.796 88.7342 340.139 88.9386C338.831 89.0612 338.79 91.1049 340.139 90.9823Z" fill="#DCE4F7"/>
<path d="M339.689 102.795C342.345 104.266 345.043 105.779 347.7 107.25C348.844 107.904 349.866 106.146 348.722 105.492C346.065 104.021 343.367 102.509 340.711 101.037C339.566 100.424 338.503 102.182 339.689 102.795Z" fill="#DCE4F7"/>
<path d="M9.59425 145.058C12.2102 145.303 14.8261 145.508 17.4828 145.753C18.7908 145.875 18.7908 143.832 17.4828 143.709C14.8669 143.464 12.251 143.26 9.59425 143.014C8.28629 142.892 8.28629 144.935 9.59425 145.058Z" fill="#DCE4F7"/>
<path d="M10.3299 155.971C12.4553 155.358 14.5807 154.704 16.7061 154.091C17.9732 153.723 17.4419 151.761 16.1748 152.129C14.0494 152.742 11.9239 153.396 9.7985 154.009C8.53142 154.377 9.06278 156.339 10.3299 155.971Z" fill="#DCE4F7"/>
<path d="M14.4994 166.394C16.2161 165.004 18.0554 163.778 19.9764 162.715C21.1209 162.102 20.099 160.345 18.9546 160.958C16.87 162.102 14.9081 163.451 13.0688 164.963C12.047 165.781 13.5184 167.211 14.4994 166.394Z" fill="#DCE4F7"/>
<path d="M339.608 143.464C342.142 143.546 344.145 145.548 344.513 148.001C344.676 149.309 346.679 148.737 346.475 147.469C345.984 144.077 343 141.543 339.608 141.42C338.3 141.379 338.3 143.423 339.608 143.464Z" fill="#DCE4F7"/>
<path d="M346.637 142.319C348.272 143.914 349.253 145.835 349.662 148.042C349.907 149.35 351.869 148.778 351.624 147.51C351.174 144.976 349.907 142.687 348.068 140.889C347.128 139.949 345.697 141.379 346.637 142.319Z" fill="#DCE4F7"/>
<path d="M129.026 167.497C128.209 171.176 129.557 174.773 132.541 177.062C133.604 177.879 134.626 176.081 133.563 175.304C131.356 173.628 130.375 170.767 130.988 168.07C131.274 166.762 129.312 166.19 129.026 167.497Z" fill="#DCE4F7"/>
<path d="M123.101 171.421C122.856 174.283 124.817 176.939 127.556 177.675C128.823 178.002 129.354 176.04 128.087 175.713C126.166 175.182 124.981 173.383 125.144 171.421C125.267 170.113 123.223 170.113 123.101 171.421Z" fill="#DCE4F7"/>
<path d="M103.685 237.432C106.138 239.231 107.609 241.969 107.772 244.994C107.854 246.302 109.898 246.302 109.816 244.994C109.571 241.193 107.772 237.882 104.707 235.675C103.644 234.857 102.622 236.656 103.685 237.432Z" fill="#DCE4F7"/>
<path d="M109.571 237.636C111.165 239.966 112.187 242.5 112.677 245.239C112.923 246.547 114.884 245.975 114.639 244.708C114.108 241.806 113.004 239.067 111.328 236.615C110.593 235.511 108.835 236.533 109.571 237.636Z" fill="#DCE4F7"/>
<path d="M112.555 108.354C112.555 76.7174 138.223 51.0897 169.859 51.0897" stroke="#687CCD" stroke-width="3" stroke-miterlimit="10"/>
</svg>
