<svg width="80" height="80" viewBox="0 0 80 80" fill="none" xmlns="http://www.w3.org/2000/svg">
<g id="keyboard, device, idea, lamp, bulb">
<path id="Vector" d="M48.0947 18.0921C50.0267 18.0921 51.9619 17.3537 53.4363 15.8801C54.8035 14.5097 56.6899 13.6665 58.7803 13.6665C62.9531 13.6665 66.3339 17.0481 66.3339 21.2209V21.2241C66.3339 25.3937 62.9523 28.7793 58.7803 28.7793C56.6907 28.7793 54.8035 27.9329 53.4363 26.5657C51.9619 25.0905 50.0267 24.3521 48.0947 24.3521V18.0921Z" fill="#FADF7E" stroke="#335C5F" stroke-width="1.5" stroke-miterlimit="10" stroke-linecap="round" stroke-linejoin="round"/>
<path id="Vector_2" d="M58.7799 13.6665C58.0855 13.6665 57.4167 13.7673 56.7783 13.9425C59.9799 14.8193 62.3343 17.7409 62.3343 21.2209V21.2241C62.3343 24.7017 59.9799 27.6241 56.7783 28.5025C57.4167 28.6777 58.0855 28.7793 58.7799 28.7793C62.9527 28.7793 66.3335 25.3937 66.3335 21.2241V21.2209C66.3335 17.0481 62.9519 13.6665 58.7799 13.6665Z" fill="#D8C26F"/>
<path id="Vector_3" d="M71.9997 41.8816H8.00293V72H71.9997V41.8816Z" fill="#E9EAEF" stroke="#335C5F" stroke-width="1.5" stroke-miterlimit="10" stroke-linecap="round" stroke-linejoin="round"/>
<path id="Vector_4" d="M72 41.8816H69V72H72V41.8816Z" fill="#CACCD1"/>
<path id="Vector_5" d="M53.1772 49.4136H43.7676V53.176H53.1772V49.4136Z" fill="#FADF7E" stroke="#335C5F" stroke-width="1.5" stroke-miterlimit="10" stroke-linecap="round" stroke-linejoin="round"/>
<path id="Vector_6" d="M19.294 55.0583H9.88281V58.824H19.294V55.0583Z" fill="#FADF7E" stroke="#335C5F" stroke-width="1.5" stroke-miterlimit="10" stroke-linecap="round" stroke-linejoin="round"/>
<path id="Vector_7" d="M19.294 60.7056H9.88281V64.4696H19.294V60.7056Z" fill="#FADF7E" stroke="#335C5F" stroke-width="1.5" stroke-miterlimit="10" stroke-linecap="round" stroke-linejoin="round"/>
<path id="Vector_8" d="M49.4124 55.0583V60.7056H43.7676V64.4695H53.1772V55.0583H49.4124Z" fill="#FADF7E" stroke="#335C5F" stroke-width="1.5" stroke-miterlimit="10" stroke-linecap="round" stroke-linejoin="round"/>
<path id="Vector_9" d="M47.5294 66.3521H21.1758V70.1185H47.5294V66.3521Z" fill="#FADF7E" stroke="#335C5F" stroke-width="1.5" stroke-miterlimit="10" stroke-linecap="round" stroke-linejoin="round"/>
<path id="Vector_10" d="M48.0947 18.092H42.0483L40.4307 19.1704V23.2712L42.0483 24.352H48.0947V18.092Z" fill="#E9EAEF" stroke="#335C5F" stroke-width="1.5" stroke-miterlimit="10" stroke-linecap="round" stroke-linejoin="round"/>
<path id="Vector_11" d="M43.5607 18.092L42.0479 24.352" stroke="#335C5F" stroke-width="1.5" stroke-miterlimit="10" stroke-linecap="round" stroke-linejoin="round"/>
<path id="Vector_12" d="M46.3945 18.092L44.8809 24.352" stroke="#335C5F" stroke-width="1.5" stroke-miterlimit="10" stroke-linecap="round" stroke-linejoin="round"/>
<path id="Vector_13" d="M52.4115 22.3007C53.0067 22.3007 53.4923 21.8183 53.4923 21.2199C53.4923 20.6247 53.0075 20.1423 52.4115 20.1423H48.0947V22.2999L52.4115 22.3007Z" fill="#E9EAEF" stroke="#335C5F" stroke-width="1.5" stroke-miterlimit="10" stroke-linecap="round" stroke-linejoin="round"/>
<path id="Vector_14" d="M53.0508 20.3584L58.7804 17.9824M58.7804 17.9824C58.7804 19.176 59.7444 20.1416 60.938 20.144M58.7804 17.9824C58.7804 19.1768 59.7444 20.1416 60.938 20.144M60.938 20.144C60.3428 20.7392 60.3428 21.704 60.938 22.3016C59.7444 22.3016 58.7804 23.2664 58.7804 24.46L53.0508 22.0864" stroke="#335C5F" stroke-width="1.5" stroke-miterlimit="10" stroke-linecap="round" stroke-linejoin="round"/>
<path id="Vector_15" d="M71.9998 21.2207H69.167" stroke="#335C5F" stroke-width="1.5" stroke-miterlimit="10" stroke-linecap="round" stroke-linejoin="round"/>
<path id="Vector_16" d="M58.7803 8V10.8328" stroke="#335C5F" stroke-width="1.5" stroke-miterlimit="10" stroke-linecap="round" stroke-linejoin="round"/>
<path id="Vector_17" d="M58.7764 34.4457V31.6121" stroke="#335C5F" stroke-width="1.5" stroke-miterlimit="10" stroke-linecap="round" stroke-linejoin="round"/>
<path id="Vector_18" d="M68.1248 30.5704L66.124 28.5664" stroke="#335C5F" stroke-width="1.5" stroke-miterlimit="10" stroke-linecap="round" stroke-linejoin="round"/>
<path id="Vector_19" d="M68.128 11.8721L66.124 13.8761" stroke="#335C5F" stroke-width="1.5" stroke-miterlimit="10" stroke-linecap="round" stroke-linejoin="round"/>
<path id="Vector_20" d="M49.4316 11.8721L51.4356 13.8761" stroke="#335C5F" stroke-width="1.5" stroke-miterlimit="10" stroke-linecap="round" stroke-linejoin="round"/>
<path id="Vector_21" d="M49.4316 30.5704L51.4356 28.5664" stroke="#335C5F" stroke-width="1.5" stroke-miterlimit="10" stroke-linecap="round" stroke-linejoin="round"/>
<path id="Vector_22" d="M70.9914 16.1631L65.7578 18.3295" stroke="#335C5F" stroke-width="1.5" stroke-miterlimit="10" stroke-linecap="round" stroke-linejoin="round"/>
<path id="Vector_23" d="M63.8363 33.4392L61.6699 28.2024" stroke="#335C5F" stroke-width="1.5" stroke-miterlimit="10" stroke-linecap="round" stroke-linejoin="round"/>
<path id="Vector_24" d="M53.7197 9.00562L55.8885 14.2424" stroke="#335C5F" stroke-width="1.5" stroke-miterlimit="10" stroke-linecap="round" stroke-linejoin="round"/>
<path id="Vector_25" d="M53.7197 33.4392L55.8885 28.2024" stroke="#335C5F" stroke-width="1.5" stroke-miterlimit="10" stroke-linecap="round" stroke-linejoin="round"/>
<path id="Vector_26" d="M63.8363 9.00562L61.6699 14.2424" stroke="#335C5F" stroke-width="1.5" stroke-miterlimit="10" stroke-linecap="round" stroke-linejoin="round"/>
<path id="Vector_27" d="M70.991 26.2816L65.7598 24.1152" stroke="#335C5F" stroke-width="1.5" stroke-miterlimit="10" stroke-linecap="round" stroke-linejoin="round"/>
<path id="Vector_28" d="M40.4304 21.2241H14C10.6872 21.2241 8 23.9081 8 27.2241C8 30.5369 10.6872 33.2241 14 33.2241L34.0032 33.2225C37.316 33.2225 40 35.9081 40 39.2225V41.8793" stroke="#335C5F" stroke-width="1.5" stroke-miterlimit="10" stroke-linecap="round" stroke-linejoin="round"/>
<path id="Vector_29" d="M13.6476 43.7656H9.88281V47.5288H13.6476V43.7656Z" fill="#D7DAE7" stroke="#335C5F" stroke-width="1.5" stroke-miterlimit="10" stroke-linecap="round" stroke-linejoin="round"/>
<path id="Vector_30" d="M19.2941 43.7656H15.5293V47.5288H19.2941V43.7656Z" fill="#D7DAE7" stroke="#335C5F" stroke-width="1.5" stroke-miterlimit="10" stroke-linecap="round" stroke-linejoin="round"/>
<path id="Vector_31" d="M24.9406 43.7656H21.1758V47.5288H24.9406V43.7656Z" fill="#D7DAE7" stroke="#335C5F" stroke-width="1.5" stroke-miterlimit="10" stroke-linecap="round" stroke-linejoin="round"/>
<path id="Vector_32" d="M30.589 43.7656H26.8242V47.5288H30.589V43.7656Z" fill="#D7DAE7" stroke="#335C5F" stroke-width="1.5" stroke-miterlimit="10" stroke-linecap="round" stroke-linejoin="round"/>
<path id="Vector_33" d="M36.2355 43.7656H32.4707V47.5288H36.2355V43.7656Z" fill="#D7DAE7" stroke="#335C5F" stroke-width="1.5" stroke-miterlimit="10" stroke-linecap="round" stroke-linejoin="round"/>
<path id="Vector_34" d="M41.882 43.7656H38.1172V47.5288H41.882V43.7656Z" fill="#D7DAE7" stroke="#335C5F" stroke-width="1.5" stroke-miterlimit="10" stroke-linecap="round" stroke-linejoin="round"/>
<path id="Vector_35" d="M47.5294 43.7656H43.7646V47.5288H47.5294V43.7656Z" fill="#D7DAE7" stroke="#335C5F" stroke-width="1.5" stroke-miterlimit="10" stroke-linecap="round" stroke-linejoin="round"/>
<path id="Vector_36" d="M53.1779 43.7656H49.4131V47.5288H53.1779V43.7656Z" fill="#D7DAE7" stroke="#335C5F" stroke-width="1.5" stroke-miterlimit="10" stroke-linecap="round" stroke-linejoin="round"/>
<path id="Vector_37" d="M58.8236 43.7656H55.0596V47.5288H58.8236V43.7656Z" fill="#D7DAE7" stroke="#335C5F" stroke-width="1.5" stroke-miterlimit="10" stroke-linecap="round" stroke-linejoin="round"/>
<path id="Vector_38" d="M64.4708 43.7656H60.7061V47.5288H64.4708V43.7656Z" fill="#D7DAE7" stroke="#335C5F" stroke-width="1.5" stroke-miterlimit="10" stroke-linecap="round" stroke-linejoin="round"/>
<path id="Vector_39" d="M70.1173 43.7656H66.3525V47.5288H70.1173V43.7656Z" fill="#D7DAE7" stroke="#335C5F" stroke-width="1.5" stroke-miterlimit="10" stroke-linecap="round" stroke-linejoin="round"/>
<path id="Vector_40" d="M13.6476 49.4136H9.88281V53.176H13.6476V49.4136Z" fill="#D7DAE7" stroke="#335C5F" stroke-width="1.5" stroke-miterlimit="10" stroke-linecap="round" stroke-linejoin="round"/>
<path id="Vector_41" d="M19.2941 49.4136H15.5293V53.176H19.2941V49.4136Z" fill="#D7DAE7" stroke="#335C5F" stroke-width="1.5" stroke-miterlimit="10" stroke-linecap="round" stroke-linejoin="round"/>
<path id="Vector_42" d="M24.9406 49.4136H21.1758V53.176H24.9406V49.4136Z" fill="#D7DAE7" stroke="#335C5F" stroke-width="1.5" stroke-miterlimit="10" stroke-linecap="round" stroke-linejoin="round"/>
<path id="Vector_43" d="M30.589 49.4136H26.8242V53.176H30.589V49.4136Z" fill="#D7DAE7" stroke="#335C5F" stroke-width="1.5" stroke-miterlimit="10" stroke-linecap="round" stroke-linejoin="round"/>
<path id="Vector_44" d="M36.2355 49.4136H32.4707V53.176H36.2355V49.4136Z" fill="#D7DAE7" stroke="#335C5F" stroke-width="1.5" stroke-miterlimit="10" stroke-linecap="round" stroke-linejoin="round"/>
<path id="Vector_45" d="M41.882 49.4136H38.1172V53.176H41.882V49.4136Z" fill="#D7DAE7" stroke="#335C5F" stroke-width="1.5" stroke-miterlimit="10" stroke-linecap="round" stroke-linejoin="round"/>
<path id="Vector_46" d="M58.8236 49.4136H55.0596V53.176H58.8236V49.4136Z" fill="#D7DAE7" stroke="#335C5F" stroke-width="1.5" stroke-miterlimit="10" stroke-linecap="round" stroke-linejoin="round"/>
<path id="Vector_47" d="M64.4708 49.4136H60.7061V53.176H64.4708V49.4136Z" fill="#D7DAE7" stroke="#335C5F" stroke-width="1.5" stroke-miterlimit="10" stroke-linecap="round" stroke-linejoin="round"/>
<path id="Vector_48" d="M70.1173 49.4136H66.3525V53.176H70.1173V49.4136Z" fill="#D7DAE7" stroke="#335C5F" stroke-width="1.5" stroke-miterlimit="10" stroke-linecap="round" stroke-linejoin="round"/>
<path id="Vector_49" d="M24.9406 55.0583H21.1758V58.824H24.9406V55.0583Z" fill="#D7DAE7" stroke="#335C5F" stroke-width="1.5" stroke-miterlimit="10" stroke-linecap="round" stroke-linejoin="round"/>
<path id="Vector_50" d="M30.589 55.0583H26.8242V58.824H30.589V55.0583Z" fill="#D7DAE7" stroke="#335C5F" stroke-width="1.5" stroke-miterlimit="10" stroke-linecap="round" stroke-linejoin="round"/>
<path id="Vector_51" d="M36.2355 55.0583H32.4707V58.824H36.2355V55.0583Z" fill="#D7DAE7" stroke="#335C5F" stroke-width="1.5" stroke-miterlimit="10" stroke-linecap="round" stroke-linejoin="round"/>
<path id="Vector_52" d="M41.882 55.0583H38.1172V58.824H41.882V55.0583Z" fill="#D7DAE7" stroke="#335C5F" stroke-width="1.5" stroke-miterlimit="10" stroke-linecap="round" stroke-linejoin="round"/>
<path id="Vector_53" d="M47.5294 55.0583H43.7646V58.824H47.5294V55.0583Z" fill="#D7DAE7" stroke="#335C5F" stroke-width="1.5" stroke-miterlimit="10" stroke-linecap="round" stroke-linejoin="round"/>
<path id="Vector_54" d="M58.8236 55.0583H55.0596V58.824H58.8236V55.0583Z" fill="#D7DAE7" stroke="#335C5F" stroke-width="1.5" stroke-miterlimit="10" stroke-linecap="round" stroke-linejoin="round"/>
<path id="Vector_55" d="M64.4708 55.0583H60.7061V58.824H64.4708V55.0583Z" fill="#D7DAE7" stroke="#335C5F" stroke-width="1.5" stroke-miterlimit="10" stroke-linecap="round" stroke-linejoin="round"/>
<path id="Vector_56" d="M70.1173 55.0583H66.3525V58.824H70.1173V55.0583Z" fill="#D7DAE7" stroke="#335C5F" stroke-width="1.5" stroke-miterlimit="10" stroke-linecap="round" stroke-linejoin="round"/>
<path id="Vector_57" d="M24.9406 60.7056H21.1758V64.4696H24.9406V60.7056Z" fill="#D7DAE7" stroke="#335C5F" stroke-width="1.5" stroke-miterlimit="10" stroke-linecap="round" stroke-linejoin="round"/>
<path id="Vector_58" d="M30.589 60.7056H26.8242V64.4696H30.589V60.7056Z" fill="#D7DAE7" stroke="#335C5F" stroke-width="1.5" stroke-miterlimit="10" stroke-linecap="round" stroke-linejoin="round"/>
<path id="Vector_59" d="M36.2355 60.7056H32.4707V64.4696H36.2355V60.7056Z" fill="#D7DAE7" stroke="#335C5F" stroke-width="1.5" stroke-miterlimit="10" stroke-linecap="round" stroke-linejoin="round"/>
<path id="Vector_60" d="M41.882 60.7056H38.1172V64.4696H41.882V60.7056Z" fill="#D7DAE7" stroke="#335C5F" stroke-width="1.5" stroke-miterlimit="10" stroke-linecap="round" stroke-linejoin="round"/>
<path id="Vector_61" d="M58.8236 60.7056H55.0596V64.4696H58.8236V60.7056Z" fill="#D7DAE7" stroke="#335C5F" stroke-width="1.5" stroke-miterlimit="10" stroke-linecap="round" stroke-linejoin="round"/>
<path id="Vector_62" d="M64.4708 60.7056H60.7061V64.4696H64.4708V60.7056Z" fill="#D7DAE7" stroke="#335C5F" stroke-width="1.5" stroke-miterlimit="10" stroke-linecap="round" stroke-linejoin="round"/>
<path id="Vector_63" d="M70.1173 60.7056H66.3525V64.4696H70.1173V60.7056Z" fill="#D7DAE7" stroke="#335C5F" stroke-width="1.5" stroke-miterlimit="10" stroke-linecap="round" stroke-linejoin="round"/>
<path id="Vector_64" d="M13.6476 66.3521H9.88281V70.1185H13.6476V66.3521Z" fill="#D7DAE7" stroke="#335C5F" stroke-width="1.5" stroke-miterlimit="10" stroke-linecap="round" stroke-linejoin="round"/>
<path id="Vector_65" d="M19.2941 66.3521H15.5293V70.1185H19.2941V66.3521Z" fill="#D7DAE7" stroke="#335C5F" stroke-width="1.5" stroke-miterlimit="10" stroke-linecap="round" stroke-linejoin="round"/>
<path id="Vector_66" d="M53.1779 66.3521H49.4131V70.1185H53.1779V66.3521Z" fill="#D7DAE7" stroke="#335C5F" stroke-width="1.5" stroke-miterlimit="10" stroke-linecap="round" stroke-linejoin="round"/>
<path id="Vector_67" d="M58.8236 66.3521H55.0596V70.1185H58.8236V66.3521Z" fill="#D7DAE7" stroke="#335C5F" stroke-width="1.5" stroke-miterlimit="10" stroke-linecap="round" stroke-linejoin="round"/>
<path id="Vector_68" d="M64.4708 66.3521H60.7061V70.1185H64.4708V66.3521Z" fill="#D7DAE7" stroke="#335C5F" stroke-width="1.5" stroke-miterlimit="10" stroke-linecap="round" stroke-linejoin="round"/>
<path id="Vector_69" d="M70.1173 66.3521H66.3525V70.1185H70.1173V66.3521Z" fill="#D7DAE7" stroke="#335C5F" stroke-width="1.5" stroke-miterlimit="10" stroke-linecap="round" stroke-linejoin="round"/>
<path id="Vector_70" d="M48.0947 18.0921C50.0267 18.0921 51.9619 17.3537 53.4363 15.8801C54.8035 14.5097 56.6899 13.6665 58.7803 13.6665C62.9531 13.6665 66.3339 17.0481 66.3339 21.2209V21.2241C66.3339 25.3937 62.9523 28.7793 58.7803 28.7793C56.6907 28.7793 54.8035 27.9329 53.4363 26.5657C51.9619 25.0905 50.0267 24.3521 48.0947 24.3521V18.0921Z" stroke="#335C5F" stroke-width="1.5" stroke-miterlimit="10" stroke-linecap="round" stroke-linejoin="round"/>
<path id="Vector_71" d="M13.6483 43.7656H12.1475V47.5288H13.6483V43.7656Z" fill="#BBBECA"/>
<path id="Vector_72" d="M19.2947 43.7656H17.7939V47.5288H19.2947V43.7656Z" fill="#BBBECA"/>
<path id="Vector_73" d="M24.9404 43.7656H23.4404V47.5288H24.9404V43.7656Z" fill="#BBBECA"/>
<path id="Vector_74" d="M30.5887 43.7656H29.0879V47.5288H30.5887V43.7656Z" fill="#BBBECA"/>
<path id="Vector_75" d="M36.2352 43.7656H34.7344V47.5288H36.2352V43.7656Z" fill="#BBBECA"/>
<path id="Vector_76" d="M41.8836 43.7656H40.3828V47.5288H41.8836V43.7656Z" fill="#BBBECA"/>
<path id="Vector_77" d="M13.6483 49.4136H12.1475V53.176H13.6483V49.4136Z" fill="#BBBECA"/>
<path id="Vector_78" d="M19.2947 49.4136H17.7939V53.176H19.2947V49.4136Z" fill="#BBBECA"/>
<path id="Vector_79" d="M13.6483 66.3535H12.1475V70.1183H13.6483V66.3535Z" fill="#BBBECA"/>
<path id="Vector_80" d="M19.2947 66.3535H17.7939V70.1183H19.2947V66.3535Z" fill="#BBBECA"/>
<path id="Vector_81" d="M24.9404 49.4136H23.4404V53.176H24.9404V49.4136Z" fill="#BBBECA"/>
<path id="Vector_82" d="M30.5887 49.4136H29.0879V53.176H30.5887V49.4136Z" fill="#BBBECA"/>
<path id="Vector_83" d="M36.2352 49.4136H34.7344V53.176H36.2352V49.4136Z" fill="#BBBECA"/>
<path id="Vector_84" d="M41.8836 49.4136H40.3828V53.176H41.8836V49.4136Z" fill="#BBBECA"/>
<path id="Vector_85" d="M24.9404 55.0601H23.4404V58.8241H24.9404V55.0601Z" fill="#BBBECA"/>
<path id="Vector_86" d="M30.5887 55.0601H29.0879V58.8241H30.5887V55.0601Z" fill="#BBBECA"/>
<path id="Vector_87" d="M36.2352 55.0601H34.7344V58.8241H36.2352V55.0601Z" fill="#BBBECA"/>
<path id="Vector_88" d="M41.8836 55.0601H40.3828V58.8241H41.8836V55.0601Z" fill="#BBBECA"/>
<path id="Vector_89" d="M24.9404 60.7056H23.4404V64.4696H24.9404V60.7056Z" fill="#BBBECA"/>
<path id="Vector_90" d="M30.5887 60.7056H29.0879V64.4696H30.5887V60.7056Z" fill="#BBBECA"/>
<path id="Vector_91" d="M36.2352 60.7056H34.7344V64.4696H36.2352V60.7056Z" fill="#BBBECA"/>
<path id="Vector_92" d="M41.8836 60.7056H40.3828V64.4696H41.8836V60.7056Z" fill="#BBBECA"/>
<path id="Vector_93" d="M47.5291 43.7656H46.0283V47.5288H47.5291V43.7656Z" fill="#BBBECA"/>
<path id="Vector_94" d="M47.5291 55.0601H46.0283V58.8241H47.5291V55.0601Z" fill="#BBBECA"/>
<path id="Vector_95" d="M53.1776 43.7656H51.6768V47.5288H53.1776V43.7656Z" fill="#BBBECA"/>
<path id="Vector_96" d="M58.8231 43.7656H57.3223V47.5288H58.8231V43.7656Z" fill="#BBBECA"/>
<path id="Vector_97" d="M64.4707 43.7656H62.9707V47.5288H64.4707V43.7656Z" fill="#BBBECA"/>
<path id="Vector_98" d="M70.118 43.7656H68.6172V47.5288H70.118V43.7656Z" fill="#BBBECA"/>
<path id="Vector_99" d="M53.1776 66.3535H51.6768V70.1183H53.1776V66.3535Z" fill="#BBBECA"/>
<path id="Vector_100" d="M58.8231 66.3535H57.3223V70.1183H58.8231V66.3535Z" fill="#BBBECA"/>
<path id="Vector_101" d="M64.4707 66.3535H62.9707V70.1183H64.4707V66.3535Z" fill="#BBBECA"/>
<path id="Vector_102" d="M70.118 66.3535H68.6172V70.1183H70.118V66.3535Z" fill="#BBBECA"/>
<path id="Vector_103" d="M58.8231 49.4136H57.3223V53.176H58.8231V49.4136Z" fill="#BBBECA"/>
<path id="Vector_104" d="M64.4707 49.4136H62.9707V53.176H64.4707V49.4136Z" fill="#BBBECA"/>
<path id="Vector_105" d="M70.118 49.4136H68.6172V53.176H70.118V49.4136Z" fill="#BBBECA"/>
<path id="Vector_106" d="M58.8231 55.0601H57.3223V58.8241H58.8231V55.0601Z" fill="#BBBECA"/>
<path id="Vector_107" d="M64.4707 55.0601H62.9707V58.8241H64.4707V55.0601Z" fill="#BBBECA"/>
<path id="Vector_108" d="M70.118 55.0601H68.6172V58.8241H70.118V55.0601Z" fill="#BBBECA"/>
<path id="Vector_109" d="M58.8231 60.7056H57.3223V64.4696H58.8231V60.7056Z" fill="#BBBECA"/>
<path id="Vector_110" d="M64.4707 60.7056H62.9707V64.4696H64.4707V60.7056Z" fill="#BBBECA"/>
<path id="Vector_111" d="M70.118 60.7056H68.6172V64.4696H70.118V60.7056Z" fill="#BBBECA"/>
<path id="Vector_112" d="M19.2947 55.0583H17.7939V58.824H19.2947V55.0583Z" fill="#D8C26F"/>
<path id="Vector_113" d="M19.2947 60.7041H17.7939V64.4697H19.2947V60.7041Z" fill="#D8C26F"/>
<path id="Vector_114" d="M47.5291 66.3521H46.0283V70.1185H47.5291V66.3521Z" fill="#D8C26F"/>
<path id="Vector_115" d="M53.1776 49.4136H51.6768V53.1776H53.1776V49.4136Z" fill="#D8C26F"/>
<path id="Vector_116" d="M53.1776 55.0583H51.6768V64.4695H53.1776V55.0583Z" fill="#D8C26F"/>
<path id="Vector_117" d="M71.9997 41.8816H8.00293V72H71.9997V41.8816Z" stroke="#335C5F" stroke-width="1.5" stroke-miterlimit="10" stroke-linecap="round" stroke-linejoin="round"/>
<path id="Vector_118" d="M53.1772 49.4136H43.7676V53.176H53.1772V49.4136Z" stroke="#335C5F" stroke-width="1.5" stroke-miterlimit="10" stroke-linecap="round" stroke-linejoin="round"/>
<path id="Vector_119" d="M19.294 55.0583H9.88281V58.824H19.294V55.0583Z" stroke="#335C5F" stroke-width="1.5" stroke-miterlimit="10" stroke-linecap="round" stroke-linejoin="round"/>
<path id="Vector_120" d="M19.294 60.7056H9.88281V64.4696H19.294V60.7056Z" stroke="#335C5F" stroke-width="1.5" stroke-miterlimit="10" stroke-linecap="round" stroke-linejoin="round"/>
<path id="Vector_121" d="M49.4124 55.0583V60.7056H43.7676V64.4695H53.1772V55.0583H49.4124Z" stroke="#335C5F" stroke-width="1.5" stroke-miterlimit="10" stroke-linecap="round" stroke-linejoin="round"/>
<path id="Vector_122" d="M47.5294 66.3521H21.1758V70.1185H47.5294V66.3521Z" stroke="#335C5F" stroke-width="1.5" stroke-miterlimit="10" stroke-linecap="round" stroke-linejoin="round"/>
<path id="Vector_123" d="M13.6476 43.7656H9.88281V47.5288H13.6476V43.7656Z" stroke="#335C5F" stroke-width="1.5" stroke-miterlimit="10" stroke-linecap="round" stroke-linejoin="round"/>
<path id="Vector_124" d="M19.2941 43.7656H15.5293V47.5288H19.2941V43.7656Z" stroke="#335C5F" stroke-width="1.5" stroke-miterlimit="10" stroke-linecap="round" stroke-linejoin="round"/>
<path id="Vector_125" d="M24.9406 43.7656H21.1758V47.5288H24.9406V43.7656Z" stroke="#335C5F" stroke-width="1.5" stroke-miterlimit="10" stroke-linecap="round" stroke-linejoin="round"/>
<path id="Vector_126" d="M30.589 43.7656H26.8242V47.5288H30.589V43.7656Z" stroke="#335C5F" stroke-width="1.5" stroke-miterlimit="10" stroke-linecap="round" stroke-linejoin="round"/>
<path id="Vector_127" d="M36.2355 43.7656H32.4707V47.5288H36.2355V43.7656Z" stroke="#335C5F" stroke-width="1.5" stroke-miterlimit="10" stroke-linecap="round" stroke-linejoin="round"/>
<path id="Vector_128" d="M41.882 43.7656H38.1172V47.5288H41.882V43.7656Z" stroke="#335C5F" stroke-width="1.5" stroke-miterlimit="10" stroke-linecap="round" stroke-linejoin="round"/>
<path id="Vector_129" d="M47.5294 43.7656H43.7646V47.5288H47.5294V43.7656Z" stroke="#335C5F" stroke-width="1.5" stroke-miterlimit="10" stroke-linecap="round" stroke-linejoin="round"/>
<path id="Vector_130" d="M53.1779 43.7656H49.4131V47.5288H53.1779V43.7656Z" stroke="#335C5F" stroke-width="1.5" stroke-miterlimit="10" stroke-linecap="round" stroke-linejoin="round"/>
<path id="Vector_131" d="M58.8236 43.7656H55.0596V47.5288H58.8236V43.7656Z" stroke="#335C5F" stroke-width="1.5" stroke-miterlimit="10" stroke-linecap="round" stroke-linejoin="round"/>
<path id="Vector_132" d="M64.4708 43.7656H60.7061V47.5288H64.4708V43.7656Z" stroke="#335C5F" stroke-width="1.5" stroke-miterlimit="10" stroke-linecap="round" stroke-linejoin="round"/>
<path id="Vector_133" d="M70.1173 43.7656H66.3525V47.5288H70.1173V43.7656Z" stroke="#335C5F" stroke-width="1.5" stroke-miterlimit="10" stroke-linecap="round" stroke-linejoin="round"/>
<path id="Vector_134" d="M13.6476 49.4136H9.88281V53.176H13.6476V49.4136Z" stroke="#335C5F" stroke-width="1.5" stroke-miterlimit="10" stroke-linecap="round" stroke-linejoin="round"/>
<path id="Vector_135" d="M19.2941 49.4136H15.5293V53.176H19.2941V49.4136Z" stroke="#335C5F" stroke-width="1.5" stroke-miterlimit="10" stroke-linecap="round" stroke-linejoin="round"/>
<path id="Vector_136" d="M24.9406 49.4136H21.1758V53.176H24.9406V49.4136Z" stroke="#335C5F" stroke-width="1.5" stroke-miterlimit="10" stroke-linecap="round" stroke-linejoin="round"/>
<path id="Vector_137" d="M30.589 49.4136H26.8242V53.176H30.589V49.4136Z" stroke="#335C5F" stroke-width="1.5" stroke-miterlimit="10" stroke-linecap="round" stroke-linejoin="round"/>
<path id="Vector_138" d="M36.2355 49.4136H32.4707V53.176H36.2355V49.4136Z" stroke="#335C5F" stroke-width="1.5" stroke-miterlimit="10" stroke-linecap="round" stroke-linejoin="round"/>
<path id="Vector_139" d="M41.882 49.4136H38.1172V53.176H41.882V49.4136Z" stroke="#335C5F" stroke-width="1.5" stroke-miterlimit="10" stroke-linecap="round" stroke-linejoin="round"/>
<path id="Vector_140" d="M58.8236 49.4136H55.0596V53.176H58.8236V49.4136Z" stroke="#335C5F" stroke-width="1.5" stroke-miterlimit="10" stroke-linecap="round" stroke-linejoin="round"/>
<path id="Vector_141" d="M64.4708 49.4136H60.7061V53.176H64.4708V49.4136Z" stroke="#335C5F" stroke-width="1.5" stroke-miterlimit="10" stroke-linecap="round" stroke-linejoin="round"/>
<path id="Vector_142" d="M70.1173 49.4136H66.3525V53.176H70.1173V49.4136Z" stroke="#335C5F" stroke-width="1.5" stroke-miterlimit="10" stroke-linecap="round" stroke-linejoin="round"/>
<path id="Vector_143" d="M24.9406 55.0583H21.1758V58.824H24.9406V55.0583Z" stroke="#335C5F" stroke-width="1.5" stroke-miterlimit="10" stroke-linecap="round" stroke-linejoin="round"/>
<path id="Vector_144" d="M30.589 55.0583H26.8242V58.824H30.589V55.0583Z" stroke="#335C5F" stroke-width="1.5" stroke-miterlimit="10" stroke-linecap="round" stroke-linejoin="round"/>
<path id="Vector_145" d="M36.2355 55.0583H32.4707V58.824H36.2355V55.0583Z" stroke="#335C5F" stroke-width="1.5" stroke-miterlimit="10" stroke-linecap="round" stroke-linejoin="round"/>
<path id="Vector_146" d="M41.882 55.0583H38.1172V58.824H41.882V55.0583Z" stroke="#335C5F" stroke-width="1.5" stroke-miterlimit="10" stroke-linecap="round" stroke-linejoin="round"/>
<path id="Vector_147" d="M47.5294 55.0583H43.7646V58.824H47.5294V55.0583Z" stroke="#335C5F" stroke-width="1.5" stroke-miterlimit="10" stroke-linecap="round" stroke-linejoin="round"/>
<path id="Vector_148" d="M58.8236 55.0583H55.0596V58.824H58.8236V55.0583Z" stroke="#335C5F" stroke-width="1.5" stroke-miterlimit="10" stroke-linecap="round" stroke-linejoin="round"/>
<path id="Vector_149" d="M64.4708 55.0583H60.7061V58.824H64.4708V55.0583Z" stroke="#335C5F" stroke-width="1.5" stroke-miterlimit="10" stroke-linecap="round" stroke-linejoin="round"/>
<path id="Vector_150" d="M70.1173 55.0583H66.3525V58.824H70.1173V55.0583Z" stroke="#335C5F" stroke-width="1.5" stroke-miterlimit="10" stroke-linecap="round" stroke-linejoin="round"/>
<path id="Vector_151" d="M24.9406 60.7056H21.1758V64.4696H24.9406V60.7056Z" stroke="#335C5F" stroke-width="1.5" stroke-miterlimit="10" stroke-linecap="round" stroke-linejoin="round"/>
<path id="Vector_152" d="M30.589 60.7056H26.8242V64.4696H30.589V60.7056Z" stroke="#335C5F" stroke-width="1.5" stroke-miterlimit="10" stroke-linecap="round" stroke-linejoin="round"/>
<path id="Vector_153" d="M36.2355 60.7056H32.4707V64.4696H36.2355V60.7056Z" stroke="#335C5F" stroke-width="1.5" stroke-miterlimit="10" stroke-linecap="round" stroke-linejoin="round"/>
<path id="Vector_154" d="M41.882 60.7056H38.1172V64.4696H41.882V60.7056Z" stroke="#335C5F" stroke-width="1.5" stroke-miterlimit="10" stroke-linecap="round" stroke-linejoin="round"/>
<path id="Vector_155" d="M58.8236 60.7056H55.0596V64.4696H58.8236V60.7056Z" stroke="#335C5F" stroke-width="1.5" stroke-miterlimit="10" stroke-linecap="round" stroke-linejoin="round"/>
<path id="Vector_156" d="M64.4708 60.7056H60.7061V64.4696H64.4708V60.7056Z" stroke="#335C5F" stroke-width="1.5" stroke-miterlimit="10" stroke-linecap="round" stroke-linejoin="round"/>
<path id="Vector_157" d="M70.1173 60.7056H66.3525V64.4696H70.1173V60.7056Z" stroke="#335C5F" stroke-width="1.5" stroke-miterlimit="10" stroke-linecap="round" stroke-linejoin="round"/>
<path id="Vector_158" d="M13.6476 66.3521H9.88281V70.1185H13.6476V66.3521Z" stroke="#335C5F" stroke-width="1.5" stroke-miterlimit="10" stroke-linecap="round" stroke-linejoin="round"/>
<path id="Vector_159" d="M19.2941 66.3521H15.5293V70.1185H19.2941V66.3521Z" stroke="#335C5F" stroke-width="1.5" stroke-miterlimit="10" stroke-linecap="round" stroke-linejoin="round"/>
<path id="Vector_160" d="M53.1779 66.3521H49.4131V70.1185H53.1779V66.3521Z" stroke="#335C5F" stroke-width="1.5" stroke-miterlimit="10" stroke-linecap="round" stroke-linejoin="round"/>
<path id="Vector_161" d="M58.8236 66.3521H55.0596V70.1185H58.8236V66.3521Z" stroke="#335C5F" stroke-width="1.5" stroke-miterlimit="10" stroke-linecap="round" stroke-linejoin="round"/>
<path id="Vector_162" d="M64.4708 66.3521H60.7061V70.1185H64.4708V66.3521Z" stroke="#335C5F" stroke-width="1.5" stroke-miterlimit="10" stroke-linecap="round" stroke-linejoin="round"/>
<path id="Vector_163" d="M70.1173 66.3521H66.3525V70.1185H70.1173V66.3521Z" stroke="#335C5F" stroke-width="1.5" stroke-miterlimit="10" stroke-linecap="round" stroke-linejoin="round"/>
</g>
</svg>
