<svg width="38" height="24" viewBox="0 0 38 24" fill="none" xmlns="http://www.w3.org/2000/svg">
<path d="M10.6764 8.92394C10.6764 9.39269 10.7139 9.76769 10.8077 10.0864C10.9014 10.3114 11.0327 10.6114 11.2014 10.9489C11.2764 11.0239 11.2952 11.1364 11.2952 11.2302C11.2952 11.3614 11.2202 11.4739 11.0514 11.6052L10.2639 12.1302C10.1514 12.2052 10.0389 12.2427 9.94516 12.2427C9.81391 12.2427 9.70141 12.1677 9.57016 12.0552C9.40141 11.8677 9.25141 11.6802 9.12016 11.4739C9.00766 11.2677 8.87641 11.0239 8.74516 10.7427C7.77016 11.8864 6.55141 12.4677 5.07016 12.4677C4.02016 12.4677 3.19516 12.1677 2.57641 11.5677C1.97641 10.9677 1.65766 10.1614 1.65766 9.14894C1.65766 8.11769 2.03266 7.27394 2.78266 6.59894C3.55141 5.96144 4.56391 5.62394 5.83891 5.62394C6.27016 5.62394 6.66391 5.66144 7.17016 5.73644C7.60141 5.79269 8.10766 5.88644 8.59516 5.99894L8.59516 5.09894C8.59516 4.14269 8.40766 3.52394 8.01391 3.09269C7.60141 2.69894 6.94516 2.53019 5.98891 2.53019C5.53891 2.53019 5.08891 2.58644 4.63891 2.68019C4.17016 2.79269 3.72016 2.92394 3.28891 3.11144C3.08266 3.18644 2.91391 3.24269 2.85766 3.26144C2.76391 3.29894 2.70766 3.29894 2.65141 3.29894C2.48266 3.29894 2.38891 3.18644 2.38891 2.92394L2.38891 2.30519C2.38891 2.11769 2.40766 1.96769 2.48266 1.87394C2.53891 1.78019 2.65141 1.70519 2.82016 1.64894C3.27016 1.38644 3.77641 1.19894 4.39516 1.04894C5.03123 0.880319 5.68716 0.798329 6.34516 0.805188C7.82641 0.805188 8.91391 1.14269 9.60766 1.81769C10.3014 2.49269 10.6389 3.52394 10.6389 4.89269L10.6389 8.92394H10.6764ZM5.61391 10.8364C6.02641 10.8364 6.43891 10.7614 6.88891 10.6114C7.33891 10.4614 7.73266 10.1802 8.07016 9.80519C8.27641 9.56144 8.42641 9.29894 8.53891 8.99894C8.53891 8.69894 8.63266 8.34269 8.63266 7.91144L8.63266 7.40519C8.25766 7.27394 7.88266 7.27394 7.47016 7.18019C7.08399 7.13772 6.69609 7.11269 6.30766 7.10519C5.46391 7.10519 4.86391 7.27394 4.45141 7.61144C4.03891 7.94894 3.85141 8.41769 3.85141 9.03644C3.85141 9.63644 3.98266 10.0864 4.30141 10.3677C4.60141 10.6864 5.03266 10.8364 5.61391 10.8364ZM15.6264 12.1677C15.4448 12.1747 15.2643 12.136 15.1014 12.0552C15.0452 11.9614 14.9514 11.7927 14.8764 11.5677L11.9514 1.93019C11.8764 1.64894 11.8389 1.51769 11.8389 1.42394C11.8389 1.21769 11.9327 1.10519 12.1389 1.10519L13.3577 1.10519C13.6014 1.10519 13.7702 1.14269 13.8452 1.23644C13.9577 1.31144 14.0327 1.48019 14.1077 1.72394L16.1889 9.97394L18.1389 1.72394C18.1952 1.48019 18.2702 1.31144 18.3827 1.23644C18.4764 1.16144 18.6452 1.10519 18.8514 1.10519L19.8827 1.10519C20.1077 1.10519 20.2764 1.14269 20.3702 1.23644C20.4639 1.31144 20.5577 1.48019 20.6139 1.72394L22.6014 10.0864L24.7389 1.72394C24.8139 1.48019 24.9077 1.31144 24.9827 1.23644C25.0952 1.16144 25.2452 1.10519 25.4702 1.10519L26.6327 1.10519C26.8389 1.10519 26.9514 1.21769 26.9514 1.42394C26.9514 1.48019 26.9327 1.55519 26.9139 1.64894C26.9139 1.64894 26.8764 1.79894 26.8389 1.93019L23.8202 11.5677C23.7452 11.8302 23.6702 11.9614 23.5389 12.0552C23.4639 12.1302 23.2952 12.1864 23.0889 12.1864H22.0202C21.7764 12.1864 21.6639 12.1489 21.5139 12.0552C21.3878 11.9215 21.3088 11.7504 21.2889 11.5677L19.3577 3.52394L17.4264 11.5489C17.3702 11.7927 17.2952 11.9614 17.2014 12.0552C17.047 12.1405 16.8712 12.1796 16.6952 12.1677L15.6264 12.1677ZM31.6577 12.5052C31.0389 12.5052 30.3452 12.4302 29.7264 12.2802C29.1077 12.1302 28.6202 11.9614 28.3014 11.7927C28.1383 11.7147 28.0015 11.5909 27.9077 11.4364C27.8562 11.3315 27.8305 11.2158 27.8327 11.0989L27.8327 10.4614C27.8327 10.1989 27.9264 10.0864 28.1139 10.0864H28.3389C28.4139 10.0864 28.5264 10.1802 28.6577 10.2364C29.0702 10.4239 29.5389 10.5739 30.0264 10.6677C30.5327 10.7614 31.0389 10.8177 31.5077 10.8177C32.2952 10.8177 32.9139 10.6864 33.3264 10.4052C33.7577 10.0864 33.9827 9.73019 33.9827 9.22394C33.9827 8.86769 33.8514 8.58644 33.6452 8.34269C33.4202 8.11769 32.9889 7.89269 32.3889 7.70519L30.5702 7.14269C29.6702 6.84269 28.9952 6.43019 28.5827 5.86769C28.1801 5.347 27.9624 4.70709 27.9639 4.04894C27.9639 3.52394 28.0764 3.07394 28.3014 2.68019C28.5264 2.26769 28.8264 1.93019 29.1639 1.64894C29.5764 1.36769 29.9889 1.16144 30.4952 1.01144C30.9827 0.861438 31.5077 0.786438 32.0702 0.786438C32.3327 0.786438 32.6139 0.805188 32.9139 0.842688C33.1764 0.880188 33.4389 0.936438 33.7014 0.973938C33.9639 1.04894 34.1889 1.10519 34.4139 1.18019C34.6389 1.25519 34.7889 1.33019 34.9389 1.40519C35.1077 1.49894 35.2389 1.59269 35.3139 1.70519C35.3889 1.81769 35.4264 1.94894 35.4264 2.11769L35.4264 2.71769C35.4264 2.98019 35.3327 3.11144 35.1452 3.11144C35.0514 3.11144 34.8827 3.05519 34.6577 2.96144C33.9639 2.64269 33.1577 2.47394 32.2764 2.47394C31.5639 2.47394 31.0389 2.58644 30.6077 2.83019C30.2327 3.05519 30.0264 3.43019 30.0264 3.93644C30.0264 4.29269 30.1577 4.59269 30.4014 4.81769C30.6452 5.06144 31.1139 5.28644 31.7702 5.51144L33.5514 6.07394C34.4514 6.33644 35.0889 6.74894 35.4827 7.27394C35.8577 7.78019 36.0452 8.36144 36.0452 9.01769C36.0452 9.54269 35.9327 10.0302 35.7264 10.4614C35.5014 10.8739 35.2014 11.2489 34.7889 11.5489C34.4327 11.8677 33.9639 12.0927 33.4389 12.2614C32.9139 12.4302 32.2764 12.5052 31.6577 12.5052ZM34.0014 18.5802C29.8952 21.5989 23.9327 23.2114 18.8514 23.2114C11.6327 23.2114 5.16391 20.5489 0.270163 16.1427C-0.123587 15.7864 0.232663 15.3177 0.701413 15.5989C5.98891 18.6552 12.4952 20.5114 19.2452 20.5114C23.8014 20.5114 28.8077 19.5739 33.4014 17.5864C34.0952 17.3052 34.6764 18.0739 34.0014 18.5802ZM35.7264 16.6489C35.1827 15.9552 32.2389 16.3114 30.9077 16.4614C30.5139 16.5177 30.4577 16.1614 30.8139 15.8989C33.1577 14.2677 37.0202 14.7739 37.4514 15.2802C37.9014 15.8427 37.3389 19.7052 35.1452 21.5427C34.7889 21.8239 34.4702 21.6739 34.6202 21.3364C35.1264 20.0614 36.2327 17.2864 35.7264 16.6489Z" fill="black"/>
</svg>
