<svg width="36" height="34" viewBox="0 0 36 34" fill="none" xmlns="http://www.w3.org/2000/svg">
<path d="M12.0282 0.43602L22.4312 0.43602L11.6319 32.4335C11.521 32.7623 11.3097 33.0481 11.0277 33.2505C10.7458 33.4529 10.4075 33.5618 10.0605 33.5618H1.96433C1.56758 33.5619 1.18398 33.4195 0.883373 33.1606C0.58276 32.9016 0.385111 32.5434 0.326398 32.151C0.287427 31.891 0.310927 31.6255 0.394953 31.3763L10.4565 1.56436C10.5674 1.23544 10.7788 0.949609 11.0607 0.747125C11.3427 0.544641 11.681 0.435709 12.0282 0.435669L12.0282 0.43602Z" fill="black"/>
<path d="M27.1453 21.8977L10.6485 21.8977C10.4952 21.8975 10.3453 21.9435 10.2184 22.0297C10.0916 22.1159 9.9937 22.2384 9.93751 22.3811C9.88125 22.5238 9.86926 22.6801 9.90309 22.8297C9.93692 22.9792 10.015 23.1152 10.1272 23.2198L20.7277 33.114C21.0363 33.4018 21.4426 33.5618 21.8646 33.5618H31.2058L27.1453 21.8977Z" fill="black"/>
<path d="M12.0281 0.436047C11.6772 0.434711 11.335 0.54562 11.0516 0.752573C10.7682 0.959526 10.5584 1.25168 10.4528 1.58636L0.407588 31.3491C0.317957 31.5991 0.289845 31.8671 0.32563 32.1303C0.361416 32.3935 0.460045 32.6442 0.613181 32.8612C0.766316 33.0783 0.969456 33.2552 1.20543 33.3772C1.4414 33.4991 1.70326 33.5625 1.96888 33.5618H10.274C10.5833 33.5064 10.8723 33.37 11.1116 33.1664C11.3509 32.9628 11.532 32.6995 11.6363 32.4031L13.6397 26.4993L20.7954 33.1734C21.0952 33.4214 21.4713 33.5586 21.8605 33.5618H31.1668L27.0852 21.8979L15.1867 21.9007L22.469 0.436047L12.0281 0.436047Z" fill="black"/>
<path d="M25.3152 1.56279C25.2046 1.23432 24.9935 0.94887 24.712 0.746713C24.4304 0.544556 24.0925 0.435888 23.7459 0.436035L12.1519 0.436035C12.4985 0.435994 12.8363 0.544703 13.1179 0.746845C13.3994 0.948987 13.6105 1.23437 13.7212 1.56279L23.7831 31.376C23.8671 31.6252 23.8906 31.8908 23.8517 32.1509C23.8128 32.4109 23.7126 32.658 23.5594 32.8717C23.4059 33.0853 23.2039 33.2593 22.9699 33.3794C22.7359 33.4994 22.4767 33.5621 22.2137 33.5622L33.8081 33.5622C34.0711 33.562 34.3302 33.4993 34.5642 33.3792C34.7981 33.2592 35.0001 33.0851 35.1535 32.8715C35.3068 32.6579 35.4071 32.4108 35.4459 32.1508C35.4848 31.8907 35.4612 31.6251 35.3771 31.376L25.3152 1.56279Z" fill="black"/>
</svg>
