<svg width="54" height="54" viewBox="0 0 54 54" fill="none" xmlns="http://www.w3.org/2000/svg">
<path d="M36.7951 34.9403C35.0843 36.4586 32.9478 38.3478 29.0739 38.3478H26.7573C23.954 38.3478 21.4043 37.3289 19.5792 35.4819C17.7965 33.6772 16.8151 31.2073 16.8151 28.5261V25.3565C16.8151 22.6753 17.7965 20.2054 19.5792 18.4007C21.4043 16.5537 23.954 15.5363 26.7573 15.5363H29.0739C32.9525 15.5363 35.0843 17.424 36.7951 18.9423C38.5716 20.5075 40.1039 21.8755 44.1907 21.8755C44.814 21.8753 45.4363 21.8255 46.0518 21.7268L46.0377 21.6908C45.7929 21.0828 45.5057 20.4929 45.1784 19.9252L42.4471 15.1936C41.2154 13.0605 39.4439 11.2893 37.3108 10.0579C35.1776 8.82641 32.7577 8.1781 30.2947 8.17825H24.8305C22.3674 8.1781 19.9477 8.82641 17.8145 10.0579C15.6814 11.2893 13.9099 13.0605 12.6782 15.1936L9.9469 19.9252C8.7157 22.0584 8.06738 24.4783 8.06738 26.9413C8.06738 29.4043 8.7157 31.8241 9.9469 33.9574L12.6782 38.689C13.9099 40.8221 15.6814 42.5933 17.8145 43.8248C19.9477 45.0562 22.3674 45.7045 24.8305 45.7043H30.2947C32.7577 45.7045 35.1776 45.0562 37.3108 43.8248C39.4439 42.5933 41.2154 40.8221 42.4471 38.689L45.1784 33.9652C45.5057 33.3975 45.7929 32.8076 46.0377 32.1996L46.0518 32.1652C45.4366 32.063 44.8143 32.0107 44.1907 32.0087C40.1039 32.0087 38.5716 33.3689 36.7951 34.9419" fill="#006BFF"/>
<path d="M29.0741 18.4084H26.7576C22.4908 18.4084 19.6875 21.4558 19.6875 25.3564V28.5259C19.6875 32.4264 22.4908 35.4739 26.7576 35.4739H29.0741C35.2912 35.4739 34.8028 29.1348 44.191 29.1348C45.0805 29.1339 45.9681 29.2156 46.8425 29.379C47.1273 27.7663 47.1273 26.1161 46.8425 24.5033C45.968 24.6661 45.0805 24.7478 44.191 24.7475C34.7997 24.7475 35.2912 18.4084 29.0741 18.4084Z" fill="#006BFF"/>
<path d="M52.236 31.6958C50.6372 30.5249 48.7934 29.7322 46.8438 29.3777V29.4247C46.676 30.3591 46.4137 31.2743 46.0612 32.156C47.6718 32.4053 49.1999 33.0347 50.5189 33.992C50.5189 34.0045 50.5111 34.0202 50.5064 34.0342C48.8086 39.5314 45.1954 44.2376 40.3229 47.2974C35.4506 50.3573 29.6422 51.5678 23.9531 50.7093C18.264 49.8509 13.0716 46.9803 9.31895 42.6188C5.56634 38.2575 3.5026 32.6949 3.5026 26.9415C3.5026 21.1879 5.56634 15.6252 9.31895 11.2639C13.0716 6.9026 18.264 4.03184 23.9531 3.17347C29.6422 2.31495 35.4506 3.52565 40.3229 6.58549C45.1954 9.64518 48.8086 14.3513 50.5064 19.8487C50.5064 19.8628 50.5142 19.8784 50.5189 19.8909C49.2001 20.8482 47.6718 21.4771 46.0612 21.7254C46.4133 22.6082 46.6755 23.5243 46.8438 24.4598C46.8428 24.4744 46.8428 24.4889 46.8438 24.5036C48.7934 24.1496 50.6371 23.3576 52.236 22.1871C53.773 21.0492 53.4756 19.7642 53.2424 19.0035C51.3421 12.8398 47.2935 7.56234 41.8326 4.13029C36.3715 0.698083 29.8604 -0.660995 23.4824 0.299892C17.1045 1.26094 11.2828 4.47793 7.07552 9.36673C2.86806 14.2555 0.554199 20.4914 0.554199 26.9415C0.554199 33.3914 2.86806 39.6272 7.07552 44.516C11.2828 49.4048 17.1045 52.622 23.4824 53.5829C29.8604 54.5438 36.3715 53.1847 41.8326 49.7525C47.2935 46.3204 51.3421 41.043 53.2424 34.8795C53.4756 34.1188 53.773 32.8337 52.236 31.6958Z" fill="#006BFF"/>
<path d="M46.0516 21.7251C45.4365 21.8273 44.8142 21.8796 44.1906 21.8816C40.1038 21.8816 38.5715 20.5214 36.7965 18.9484C35.0842 17.4301 32.9523 15.5409 29.0737 15.5409H26.7572C23.9523 15.5409 21.4042 16.5598 19.5791 18.4068C17.7963 20.2115 16.8149 22.6814 16.8149 25.3626V28.5322C16.8149 31.2134 17.7963 33.6833 19.5791 35.488C21.4042 37.335 23.9523 38.3524 26.7572 38.3524H29.0737C32.9523 38.3524 35.0842 36.4647 36.7965 34.9465C38.5715 33.3812 40.1038 32.0132 44.1906 32.0132C44.8139 32.0134 45.4362 32.0632 46.0516 32.1619C46.4049 31.2806 46.6671 30.3654 46.8342 29.4306C46.8352 29.415 46.8352 29.3993 46.8342 29.3837C45.9598 29.2215 45.0721 29.1403 44.1828 29.1411C34.7915 29.1411 35.2829 35.4818 29.0659 35.4818H26.7494C22.4826 35.4818 19.6793 32.4327 19.6793 28.5322V25.3564C19.6793 21.4558 22.4826 18.4084 26.7494 18.4084H29.0659C35.2829 18.4084 34.7946 24.7459 44.1828 24.7459C45.0723 24.7475 45.9599 24.6663 46.8342 24.5033V24.4595C46.666 23.524 46.4038 22.6078 46.0516 21.7251Z" fill="#0AE9EF"/>
</svg>
