<svg width="39" height="38" viewBox="0 0 39 38" fill="none" xmlns="http://www.w3.org/2000/svg">
<path d="M8.00586 18.999H0.505859C0.505859 8.68646 8.94336 0.248962 19.2559 0.248962C29.5684 0.248962 38.0059 8.68646 38.0059 18.999C38.0059 29.3115 29.5684 37.749 19.2559 37.749L19.2559 30.249H11.7559L11.7559 22.749H19.2559L19.2559 30.249C25.4809 30.249 30.5059 25.2052 30.5059 18.999C30.5059 12.7927 25.4621 7.74896 19.2559 7.74896C13.0496 7.74896 8.00586 12.7927 8.00586 18.999ZM11.7559 30.249L11.7559 35.874H6.13086L6.13086 30.249L11.7559 30.249ZM2.38086 26.499H6.13086L6.13086 30.249H2.38086L2.38086 26.499Z" fill="black"/>
</svg>
