<svg width="35" height="46" viewBox="0 0 35 46" fill="none" xmlns="http://www.w3.org/2000/svg">
<g clip-path="url(#clip0_53_270)">
<path d="M1.67139 8.91818C1.67139 4.26842 5.44084 0.498962 10.0907 0.498962L24.5371 0.498962C29.187 0.498962 32.9564 4.26842 32.9564 8.91818C32.9564 11.8625 31.445 14.4539 29.1558 15.9587C31.445 17.4635 32.9564 20.0548 32.9564 22.9991C32.9564 27.649 29.187 31.4184 24.5371 31.4184H24.3543C22.1744 31.4184 20.188 30.59 18.6928 29.2308L18.6928 36.9882C18.6928 41.7001 14.8248 45.499 10.136 45.499C5.49779 45.499 1.67139 41.741 1.67139 37.0797C1.67139 34.1355 3.18267 31.5443 5.47178 30.0394C3.18249 28.5346 1.67139 25.9433 1.67139 22.9991C1.67139 20.0548 3.18275 17.4635 5.47195 15.9587C3.18284 14.4539 1.67139 11.8625 1.67139 8.91818ZM15.935 17.3377L10.0907 17.3377C6.9639 17.3377 4.42922 19.8724 4.42922 22.9991C4.42922 26.1138 6.94438 28.641 10.0545 28.6605L10.0907 28.6604L15.935 28.6604L15.935 17.3377ZM18.6928 22.9991C18.6928 26.1258 21.2275 28.6606 24.3543 28.6606H24.5371C27.6639 28.6606 30.1986 26.1258 30.1986 22.9991C30.1986 19.8724 27.6639 17.3377 24.5371 17.3377H24.3543C21.2275 17.3377 18.6928 19.8724 18.6928 22.9991ZM10.0907 31.4184L10.0545 31.4184C6.94438 31.4378 4.42922 33.965 4.42922 37.0797C4.42922 40.1949 6.99782 42.7411 10.136 42.7411C13.3249 42.7411 15.935 40.154 15.935 36.9882L15.935 31.4184L10.0907 31.4184ZM10.0907 3.25679C6.9639 3.25679 4.42922 5.79156 4.42922 8.91818C4.42922 12.045 6.96398 14.5797 10.0907 14.5797H15.935L15.935 3.25671L10.0907 3.25679ZM18.6928 14.5797H24.5371C27.6639 14.5797 30.1986 12.045 30.1986 8.91818C30.1986 5.79147 27.6639 3.25679 24.5371 3.25679L18.6928 3.25679L18.6928 14.5797Z" fill="black"/>
</g>
<defs>
<clipPath id="clip0_53_270">
<rect width="33.75" height="45" fill="white" transform="translate(0.440918 0.498962)"/>
</clipPath>
</defs>
</svg>
