<svg width="36" height="30" viewBox="0 0 36 30" fill="none" xmlns="http://www.w3.org/2000/svg">
<path d="M24.1084 8.67081L27.1643 5.61467L27.3681 4.32795C21.7993 -0.735777 12.947 -0.161499 7.92666 5.52608C6.53236 7.10565 5.49789 9.0751 4.94629 11.1089L6.0407 10.9546L12.1526 9.9468L12.6244 9.46428C15.343 6.47846 19.9399 6.07663 23.079 8.61702L24.1084 8.67081Z" fill="black"/>
<path d="M31.5174 11.0191C30.815 8.43234 29.3728 6.10691 27.3677 4.32813L23.0787 8.61719C23.9726 9.34757 24.6889 10.2714 25.1737 11.319C25.6585 12.3666 25.8991 13.5106 25.8773 14.6648L25.8773 15.4261C27.9854 15.4261 29.6945 17.135 29.6945 19.2432C29.6945 21.3515 27.9854 23.0177 25.8773 23.0177H18.232L17.4814 23.8326L17.4814 28.4112L18.232 29.1296H25.8773C31.3608 29.1723 35.8407 24.8045 35.8835 19.321C35.8963 17.6846 35.5044 16.0704 34.7426 14.6219C33.9809 13.1735 32.873 11.9359 31.5174 11.0191Z" fill="#030303"/>
<path d="M10.5975 29.1297L18.232 29.1297L18.232 23.0177L10.5975 23.0177C10.057 23.0176 9.52295 22.9006 9.03197 22.6746L7.94898 23.007L4.87158 26.063L4.60352 27.1031C6.32934 28.4061 8.43484 29.139 10.5975 29.1297Z" fill="black"/>
<path d="M10.5977 9.30346C5.11399 9.33616 0.695198 13.808 0.727717 19.2915C0.736742 20.8027 1.09056 22.2918 1.76222 23.6455C2.43388 24.9991 3.40566 26.1816 4.60352 27.1029L9.03197 22.6744C7.11068 21.8064 6.25692 19.5452 7.12492 17.6241C7.99293 15.7028 10.2542 14.849 12.1751 15.7168C13.0217 16.0993 13.6998 16.7774 14.0823 17.6241L18.5108 13.1956C17.5813 11.9804 16.3834 10.9968 15.0106 10.3215C13.6378 9.64627 12.1274 9.29778 10.5975 9.30329L10.5977 9.30346Z" fill="black"/>
</svg>
