<svg width="47" height="46" viewBox="0 0 47 46" fill="none" xmlns="http://www.w3.org/2000/svg">
<g clip-path="url(#clip0_53_224)">
<path d="M23.4639 0.499756C11.0382 0.499756 1.05015 10.5738 1.15658 22.9989C1.263 35.4241 11.4237 45.4981 23.8493 45.4981C36.2749 45.4981 46.263 35.4241 46.1566 22.9989C46.0502 10.5738 35.8895 0.499756 23.4639 0.499756ZM23.981 4.83647C28.6123 4.84585 33.6058 8.60133 35.0873 10.39L35.5496 10.9525C38.6567 14.6911 42.3112 19.0897 42.3534 24.0133C42.4131 30.9861 36.8592 34.9029 30.9277 38.0902C28.2531 39.5264 25.3644 40.9176 22.0494 40.9176C13.5313 40.9176 6.30587 34.226 6.23291 25.7082C6.22157 24.3845 6.52878 23.0364 6.83963 21.6771C7.06011 20.7115 7.28054 19.7403 7.39038 18.7728C8.34499 10.2625 12.8444 6.03268 23.0627 4.88334C23.3674 4.84958 23.6741 4.83518 23.981 4.83647Z" fill="black"/>
</g>
<defs>
<clipPath id="clip0_53_224">
<rect width="45" height="45" fill="white" transform="matrix(1 -3.47962e-09 0.00856499 0.999963 0.963867 0.499756)"/>
</clipPath>
</defs>
</svg>
