<svg width="47" height="46" viewBox="0 0 47 46" fill="none" xmlns="http://www.w3.org/2000/svg">
<g clip-path="url(#clip0_53_230)">
<path fill-rule="evenodd" clip-rule="evenodd" d="M45.186 10.6795C45.2023 10.7394 45.2117 10.801 45.2122 10.8635L45.2949 20.5223C45.2971 20.7741 45.1635 21.0083 44.9463 21.1333L36.8791 25.8007L36.9584 35.0519C36.9605 35.3037 36.8287 35.5361 36.6114 35.6629L19.772 45.4044C19.7334 45.4265 19.6913 45.4405 19.6492 45.4555C19.6334 45.4608 19.6185 45.4705 19.6018 45.4749C19.4841 45.5057 19.3591 45.5057 19.2408 45.4749C19.2214 45.4696 19.2037 45.459 19.1852 45.452C19.1463 45.4379 19.1057 45.4256 19.0686 45.4044L2.06573 35.6629C1.84632 35.537 1.70875 35.3037 1.70659 35.0519L1.4584 6.07548C1.45786 6.01209 1.46613 5.95047 1.48147 5.89061C1.48658 5.87036 1.49874 5.85188 1.50561 5.83163C1.5185 5.79466 1.5305 5.7568 1.54957 5.72247C1.56258 5.69958 1.58179 5.6811 1.59746 5.65997C1.61746 5.6318 1.6357 5.60275 1.65926 5.5781C1.67934 5.55785 1.70562 5.54289 1.72836 5.52528C1.75371 5.50415 1.7764 5.48126 1.80531 5.46454L10.2246 0.593754C10.441 0.468749 10.7104 0.468749 10.9289 0.593754L19.4307 5.46454L19.4325 5.46454C19.4608 5.48214 19.4848 5.50415 19.5105 5.5244C19.5335 5.54201 19.5592 5.55785 19.5796 5.57722C19.6045 5.60275 19.6223 5.6318 19.6437 5.65997C19.6588 5.6811 19.6793 5.69958 19.6918 5.72247C19.7123 5.75768 19.7241 5.79466 19.7385 5.83163C19.7457 5.85188 19.7582 5.87036 19.7637 5.89149C19.78 5.95135 19.7893 6.01297 19.7899 6.07548L19.9449 24.1739L26.96 20.1147L26.8807 10.8626C26.8802 10.801 26.8884 10.7385 26.9038 10.6795C26.9098 10.6584 26.9211 10.6399 26.9279 10.6197C26.9417 10.5827 26.9537 10.5448 26.9728 10.5105C26.9858 10.4876 27.005 10.4691 27.0198 10.448C27.0407 10.4198 27.058 10.3908 27.0825 10.3661C27.1025 10.3459 27.1279 10.3309 27.1507 10.3133C27.1769 10.2922 27.1996 10.2693 27.2276 10.2526L35.6478 5.38179C35.8642 5.2559 36.1336 5.2559 36.3521 5.38179L44.8539 10.2526C44.884 10.2702 44.9071 10.2922 44.9337 10.3124C44.9558 10.33 44.9815 10.3459 45.0019 10.3653C45.0268 10.3908 45.0446 10.4198 45.066 10.448C45.082 10.4691 45.1016 10.4876 45.1141 10.5105C45.1346 10.5448 45.1464 10.5827 45.1608 10.6197C45.1689 10.6399 45.1805 10.6584 45.186 10.6795ZM43.8811 20.1147L43.8123 12.0827L40.8663 13.787L36.7964 16.1419L36.8652 24.1739L43.882 20.1147L43.8811 20.1147ZM35.5454 34.6443L35.4766 26.6071L31.4731 28.9047L20.0407 35.4613L20.1102 43.5743L35.5454 34.6443ZM2.87916 7.29471L3.11342 34.6443L18.6999 43.5734L18.6304 35.4622L10.4884 30.8766L10.4857 30.8748L10.4822 30.8731C10.4548 30.8572 10.4317 30.8343 10.406 30.815C10.3838 30.7974 10.3582 30.7833 10.3386 30.7639L10.3369 30.7613C10.3138 30.7393 10.2977 30.712 10.2781 30.6873C10.2603 30.6636 10.239 30.6433 10.2247 30.6187L10.2238 30.616C10.2077 30.5896 10.1978 30.5579 10.1861 30.528C10.1744 30.5016 10.1592 30.4769 10.152 30.4488C10.1429 30.4153 10.1408 30.3792 10.137 30.3449C10.1332 30.3185 10.126 30.2921 10.1257 30.2657L9.96375 11.3538L5.85436 8.99812L2.87916 7.29471ZM10.5898 2.0181L3.57564 6.07548L10.6576 10.1329L17.6709 6.0746L10.5881 2.0181L10.5898 2.0181ZM14.4725 27.3395L18.5415 24.9855L18.39 7.29471L15.444 8.999L11.3741 11.3538L11.5256 29.0447L14.4725 27.3395ZM36.0121 6.80614L28.9988 10.8635L36.0816 14.9209L43.0941 10.8626L36.0121 6.80614ZM35.3869 16.1419L31.2767 13.787L28.3015 12.0827L28.3703 20.1147L32.4796 22.4687L35.4557 24.1739L35.3869 16.1419ZM19.3242 34.242L29.6116 28.3404L34.754 25.3914L27.6765 21.3366L19.6076 26.0049L12.2535 30.2595L19.3242 34.242Z" fill="black"/>
</g>
<defs>
<clipPath id="clip0_53_230">
<rect width="45" height="45" fill="white" transform="matrix(1 -3.47962e-09 0.00856499 0.999963 0.76709 0.499756)"/>
</clipPath>
</defs>
</svg>
