<svg width="47" height="46" viewBox="0 0 47 46" fill="none" xmlns="http://www.w3.org/2000/svg">
<path d="M21.9918 0.526137C21.8952 0.534926 21.5878 0.565687 21.3112 0.587658C14.9309 1.16332 8.97941 4.60851 5.23668 9.90372C3.15252 12.848 1.832 16.1877 1.35254 19.7251C1.18294 20.96 1.16409 21.3247 1.17843 22.9989C1.19277 24.6732 1.21787 25.0379 1.40862 26.2728C2.7026 34.7143 8.77068 41.8068 16.9406 44.4347C18.4037 44.9049 19.9445 45.2257 21.6952 45.419C22.377 45.4937 25.3213 45.4937 26.0018 45.419C29.018 45.085 31.5692 44.338 34.0806 43.0505C34.4657 42.8527 34.5399 42.8 34.4868 42.756C34.4514 42.7297 32.7845 40.5193 30.7841 37.8475L27.1478 32.9917L22.5863 26.3255C20.0764 22.6606 18.0117 19.6636 17.9941 19.6636C17.9765 19.6592 17.9843 22.621 18.0065 26.2376C18.0475 32.5699 18.0453 32.8248 17.9675 32.9742C17.8551 33.1895 17.7679 33.2774 17.5842 33.3741C17.4442 33.4444 17.3212 33.4575 16.6577 33.4575L15.8974 33.4575L15.6942 33.3301C15.5616 33.2466 15.464 33.1368 15.397 33.0093L15.303 32.8116L15.2363 24.0009L15.174 15.1858L15.3088 15.0144C15.3783 14.9221 15.5267 14.8034 15.6317 14.7463C15.8111 14.6584 15.8813 14.6496 16.6416 14.6496C17.5381 14.6496 17.6878 14.6848 17.9229 14.9397C17.9894 15.01 20.4598 18.6837 23.4157 23.1088C26.3716 27.5339 30.4136 33.5762 32.3989 36.5424L36.0047 41.9343L36.1838 41.8156C37.7702 40.7786 39.445 39.3021 40.7678 37.764C43.5831 34.499 45.3815 30.5177 45.9604 26.2728C46.13 25.0379 46.1488 24.6732 46.1345 22.9989C46.1201 21.3247 46.095 20.96 45.9043 19.7251C44.6103 11.2836 38.5422 4.19104 30.3723 1.56321C28.9313 1.09741 27.3992 0.776616 25.6837 0.583264C25.2614 0.53932 22.3562 0.490982 21.9918 0.526137ZM31.3104 14.1223C31.5222 14.2278 31.6954 14.4299 31.7587 14.6409C31.7948 14.7551 31.8245 17.1984 31.8629 22.7045L31.9174 30.6056L30.5061 28.4699L29.0903 26.3343L29.0411 20.5908C29.0093 16.8776 29.009 14.7903 29.0345 14.6892C29.1027 14.4431 29.2549 14.2498 29.4648 14.1355C29.6442 14.0432 29.71 14.0344 30.4 14.0344C31.0504 14.0344 31.1647 14.0432 31.3104 14.1223Z" fill="black"/>
<path d="M35.7858 42.0309C35.6328 42.1276 35.585 42.1935 35.7206 42.1188C35.8168 42.0617 35.974 41.9431 35.9476 41.9387C35.9344 41.9387 35.8601 41.9826 35.7858 42.0309ZM35.4843 42.2287C35.4057 42.2902 35.4057 42.2946 35.502 42.2463C35.5545 42.2199 35.5982 42.1891 35.5981 42.1803C35.5978 42.1452 35.5759 42.154 35.4843 42.2287ZM35.2657 42.3605C35.1871 42.422 35.1871 42.4264 35.2834 42.3781C35.3359 42.3517 35.3796 42.321 35.3795 42.3122C35.3792 42.277 35.3573 42.2858 35.2657 42.3605ZM35.0471 42.4923C34.9685 42.5539 34.9685 42.5583 35.0648 42.5099C35.1173 42.4836 35.161 42.4528 35.1609 42.444C35.1606 42.4089 35.1387 42.4176 35.0471 42.4923ZM34.7146 42.6681C34.5483 42.756 34.5574 42.7912 34.7237 42.7077C34.7981 42.6681 34.8549 42.6286 34.8548 42.6198C34.8545 42.589 34.8502 42.5934 34.7146 42.6681Z" fill="black"/>
</svg>
