<svg width="46" height="30" viewBox="0 0 46 30" fill="none" xmlns="http://www.w3.org/2000/svg">
<path d="M26.1419 29.6797L42.8707 29.6797C43.4013 29.6797 43.9232 29.5428 44.3804 29.2859C44.8358 29.0308 45.2148 28.6596 45.4793 28.2097C45.7403 27.7658 45.8759 27.2586 45.8718 26.7416C45.8663 26.2252 45.7213 25.7186 45.4523 25.2754L34.0575 6.40051C33.785 5.95134 33.3997 5.58081 32.9402 5.32618C32.4756 5.06771 31.9534 4.93214 31.4237 4.93244C30.8931 4.93244 30.3711 5.06931 29.9139 5.32618C29.4595 5.58108 29.0812 5.95158 28.8169 6.40051L25.982 11.2303L20.2893 1.78631C20.0167 1.33719 19.6313 0.966677 19.1719 0.711973C18.7073 0.45358 18.1852 0.318021 17.6554 0.318238C17.1229 0.318238 16.6029 0.455108 16.1457 0.711973C15.6906 0.966677 15.3116 1.33719 15.0468 1.78631L1.2642 25.2754C1.00285 25.7186 0.866622 26.2252 0.869879 26.7416C0.874296 27.2573 1.01738 27.7635 1.28745 28.2097C1.55919 28.6593 1.9439 29.0305 2.40292 29.2859C2.86637 29.5428 3.39067 29.6797 3.92129 29.6797L14.4213 29.6797C18.5838 29.6797 21.6361 27.906 23.7177 24.4486L28.7684 15.837L31.4739 11.2303L39.8331 25.0711L28.8474 25.0711L26.1419 29.6797ZM14.213 25.0673L6.88551 25.0636L17.7112 6.61051L23.2709 15.837L19.6543 22.0056C18.271 24.248 16.6861 25.0655 14.213 25.0655L14.213 25.0673Z" fill="black"/>
</svg>
