<svg width="18" height="19" viewBox="0 0 18 19" fill="none" xmlns="http://www.w3.org/2000/svg">
<path d="M16.7143 7.98964H10.9286V2.20393C10.9286 1.49397 10.3528 0.918213 9.64286 0.918213H8.35714C7.64719 0.918213 7.07143 1.49397 7.07143 2.20393V7.98964H1.28571C0.575759 7.98964 0 8.5654 0 9.27536V10.5611C0 11.271 0.575759 11.8468 1.28571 11.8468H7.07143V17.6325C7.07143 18.3425 7.64719 18.9182 8.35714 18.9182H9.64286C10.3528 18.9182 10.9286 18.3425 10.9286 17.6325V11.8468H16.7143C17.4242 11.8468 18 11.271 18 10.5611V9.27536C18 8.5654 17.4242 7.98964 16.7143 7.98964Z" fill="black"/>
</svg>
