<svg width="46" height="46" viewBox="0 0 46 46" fill="none" xmlns="http://www.w3.org/2000/svg">
<g clip-path="url(#clip0_53_278)">
<path d="M23.4562 26.3645C25.6743 26.3645 27.4724 24.5664 27.4724 22.3483C27.4724 20.1302 25.6743 18.332 23.4562 18.332C21.2381 18.332 19.4399 20.1302 19.4399 22.3483C19.4399 24.5664 21.2381 26.3645 23.4562 26.3645Z" fill="black"/>
<path d="M23.4564 15.1427C28.6464 15.1427 33.5757 15.8739 37.3239 17.1639C41.4864 18.5964 44.027 20.7152 44.027 22.3483C44.027 24.0864 41.2839 26.3439 36.8307 27.8196C33.287 28.9933 28.5432 29.6346 23.4564 29.6346C18.1126 29.6346 13.3145 29.0064 9.81199 27.8083C7.61824 27.0583 5.80699 26.0833 4.56387 25.0221C3.44824 24.0658 2.88574 23.1171 2.88574 22.3483C2.88574 20.7096 5.32699 18.6208 9.40137 17.1996C13.1514 15.8927 18.2007 15.1427 23.4564 15.1427ZM23.4564 13.2189C17.9964 13.2189 12.7351 14.0027 8.76762 15.3864C4.00512 17.0458 0.963867 19.6483 0.963867 22.3483C0.963867 25.1346 4.22824 27.9321 9.18949 29.6271C12.9189 30.9021 17.9157 31.5564 23.4564 31.5564C28.7364 31.5564 33.677 30.8889 37.4364 29.6439C42.5926 27.9339 45.9489 25.1721 45.9489 22.3483C45.9489 19.6389 42.8082 17.0196 37.9501 15.3452C33.9882 13.9821 28.8489 13.2189 23.4564 13.2189ZM17.1789 18.7689C19.772 14.2708 22.8676 10.3671 25.8601 7.76269C29.1789 4.87519 32.2839 3.73144 33.6976 4.54894C35.2032 5.41706 35.7901 8.91956 34.8432 13.5152C34.0895 17.1714 32.2745 21.6002 29.7339 26.0083C27.0639 30.6377 24.1239 34.4796 21.3339 36.9152C19.5901 38.4414 17.8407 39.5233 16.2995 40.0689C14.9157 40.5564 13.8114 40.5714 13.1457 40.1871C11.7264 39.3696 11.1357 36.2102 11.9401 31.9727C12.6807 28.0708 14.5539 23.3196 17.1789 18.7671M15.5139 17.8071C12.7857 22.5358 10.8357 27.4858 10.052 31.6127C9.11262 36.5683 9.84574 40.5039 12.1839 41.8502C14.6007 43.2452 18.6526 41.8127 22.5995 38.3627C25.5676 35.7696 28.6314 31.7664 31.3989 26.9683C34.0351 22.3933 35.927 17.7808 36.7239 13.9014C37.8207 8.58206 37.1045 4.29394 34.6576 2.88394C32.3101 1.53019 28.4739 2.94019 24.5964 6.31519C21.4389 9.06394 18.2082 13.1364 15.5139 17.8071ZM17.1845 26.0158C14.5839 21.5271 12.7482 16.8939 11.987 13.0052C11.1414 8.68331 11.702 5.42456 13.1157 4.60706C14.6195 3.73519 17.9476 4.97831 21.4557 8.09269C24.2495 10.5714 27.1782 14.3552 29.7264 18.7596C32.4057 23.3852 34.2639 27.8496 34.9839 31.4814C35.4339 33.7558 35.4976 35.8127 35.1995 37.4196C34.9314 38.8633 34.3932 39.8271 33.7276 40.2133C32.3101 41.0327 29.2782 39.9658 26.0082 37.1514C22.9989 34.5639 19.817 30.5683 17.1845 26.0196M15.5214 26.9833C18.257 31.7083 21.5701 35.8708 24.7557 38.6083C28.5789 41.8989 32.3532 43.2264 34.6895 41.8746C37.1026 40.4777 37.8864 36.2514 36.8682 31.1083C36.1032 27.2439 34.1664 22.5902 31.3895 17.7958C28.7457 13.2264 25.6914 9.28331 22.7307 6.65456C18.6695 3.04894 14.597 1.52644 12.152 2.94206C9.80824 4.29956 9.11449 8.32894 10.1007 13.3727C10.9051 17.4846 12.8195 22.3146 15.5214 26.9814" fill="black"/>
</g>
<defs>
<clipPath id="clip0_53_278">
<rect width="45" height="45" fill="white" transform="translate(0.963867 0.498962)"/>
</clipPath>
</defs>
</svg>
