<svg width="46" height="46" viewBox="0 0 46 46" fill="none" xmlns="http://www.w3.org/2000/svg">
<path d="M43.8186 17.8538L33.9749 6.60385C33.8432 6.45352 33.6811 6.33297 33.4992 6.25022C33.3174 6.16748 33.12 6.12443 32.9202 6.12396L13.2327 6.12396C13.0329 6.12443 12.8355 6.16748 12.6536 6.25022C12.4717 6.33297 12.3096 6.45352 12.178 6.60385L2.33424 17.8538C2.10459 18.116 1.9805 18.4542 1.98602 18.8027C1.99154 19.1512 2.12628 19.4852 2.36412 19.74L22.0516 40.8337C22.1832 40.9748 22.3424 41.0873 22.5193 41.1642C22.6962 41.2411 22.887 41.2808 23.0799 41.2808C23.2728 41.2808 23.4637 41.2411 23.6406 41.1642C23.8175 41.0873 23.9767 40.9748 24.1083 40.8337L43.7958 19.74C44.0326 19.4843 44.1661 19.1498 44.1703 18.8013C44.1745 18.4528 44.0492 18.1152 43.8186 17.8538ZM39.6649 17.374H32.217L25.8889 8.93646L32.2821 8.93646L39.6649 17.374ZM13.6862 20.1865L18.9825 33.4281L6.62506 20.1865H13.6862ZM29.4362 20.1865L23.0764 36.0876L16.7167 20.1865L29.4362 20.1865ZM17.4514 17.374L23.0764 9.87338L28.7014 17.374L17.4514 17.374ZM32.4667 20.1865H39.5278L27.1704 33.4281L32.4667 20.1865ZM13.8708 8.93646L20.2639 8.93646L13.9358 17.374H6.48795L13.8708 8.93646Z" fill="black"/>
</svg>
