<svg width="32" height="20" viewBox="0 0 32 20" fill="none" xmlns="http://www.w3.org/2000/svg">
<path fill-rule="evenodd" clip-rule="evenodd" d="M8.14795 6.8349C9.20264 2.61615 11.8395 0.506775 16.0581 0.506775C22.3862 0.506775 23.1772 5.25287 26.3413 6.04388C28.4509 6.5714 30.2964 5.78039 31.8784 3.67084C30.8239 7.88941 28.1868 9.99896 23.9683 9.99896C17.6401 9.99896 16.8491 5.25287 13.6851 4.46185C11.5755 3.93451 9.72998 4.72552 8.14795 6.8349ZM0.237793 16.3271C1.29248 12.1085 3.9292 9.99896 8.14795 9.99896C14.4761 9.99896 15.2671 14.7451 18.4312 15.5361C20.5407 16.0636 22.3862 15.2726 23.9683 13.163C22.9137 17.3816 20.2767 19.4911 16.0581 19.4911C9.72998 19.4911 8.93896 14.7451 5.7749 13.954C3.66553 13.4265 1.81982 14.2175 0.237793 16.3271Z" fill="black"/>
</svg>
