<svg width="80" height="80" viewBox="0 0 80 80" fill="none" xmlns="http://www.w3.org/2000/svg">
<g id="mouse, idea, device, bulb">
<path id="Vector" d="M23.9994 51.9967C23.9994 47.5791 20.4162 43.9983 15.9986 43.9983C11.581 43.9983 8.00098 47.5791 8.00098 51.9967V51.9983V63.9967C8.00098 68.4159 11.5842 71.9967 15.9986 71.9967C20.417 71.9967 23.9978 68.4159 23.9994 63.9967V51.9983V51.9967Z" fill="#75C6A4" stroke="#335C5F" stroke-width="1.5" stroke-miterlimit="10" stroke-linecap="round" stroke-linejoin="round"/>
<path id="Vector_2" d="M15.998 43.9983C15.4844 43.9983 14.9836 44.0511 14.498 44.1439C18.198 44.8463 20.9988 48.0919 20.9988 51.9967V51.9983V63.9967C20.9964 67.9023 18.1972 71.1487 14.498 71.8519C14.9844 71.9439 15.4844 71.9967 15.998 71.9967C20.4164 71.9967 23.9972 68.4159 23.9988 63.9967V51.9983V51.9967C23.9996 47.5791 20.4164 43.9983 15.998 43.9983Z" fill="#65AD90"/>
<path id="Vector_3" d="M55.6467 31.9081C55.6467 29.9737 54.9107 28.0393 53.4339 26.5649C52.0667 25.1977 51.2227 23.3105 51.2227 21.2233C51.2227 17.0489 54.6043 13.6665 58.7771 13.6665C62.9491 13.6665 66.3299 17.0489 66.3299 21.2233C66.3299 23.3097 65.4859 25.1969 64.1171 26.5649C62.6419 28.0393 61.9043 29.9737 61.9043 31.9081H55.6467Z" fill="#FADF7E" stroke="#335C5F" stroke-width="1.5" stroke-miterlimit="10" stroke-linecap="round" stroke-linejoin="round"/>
<path id="Vector_4" d="M58.7773 13.6665C58.2629 13.6665 57.7613 13.7185 57.2773 13.8169C60.7301 14.5129 63.3317 17.5641 63.3317 21.2233C63.3317 23.3097 62.4877 25.1969 61.1173 26.5649C59.6421 28.0393 58.9045 29.9737 58.9045 31.9081H61.9045C61.9045 29.9737 62.6421 28.0393 64.1173 26.5649C65.4861 25.1977 66.3301 23.3105 66.3301 21.2233C66.3301 17.0489 62.9493 13.6665 58.7773 13.6665Z" fill="#D8C26F"/>
<path id="Vector_5" d="M55.6465 31.908V37.952L56.7257 39.5688H60.8273L61.9057 37.952V31.908H55.6465Z" fill="#E9EAEF" stroke="#335C5F" stroke-width="1.5" stroke-miterlimit="10" stroke-linecap="round" stroke-linejoin="round"/>
<path id="Vector_6" d="M58.9039 31.908V37.952L57.8271 39.5688H60.8271L61.9056 37.952V31.908H58.9039Z" fill="#CACCD1"/>
<path id="Vector_7" d="M55.6465 36.4409L61.9057 37.9537" stroke="#335C5F" stroke-width="1.5" stroke-miterlimit="10" stroke-linecap="round" stroke-linejoin="round"/>
<path id="Vector_8" d="M55.6465 33.6064L61.9057 35.1184" stroke="#335C5F" stroke-width="1.5" stroke-miterlimit="10" stroke-linecap="round" stroke-linejoin="round"/>
<path id="Vector_9" d="M59.8537 27.5897C59.8537 26.9945 59.3721 26.5105 58.7769 26.5105C58.1785 26.5105 57.6985 26.9937 57.6953 27.5897V31.9081H59.8529L59.8537 27.5897Z" fill="#E9EAEF" stroke="#335C5F" stroke-width="1.5" stroke-miterlimit="10" stroke-linecap="round" stroke-linejoin="round"/>
<path id="Vector_10" d="M57.9117 26.9505L55.5381 21.2233C56.7285 21.2233 57.6957 20.2561 57.6957 19.0625C58.2941 19.6609 59.2581 19.6609 59.8533 19.0657C59.8533 20.2561 60.8221 21.2233 62.0141 21.2233L59.6421 26.9505" stroke="#335C5F" stroke-width="1.5" stroke-miterlimit="10" stroke-linecap="round" stroke-linejoin="round"/>
<path id="Vector_11" d="M58.7773 8V10.8328" stroke="#335C5F" stroke-width="1.5" stroke-miterlimit="10" stroke-linecap="round" stroke-linejoin="round"/>
<path id="Vector_12" d="M45.5527 21.2217H48.3855" stroke="#335C5F" stroke-width="1.5" stroke-miterlimit="10" stroke-linecap="round" stroke-linejoin="round"/>
<path id="Vector_13" d="M72.0001 21.2217H69.1641" stroke="#335C5F" stroke-width="1.5" stroke-miterlimit="10" stroke-linecap="round" stroke-linejoin="round"/>
<path id="Vector_14" d="M68.1251 11.8721L66.1211 13.8761" stroke="#335C5F" stroke-width="1.5" stroke-miterlimit="10" stroke-linecap="round" stroke-linejoin="round"/>
<path id="Vector_15" d="M49.4287 11.8735L51.4319 13.8759" stroke="#335C5F" stroke-width="1.5" stroke-miterlimit="10" stroke-linecap="round" stroke-linejoin="round"/>
<path id="Vector_16" d="M49.4287 30.5688L51.4319 28.5664" stroke="#335C5F" stroke-width="1.5" stroke-miterlimit="10" stroke-linecap="round" stroke-linejoin="round"/>
<path id="Vector_17" d="M68.1251 30.5689L66.1211 28.5657" stroke="#335C5F" stroke-width="1.5" stroke-miterlimit="10" stroke-linecap="round" stroke-linejoin="round"/>
<path id="Vector_18" d="M53.7168 9.00879L55.8856 14.2424" stroke="#335C5F" stroke-width="1.5" stroke-miterlimit="10" stroke-linecap="round" stroke-linejoin="round"/>
<path id="Vector_19" d="M70.992 16.1631L65.7568 18.3311" stroke="#335C5F" stroke-width="1.5" stroke-miterlimit="10" stroke-linecap="round" stroke-linejoin="round"/>
<path id="Vector_20" d="M46.5605 26.2807L51.7957 24.1111" stroke="#335C5F" stroke-width="1.5" stroke-miterlimit="10" stroke-linecap="round" stroke-linejoin="round"/>
<path id="Vector_21" d="M70.9923 26.2808L65.7539 24.1128" stroke="#335C5F" stroke-width="1.5" stroke-miterlimit="10" stroke-linecap="round" stroke-linejoin="round"/>
<path id="Vector_22" d="M46.5605 16.1631L51.7957 18.3311" stroke="#335C5F" stroke-width="1.5" stroke-miterlimit="10" stroke-linecap="round" stroke-linejoin="round"/>
<path id="Vector_23" d="M63.8336 9.00879L61.668 14.2424" stroke="#335C5F" stroke-width="1.5" stroke-miterlimit="10" stroke-linecap="round" stroke-linejoin="round"/>
<path id="Vector_24" d="M17.1412 54.2832C17.1412 54.9128 16.626 55.4272 15.9972 55.4272C15.3692 55.4272 14.8564 54.9128 14.8564 54.2832V49.712C14.8564 49.0832 15.3692 48.5688 15.9972 48.5688C16.626 48.5688 17.1412 49.0832 17.1412 49.712V54.2832Z" fill="#E9EAEF" stroke="#335C5F" stroke-width="1.5" stroke-miterlimit="10" stroke-linecap="round" stroke-linejoin="round"/>
<path id="Vector_25" d="M15.998 43.9983V48.5695" stroke="#335C5F" stroke-width="1.5" stroke-miterlimit="10" stroke-linecap="round" stroke-linejoin="round"/>
<path id="Vector_26" d="M15.998 55.4272V57.7112" stroke="#335C5F" stroke-width="1.5" stroke-miterlimit="10" stroke-linecap="round" stroke-linejoin="round"/>
<path id="Vector_27" d="M58.774 39.5696V66C58.774 69.3152 56.0868 72 52.774 72H33.998C30.6852 72 27.998 69.3136 27.998 66V65.9968C27.998 62.6848 30.6852 59.9976 33.998 59.9976L45.998 59.9992C49.3148 59.9992 51.9988 57.3136 51.9988 54.0008C52.002 50.6888 49.3148 48.0024 46.0012 48.0024L33.998 47.9976C30.6852 47.9976 27.998 45.312 27.998 41.9968C27.998 38.6848 30.6852 35.9984 33.998 35.9984L35.9996 35.9992M35.9996 35.9992C39.3132 35.9992 41.9996 33.3136 41.9996 29.9992M35.9996 35.9992C39.3124 35.9992 41.9996 33.3136 41.9996 29.9992M41.9996 29.9992V14M41.9996 14C41.9996 10.6864 39.3124 8 35.9996 8M41.9996 14C41.9996 10.6864 39.3132 8 35.9996 8M35.9996 8H21.998C18.6852 8 15.998 10.6864 15.998 14V43.9984" stroke="#335C5F" stroke-width="1.5" stroke-miterlimit="10" stroke-linecap="round" stroke-linejoin="round"/>
<path id="Vector_28" d="M23.9994 51.9967C23.9994 47.5791 20.4162 43.9983 15.9986 43.9983C11.581 43.9983 8.00098 47.5791 8.00098 51.9967V51.9983V63.9967C8.00098 68.4159 11.5842 71.9967 15.9986 71.9967C20.417 71.9967 23.9978 68.4159 23.9994 63.9967V51.9983V51.9967Z" stroke="#335C5F" stroke-width="1.5" stroke-miterlimit="10" stroke-linecap="round" stroke-linejoin="round"/>
<path id="Vector_29" d="M55.6467 31.9081C55.6467 29.9737 54.9107 28.0393 53.4339 26.5649C52.0667 25.1977 51.2227 23.3105 51.2227 21.2233C51.2227 17.0489 54.6043 13.6665 58.7771 13.6665C62.9491 13.6665 66.3299 17.0489 66.3299 21.2233C66.3299 23.3097 65.4859 25.1969 64.1171 26.5649C62.6419 28.0393 61.9043 29.9737 61.9043 31.9081H55.6467Z" stroke="#335C5F" stroke-width="1.5" stroke-miterlimit="10" stroke-linecap="round" stroke-linejoin="round"/>
<path id="Vector_30" d="M55.6465 31.908V37.952L56.7257 39.5688H60.8273L61.9057 37.952V31.908H55.6465Z" stroke="#335C5F" stroke-width="1.5" stroke-miterlimit="10" stroke-linecap="round" stroke-linejoin="round"/>
</g>
</svg>
