<svg width="80" height="80" viewBox="0 0 80 80" fill="none" xmlns="http://www.w3.org/2000/svg">
<g id="coding, code">
<path id="Vector" d="M43.9968 57.9984C43.9968 50.268 50.2648 43.9984 57.9992 43.9984C60.1496 43.9984 62.1808 44.4984 63.9992 45.364V14.5896H26.1128H26.116L24.8368 12.032C24.6352 11.6264 24.0976 11.2944 23.6464 11.2944H15.4112C14.9568 11.2944 14.4216 11.6264 14.2208 12.032L12.9384 14.5896H12.944H8V64H45.364C44.4968 62.18 43.9968 60.1504 43.9968 57.9984Z" fill="#E9EAEF" stroke="#335C5F" stroke-width="1.5" stroke-miterlimit="10" stroke-linecap="round" stroke-linejoin="round"/>
<path id="Vector_2" d="M60.9995 14.5896V41.2704C60.0259 41.0952 59.0243 40.9984 57.9995 40.9984C48.6235 40.9984 40.9971 48.6248 40.9971 57.9984C40.9971 60.1112 41.3875 62.1328 42.0955 64H45.3643C44.4971 62.18 43.9971 60.1496 43.9971 57.9984C43.9971 50.268 50.2651 43.9984 57.9995 43.9984C59.0307 43.9984 60.0339 44.1168 60.9995 44.3328C61.7699 44.5032 62.5163 44.7392 63.2339 45.028C63.2499 45.036 63.2667 45.0408 63.2827 45.048C63.5251 45.1464 63.7643 45.2528 63.9995 45.364V14.5896H60.9995Z" fill="#CACCD1"/>
<path id="Vector_3" d="M72.0003 57.9984C72.0003 65.7312 65.7307 72 57.9995 72C50.2651 72 43.9971 65.7312 43.9971 57.9984C43.9971 50.268 50.2651 43.9984 57.9995 43.9984C65.7307 43.9984 72.0003 50.268 72.0003 57.9984Z" fill="#75C6A4" stroke="#335C5F" stroke-width="1.5" stroke-miterlimit="10" stroke-linecap="round" stroke-linejoin="round"/>
<path id="Vector_4" d="M57.999 43.9984C57.3174 43.9984 56.6534 44.064 55.999 44.1576C62.7806 45.1312 67.9998 50.9472 67.9998 57.9984C67.9998 65.0496 62.7806 70.868 55.999 71.8416C56.6534 71.9352 57.3174 72 57.999 72C65.7302 72 71.9998 65.7312 71.9998 57.9984C71.9998 50.268 65.7302 43.9984 57.999 43.9984Z" fill="#65AD90"/>
<path id="Vector_5" d="M8 8V14.5896H12.9384L14.2208 12.032C14.4216 11.6264 14.9568 11.2944 15.4112 11.2944H23.6464C24.0976 11.2944 24.6352 11.6264 24.8368 12.032L26.116 14.5896H63.9992V8H8Z" fill="#46C6F1" stroke="#335C5F" stroke-width="1.5" stroke-miterlimit="10" stroke-linecap="round" stroke-linejoin="round"/>
<path id="Vector_6" d="M63.9996 8H60.998V14.5896H63.9996V8Z" fill="#3EAED3"/>
<path id="Vector_7" d="M12.9384 19.5304H8V24.472H12.9384V19.5304Z" fill="#D7DAE7" stroke="#335C5F" stroke-width="1.5" stroke-miterlimit="10" stroke-linecap="round" stroke-linejoin="round"/>
<path id="Vector_8" d="M22.8226 20.7664H16.2354V23.2352H22.8226V20.7664Z" fill="#FADF7E" stroke="#335C5F" stroke-width="1.5" stroke-miterlimit="10" stroke-linecap="round" stroke-linejoin="round"/>
<path id="Vector_9" d="M39.2938 20.7664H26.1162V23.2352H39.2938V20.7664Z" fill="#FADF7E" stroke="#335C5F" stroke-width="1.5" stroke-miterlimit="10" stroke-linecap="round" stroke-linejoin="round"/>
<path id="Vector_10" d="M39.2935 25.7064H22.8223V28.1776H39.2935V25.7064Z" fill="#FADF7E" stroke="#335C5F" stroke-width="1.5" stroke-miterlimit="10" stroke-linecap="round" stroke-linejoin="round"/>
<path id="Vector_11" d="M52.4693 25.7064H42.5869V28.1776H52.4693V25.7064Z" fill="#FADF7E" stroke="#335C5F" stroke-width="1.5" stroke-miterlimit="10" stroke-linecap="round" stroke-linejoin="round"/>
<path id="Vector_12" d="M26.1159 30.6472H22.8223V33.1192H26.1159V30.6472Z" fill="#FADF7E" stroke="#335C5F" stroke-width="1.5" stroke-miterlimit="10" stroke-linecap="round" stroke-linejoin="round"/>
<path id="Vector_13" d="M45.8803 30.6472H29.4131V33.1192H45.8803V30.6472Z" fill="#FADF7E" stroke="#335C5F" stroke-width="1.5" stroke-miterlimit="10" stroke-linecap="round" stroke-linejoin="round"/>
<path id="Vector_14" d="M59.0577 30.6472H49.1777V33.1192H59.0577V30.6472Z" fill="#FADF7E" stroke="#335C5F" stroke-width="1.5" stroke-miterlimit="10" stroke-linecap="round" stroke-linejoin="round"/>
<path id="Vector_15" d="M35.9975 35.5887H22.8223V38.0599H35.9975V35.5887Z" fill="#FADF7E" stroke="#335C5F" stroke-width="1.5" stroke-miterlimit="10" stroke-linecap="round" stroke-linejoin="round"/>
<path id="Vector_16" d="M55.7635 35.5887H39.2939V38.0599H55.7635V35.5887Z" fill="#FADF7E" stroke="#335C5F" stroke-width="1.5" stroke-miterlimit="10" stroke-linecap="round" stroke-linejoin="round"/>
<path id="Vector_17" d="M19.529 40.5295H16.2354V43.0015H19.529V40.5295Z" fill="#FADF7E" stroke="#335C5F" stroke-width="1.5" stroke-miterlimit="10" stroke-linecap="round" stroke-linejoin="round"/>
<path id="Vector_18" d="M39.2935 40.5295H22.8223V43.0015H39.2935V40.5295Z" fill="#FADF7E" stroke="#335C5F" stroke-width="1.5" stroke-miterlimit="10" stroke-linecap="round" stroke-linejoin="round"/>
<path id="Vector_19" d="M45.8789 40.5295H42.5869V43.0015H45.8789V40.5295Z" fill="#FADF7E" stroke="#335C5F" stroke-width="1.5" stroke-miterlimit="10" stroke-linecap="round" stroke-linejoin="round"/>
<path id="Vector_20" d="M12.9384 24.472H8V29.412H12.9384V24.472Z" fill="#D7DAE7" stroke="#335C5F" stroke-width="1.5" stroke-miterlimit="10" stroke-linecap="round" stroke-linejoin="round"/>
<path id="Vector_21" d="M12.9384 29.412H8V34.3544H12.9384V29.412Z" fill="#D7DAE7" stroke="#335C5F" stroke-width="1.5" stroke-miterlimit="10" stroke-linecap="round" stroke-linejoin="round"/>
<path id="Vector_22" d="M12.9384 34.3544H8V39.296H12.9384V34.3544Z" fill="#D7DAE7" stroke="#335C5F" stroke-width="1.5" stroke-miterlimit="10" stroke-linecap="round" stroke-linejoin="round"/>
<path id="Vector_23" d="M12.9384 39.296H8V44.2376H12.9384V39.296Z" fill="#D7DAE7" stroke="#335C5F" stroke-width="1.5" stroke-miterlimit="10" stroke-linecap="round" stroke-linejoin="round"/>
<path id="Vector_24" d="M12.9384 44.2375H8V49.1791H12.9384V44.2375Z" fill="#D7DAE7" stroke="#335C5F" stroke-width="1.5" stroke-miterlimit="10" stroke-linecap="round" stroke-linejoin="round"/>
<path id="Vector_25" d="M12.9384 49.1792H8V54.1192H12.9384V49.1792Z" fill="#D7DAE7" stroke="#335C5F" stroke-width="1.5" stroke-miterlimit="10" stroke-linecap="round" stroke-linejoin="round"/>
<path id="Vector_26" d="M12.9384 54.1184H8V59.0592H12.9384V54.1184Z" fill="#D7DAE7" stroke="#335C5F" stroke-width="1.5" stroke-miterlimit="10" stroke-linecap="round" stroke-linejoin="round"/>
<path id="Vector_27" d="M12.9384 59.0592H8V64H12.9384V59.0592Z" fill="#D7DAE7" stroke="#335C5F" stroke-width="1.5" stroke-miterlimit="10" stroke-linecap="round" stroke-linejoin="round"/>
<path id="Vector_28" d="M59.6134 51.5376L56.3838 64.4608" stroke="#335C5F" stroke-width="1.5" stroke-miterlimit="10" stroke-linecap="round" stroke-linejoin="round"/>
<path id="Vector_29" d="M62.8447 61.2296L66.0775 57.9968L62.8447 54.7704L66.0775 57.9968L62.8447 61.2296Z" stroke="#335C5F" stroke-width="1.5" stroke-miterlimit="10" stroke-linecap="round" stroke-linejoin="round"/>
<path id="Vector_30" d="M53.1534 54.7704L49.9238 57.9984L53.1534 61.2296L49.9238 57.9984L53.1534 54.7704Z" stroke="#335C5F" stroke-width="1.5" stroke-miterlimit="10" stroke-linecap="round" stroke-linejoin="round"/>
<path id="Vector_31" d="M44.2559 55.3528H22.8223V57.8232H44.0063C44.0167 56.9816 44.1015 56.1544 44.2559 55.3528Z" fill="#FADF7E" stroke="#335C5F" stroke-width="1.5" stroke-miterlimit="10" stroke-linecap="round" stroke-linejoin="round"/>
<path id="Vector_32" d="M22.8219 50.4136H19.5283V52.8848H22.8219V50.4136Z" fill="#FADF7E" stroke="#335C5F" stroke-width="1.5" stroke-miterlimit="10" stroke-linecap="round" stroke-linejoin="round"/>
<path id="Vector_33" d="M26.1182 50.4136V52.8848H44.975C45.3174 52.0144 45.7422 51.188 46.2438 50.4136H26.1182Z" fill="#FADF7E" stroke="#335C5F" stroke-width="1.5" stroke-miterlimit="10" stroke-linecap="round" stroke-linejoin="round"/>
<path id="Vector_34" d="M51.7755 45.472H19.5283V47.9424H48.2715C49.3003 46.9488 50.4803 46.1168 51.7755 45.472Z" fill="#FADF7E" stroke="#335C5F" stroke-width="1.5" stroke-miterlimit="10" stroke-linecap="round" stroke-linejoin="round"/>
<path id="Vector_35" d="M44.3018 47.9424H48.2722C49.301 46.9488 50.481 46.1176 51.7762 45.472H46.5194C45.7034 46.22 44.9594 47.0488 44.3018 47.9424Z" fill="#D8C26F"/>
<path id="Vector_36" d="M44.2564 55.3528H41.2052C41.0788 56.1592 41.0116 56.984 41.002 57.8232H44.0068C44.0172 56.9816 44.102 56.1544 44.2564 55.3528Z" fill="#D8C26F"/>
<path id="Vector_37" d="M42.7906 50.4136C42.3938 51.2032 42.0562 52.0288 41.7842 52.8848H44.9746C45.317 52.0144 45.7418 51.188 46.2434 50.4136H42.7906Z" fill="#D8C26F"/>
<path id="Vector_38" d="M36.0762 12.0328C35.8722 11.6272 35.3346 11.2952 34.8826 11.2952H31.8818C32.333 11.2952 32.8706 11.6272 33.0746 12.0328L34.3514 14.5904H37.3522L36.0762 12.0328Z" fill="#3EAED3"/>
<path id="Vector_39" d="M33.0753 12.0328C32.8713 11.6272 32.3337 11.2952 31.8825 11.2952H23.6465C24.0977 11.2952 24.6353 11.6272 24.8369 12.0328L26.1161 14.5904H27.7529H34.3513L33.0753 12.0328Z" fill="#70929F" stroke="#335C5F" stroke-width="1.5" stroke-miterlimit="10" stroke-linecap="round" stroke-linejoin="round"/>
<path id="Vector_40" d="M26.6475 11.2952H23.6475C24.0987 11.2952 24.6363 11.6272 24.8379 12.0328L26.1171 14.5904H27.7539H29.1179L27.8387 12.0328C27.6371 11.6272 27.0995 11.2952 26.6475 11.2952Z" fill="#62818C"/>
<path id="Vector_41" d="M43.9968 57.9984C43.9968 50.268 50.2648 43.9984 57.9992 43.9984C60.1496 43.9984 62.1808 44.4984 63.9992 45.364V14.5896H26.1128H26.116L24.8368 12.032C24.6352 11.6264 24.0976 11.2944 23.6464 11.2944H15.4112C14.9568 11.2944 14.4216 11.6264 14.2208 12.032L12.9384 14.5896H12.944H8V64H45.364C44.4968 62.18 43.9968 60.1504 43.9968 57.9984Z" stroke="#335C5F" stroke-width="1.5" stroke-miterlimit="10" stroke-linecap="round" stroke-linejoin="round"/>
<path id="Vector_42" d="M33.0753 12.0328C32.8713 11.6272 32.3337 11.2952 31.8825 11.2952H23.6465C24.0977 11.2952 24.6353 11.6272 24.8369 12.0328L26.1161 14.5904H27.7529H34.3513L33.0753 12.0328Z" stroke="#335C5F" stroke-width="1.5" stroke-miterlimit="10" stroke-linecap="round" stroke-linejoin="round"/>
<path id="Vector_43" d="M44.2559 55.3528H22.8223V57.8232H44.0063C44.0167 56.9816 44.1015 56.1544 44.2559 55.3528Z" stroke="#335C5F" stroke-width="1.5" stroke-miterlimit="10" stroke-linecap="round" stroke-linejoin="round"/>
<path id="Vector_44" d="M26.1182 50.4136V52.8848H44.975C45.3174 52.0144 45.7422 51.188 46.2438 50.4136H26.1182Z" stroke="#335C5F" stroke-width="1.5" stroke-miterlimit="10" stroke-linecap="round" stroke-linejoin="round"/>
<path id="Vector_45" d="M51.7755 45.472H19.5283V47.9424H48.2715C49.3003 46.9488 50.4803 46.1168 51.7755 45.472Z" stroke="#335C5F" stroke-width="1.5" stroke-miterlimit="10" stroke-linecap="round" stroke-linejoin="round"/>
<path id="Vector_46" d="M72.0003 57.9984C72.0003 65.7312 65.7307 72 57.9995 72C50.2651 72 43.9971 65.7312 43.9971 57.9984C43.9971 50.268 50.2651 43.9984 57.9995 43.9984C65.7307 43.9984 72.0003 50.268 72.0003 57.9984Z" stroke="#335C5F" stroke-width="1.5" stroke-miterlimit="10" stroke-linecap="round" stroke-linejoin="round"/>
<path id="Vector_47" d="M22.8223 20.7664H20.8223V23.2352H22.8223V20.7664Z" fill="#D8C26F"/>
<path id="Vector_48" d="M39.2931 20.7664H37.2939V23.2352H39.2931V20.7664Z" fill="#D8C26F"/>
<path id="Vector_49" d="M39.2931 25.7064H37.2939V28.176H39.2931V25.7064Z" fill="#D8C26F"/>
<path id="Vector_50" d="M52.4697 25.7064H50.4697V28.176H52.4697V25.7064Z" fill="#D8C26F"/>
<path id="Vector_51" d="M26.1162 30.6472H24.1162V33.1168H26.1162V30.6472Z" fill="#D8C26F"/>
<path id="Vector_52" d="M45.8799 30.6472H43.8799V33.1168H45.8799V30.6472Z" fill="#D8C26F"/>
<path id="Vector_53" d="M59.0566 30.6472H57.0566V33.1168H59.0566V30.6472Z" fill="#D8C26F"/>
<path id="Vector_54" d="M35.9971 35.5887H33.9971V38.0583H35.9971V35.5887Z" fill="#D8C26F"/>
<path id="Vector_55" d="M55.7637 35.5887H53.7637V38.0583H55.7637V35.5887Z" fill="#D8C26F"/>
<path id="Vector_56" d="M19.5285 40.5295H17.5293V42.9999H19.5285V40.5295Z" fill="#D8C26F"/>
<path id="Vector_57" d="M39.2931 40.5295H37.2939V42.9999H39.2931V40.5295Z" fill="#D8C26F"/>
<path id="Vector_58" d="M45.8799 40.5295H43.8799V42.9999H45.8799V40.5295Z" fill="#D8C26F"/>
<path id="Vector_59" d="M22.8223 50.4136H20.8223V52.8832H22.8223V50.4136Z" fill="#D8C26F"/>
<path id="Vector_60" d="M22.8226 20.7664H16.2354V23.2352H22.8226V20.7664Z" stroke="#335C5F" stroke-width="1.5" stroke-miterlimit="10" stroke-linecap="round" stroke-linejoin="round"/>
<path id="Vector_61" d="M39.2938 20.7664H26.1162V23.2352H39.2938V20.7664Z" stroke="#335C5F" stroke-width="1.5" stroke-miterlimit="10" stroke-linecap="round" stroke-linejoin="round"/>
<path id="Vector_62" d="M39.2935 25.7064H22.8223V28.1776H39.2935V25.7064Z" stroke="#335C5F" stroke-width="1.5" stroke-miterlimit="10" stroke-linecap="round" stroke-linejoin="round"/>
<path id="Vector_63" d="M52.4693 25.7064H42.5869V28.1776H52.4693V25.7064Z" stroke="#335C5F" stroke-width="1.5" stroke-miterlimit="10" stroke-linecap="round" stroke-linejoin="round"/>
<path id="Vector_64" d="M26.1159 30.6472H22.8223V33.1192H26.1159V30.6472Z" stroke="#335C5F" stroke-width="1.5" stroke-miterlimit="10" stroke-linecap="round" stroke-linejoin="round"/>
<path id="Vector_65" d="M59.0577 30.6472H49.1777V33.1192H59.0577V30.6472Z" stroke="#335C5F" stroke-width="1.5" stroke-miterlimit="10" stroke-linecap="round" stroke-linejoin="round"/>
<path id="Vector_66" d="M35.9975 35.5887H22.8223V38.0599H35.9975V35.5887Z" stroke="#335C5F" stroke-width="1.5" stroke-miterlimit="10" stroke-linecap="round" stroke-linejoin="round"/>
<path id="Vector_67" d="M55.7635 35.5887H39.2939V38.0599H55.7635V35.5887Z" stroke="#335C5F" stroke-width="1.5" stroke-miterlimit="10" stroke-linecap="round" stroke-linejoin="round"/>
<path id="Vector_68" d="M19.529 40.5295H16.2354V43.0015H19.529V40.5295Z" stroke="#335C5F" stroke-width="1.5" stroke-miterlimit="10" stroke-linecap="round" stroke-linejoin="round"/>
<path id="Vector_69" d="M39.2935 40.5295H22.8223V43.0015H39.2935V40.5295Z" stroke="#335C5F" stroke-width="1.5" stroke-miterlimit="10" stroke-linecap="round" stroke-linejoin="round"/>
<path id="Vector_70" d="M45.8789 40.5295H42.5869V43.0015H45.8789V40.5295Z" stroke="#335C5F" stroke-width="1.5" stroke-miterlimit="10" stroke-linecap="round" stroke-linejoin="round"/>
<path id="Vector_71" d="M22.8219 50.4136H19.5283V52.8848H22.8219V50.4136Z" stroke="#335C5F" stroke-width="1.5" stroke-miterlimit="10" stroke-linecap="round" stroke-linejoin="round"/>
<path id="Vector_72" d="M45.8803 30.6472H29.4131V33.1192H45.8803V30.6472Z" stroke="#335C5F" stroke-width="1.5" stroke-miterlimit="10" stroke-linecap="round" stroke-linejoin="round"/>
<path id="Vector_73" d="M61.9405 10.0592H59.4717V12.532H61.9405V10.0592Z" fill="#FADF7E" stroke="#335C5F" stroke-width="1.5" stroke-miterlimit="10" stroke-linecap="round" stroke-linejoin="round"/>
<path id="Vector_74" d="M57.8223 10.0592H55.3535V12.532H57.8223V10.0592Z" fill="#FADF7E" stroke="#335C5F" stroke-width="1.5" stroke-miterlimit="10" stroke-linecap="round" stroke-linejoin="round"/>
<path id="Vector_75" d="M53.7058 10.0592H51.2354V12.532H53.7058V10.0592Z" fill="#FADF7E" stroke="#335C5F" stroke-width="1.5" stroke-miterlimit="10" stroke-linecap="round" stroke-linejoin="round"/>
<path id="Vector_76" d="M8 8V14.5896H12.9384L14.2208 12.032C14.4216 11.6264 14.9568 11.2944 15.4112 11.2944H23.6464C24.0976 11.2944 24.6352 11.6264 24.8368 12.032L26.116 14.5896H63.9992V8H8Z" stroke="#335C5F" stroke-width="1.5" stroke-miterlimit="10" stroke-linecap="round" stroke-linejoin="round"/>
</g>
</svg>
