<svg width="80" height="80" viewBox="0 0 80 80" fill="none" xmlns="http://www.w3.org/2000/svg">
<g id="laptop, tablet, monitor, smartphone, devices">
<path id="Vector" d="M59.5572 8H41.7788C40.8004 8 40.002 8.7992 40.002 9.7792V21.3328H46.6684C48.8732 21.3328 50.6676 23.1256 50.6676 25.3328V36.4448H59.5572C60.5356 36.4448 61.334 35.6432 61.334 34.6656V9.7792C61.334 8.7992 60.5356 8 59.5572 8Z" fill="#46C6F1" stroke="#335C5F" stroke-width="1.5" stroke-miterlimit="10" stroke-linecap="round" stroke-linejoin="round"/>
<path id="Vector_2" d="M59.5572 8H56.7324C57.7108 8 58.5092 8.7992 58.5092 9.7792V34.6656C58.5092 35.6432 57.7108 36.4448 56.7324 36.4448H59.5572C60.5356 36.4448 61.334 35.6432 61.334 34.6656V9.7792C61.334 8.7992 60.5356 8 59.5572 8Z" fill="#3EAED3"/>
<path id="Vector_3" d="M72.0007 64C72.0007 64.9784 71.2015 65.7776 70.2239 65.7776H31.1127C30.1351 65.7776 29.3359 64.9784 29.3359 64V63.9976C29.3359 63.0224 30.1351 62.2208 31.1127 62.2208H70.2247C71.2023 62.2208 72.0015 63.0224 72.0015 63.9976L72.0007 64Z" fill="#70929F" stroke="#335C5F" stroke-width="1.5" stroke-miterlimit="10" stroke-linecap="round" stroke-linejoin="round"/>
<path id="Vector_4" d="M70.2236 62.2208H67.4004C68.378 62.2208 69.1772 63.0224 69.1772 63.9976V64C69.1772 64.9784 68.378 65.7776 67.4004 65.7776H70.2236C71.2012 65.7776 72.0004 64.9784 72.0004 64V63.9976C72.0004 63.0224 71.2012 62.2208 70.2236 62.2208Z" fill="#62818C"/>
<path id="Vector_5" d="M68.4458 60.444C68.4458 61.42 67.6442 62.2216 66.6666 62.2216H34.6674C33.689 62.2216 32.8906 61.42 32.8906 60.444V40.8856C32.8906 39.9072 33.6898 39.1088 34.6674 39.1088H66.6666C67.6442 39.1088 68.4458 39.908 68.4458 40.8856V60.444Z" fill="#E9EAEF" stroke="#335C5F" stroke-width="1.5" stroke-miterlimit="10" stroke-linecap="round" stroke-linejoin="round"/>
<path id="Vector_6" d="M66.6669 39.1088H63.8438C64.8214 39.1088 65.6229 39.908 65.6229 40.8856V60.4432C65.6229 61.4192 64.8214 62.2208 63.8438 62.2208H66.6669C67.6445 62.2208 68.4461 61.4192 68.4461 60.4432V40.8856C68.4461 39.908 67.6445 39.1088 66.6669 39.1088Z" fill="#CACCD1"/>
<path id="Vector_7" d="M65.7782 41.776H35.5566V59.5552H65.7782V41.776Z" fill="#46C6F1" stroke="#335C5F" stroke-width="1.5" stroke-miterlimit="10" stroke-linecap="round" stroke-linejoin="round"/>
<path id="Vector_8" d="M65.7783 41.776H62.9551V59.5552H65.7783V41.776Z" fill="#3EAED3"/>
<path id="Vector_9" d="M25.7797 70.2231C25.7797 71.2007 24.9805 71.9999 24.0029 71.9999H16.8901C15.9117 71.9999 15.1133 71.2007 15.1133 70.2231V56.0007C15.1133 55.0223 15.9125 54.2231 16.8901 54.2231H24.0029C24.9805 54.2231 25.7797 55.0223 25.7797 56.0007V70.2231Z" fill="#46C6F1" stroke="#335C5F" stroke-width="1.5" stroke-miterlimit="10" stroke-linecap="round" stroke-linejoin="round"/>
<path id="Vector_10" d="M24.0009 54.2231H21.1777C22.1553 54.2231 22.9545 55.0223 22.9545 56.0007V70.2231C22.9545 71.2007 22.1553 71.9999 21.1777 71.9999H24.0009C24.9785 71.9999 25.7777 71.2007 25.7777 70.2231V56.0007C25.7785 55.0223 24.9793 54.2231 24.0009 54.2231Z" fill="#3EAED3"/>
<path id="Vector_11" d="M25.7797 57.7807V56.0007C25.7797 55.0223 24.9805 54.2231 24.0029 54.2231H16.8901C15.9117 54.2231 15.1133 55.0223 15.1133 56.0007V57.7807H25.7797Z" fill="#E9EAEF" stroke="#335C5F" stroke-width="1.5" stroke-miterlimit="10" stroke-linecap="round" stroke-linejoin="round"/>
<path id="Vector_12" d="M15.1133 68.444V70.224C15.1133 71.2016 15.9125 72.0008 16.8901 72.0008H24.0029C24.9805 72.0008 25.7797 71.2016 25.7797 70.224V68.444H15.1133Z" fill="#E9EAEF" stroke="#335C5F" stroke-width="1.5" stroke-miterlimit="10" stroke-linecap="round" stroke-linejoin="round"/>
<path id="Vector_13" d="M24.0009 54.2231H21.1777C22.1553 54.2231 22.9545 55.0223 22.9545 56.0007V57.7807H25.7777V56.0007C25.7785 55.0223 24.9793 54.2231 24.0009 54.2231Z" fill="#CACCD1"/>
<path id="Vector_14" d="M22.9545 68.444V70.224C22.9545 71.2016 22.1553 72.0008 21.1777 72.0008H24.0009C24.9785 72.0008 25.7777 71.2016 25.7777 70.224V68.444H22.9545Z" fill="#CACCD1"/>
<path id="Vector_15" d="M50.668 32.8888V36.4448H59.5576C60.536 36.4448 61.3344 35.6432 61.3344 34.6656V32.8888H50.668Z" fill="#E9EAEF" stroke="#335C5F" stroke-width="1.5" stroke-miterlimit="10" stroke-linecap="round" stroke-linejoin="round"/>
<path id="Vector_16" d="M58.5092 32.8888V34.6656C58.5092 35.6432 57.7108 36.4448 56.7324 36.4448H59.5572C60.5356 36.4448 61.334 35.6432 61.334 34.6656V32.8888H58.5092Z" fill="#CACCD1"/>
<path id="Vector_17" d="M32.8908 58.6672V50.6672H23.9988C23.9988 51.8944 23.8436 53.0832 23.5684 54.2232H24.002C24.9796 54.2232 25.7788 55.0224 25.7788 56.0008V58.6672H32.8908Z" fill="#70929F" stroke="#335C5F" stroke-width="1.5" stroke-miterlimit="10" stroke-linecap="round" stroke-linejoin="round"/>
<path id="Vector_18" d="M32.8922 50.6672H31.0098V58.6672H32.8922V50.6672Z" fill="#62818C"/>
<path id="Vector_19" d="M24.0012 52.3416H23.9004C23.8268 52.9816 23.7164 53.6096 23.5684 54.224H24.002C24.9796 54.224 25.7788 55.0232 25.7788 56.0016V58.668H27.662V56.0016C27.662 53.9832 26.0196 52.3416 24.0012 52.3416Z" fill="#62818C"/>
<path id="Vector_20" d="M32.8912 46.6648H8C8 48.8752 9.7952 50.6672 12 50.6672H32.8912V46.6648Z" fill="#E9EAEF" stroke="#335C5F" stroke-width="1.5" stroke-miterlimit="10" stroke-linecap="round" stroke-linejoin="round"/>
<path id="Vector_21" d="M32.8922 46.6648H31.0098V50.6672H32.8922V46.6648Z" fill="#CACCD1"/>
<path id="Vector_22" d="M46.6684 19.4504H40.002V21.3328H46.6684C48.8732 21.3328 50.6676 23.1256 50.6676 25.3328V36.4448H52.55V25.3328C52.55 22.0888 49.9124 19.4504 46.6684 19.4504Z" fill="#3EAED3"/>
<path id="Vector_23" d="M52.5504 32.8888H50.668V36.4448H52.5504V32.8888Z" fill="#CACCD1"/>
<path id="Vector_24" d="M32.8912 40.8856C32.8912 39.9072 33.6904 39.1088 34.668 39.1088H50.6672V25.3328C50.6672 23.1256 48.8728 21.3328 46.668 21.3328H12C9.7952 21.3328 8 23.1256 8 25.3328V46.6648H32.8912V40.8856Z" fill="#46C6F1" stroke="#335C5F" stroke-width="1.5" stroke-miterlimit="10" stroke-linecap="round" stroke-linejoin="round"/>
<path id="Vector_25" d="M34.669 37.2264C32.6522 37.2264 31.0098 38.868 31.0098 40.8856V46.6648H32.8922V40.8856C32.8922 39.9072 33.6914 39.1088 34.669 39.1088H50.6682V37.2264H34.669Z" fill="#3EAED3"/>
<path id="Vector_26" d="M59.5572 8H41.7788C40.8004 8 40.002 8.7992 40.002 9.7792V21.3328H46.6684C48.8732 21.3328 50.6676 23.1256 50.6676 25.3328V36.4448H59.5572C60.5356 36.4448 61.334 35.6432 61.334 34.6656V9.7792C61.334 8.7992 60.5356 8 59.5572 8Z" stroke="#335C5F" stroke-width="1.5" stroke-miterlimit="10" stroke-linecap="round" stroke-linejoin="round"/>
<path id="Vector_27" d="M72.0007 64C72.0007 64.9784 71.2015 65.7776 70.2239 65.7776H31.1127C30.1351 65.7776 29.3359 64.9784 29.3359 64V63.9976C29.3359 63.0224 30.1351 62.2208 31.1127 62.2208H70.2247C71.2023 62.2208 72.0015 63.0224 72.0015 63.9976L72.0007 64Z" stroke="#335C5F" stroke-width="1.5" stroke-miterlimit="10" stroke-linecap="round" stroke-linejoin="round"/>
<path id="Vector_28" d="M68.4458 60.444C68.4458 61.42 67.6442 62.2216 66.6666 62.2216H34.6674C33.689 62.2216 32.8906 61.42 32.8906 60.444V40.8856C32.8906 39.9072 33.6898 39.1088 34.6674 39.1088H66.6666C67.6442 39.1088 68.4458 39.908 68.4458 40.8856V60.444Z" stroke="#335C5F" stroke-width="1.5" stroke-miterlimit="10" stroke-linecap="round" stroke-linejoin="round"/>
<path id="Vector_29" d="M65.7782 41.776H35.5566V59.5552H65.7782V41.776Z" stroke="#335C5F" stroke-width="1.5" stroke-miterlimit="10" stroke-linecap="round" stroke-linejoin="round"/>
<path id="Vector_30" d="M25.7797 70.2231C25.7797 71.2007 24.9805 71.9999 24.0029 71.9999H16.8901C15.9117 71.9999 15.1133 71.2007 15.1133 70.2231V56.0007C15.1133 55.0223 15.9125 54.2231 16.8901 54.2231H24.0029C24.9805 54.2231 25.7797 55.0223 25.7797 56.0007V70.2231Z" stroke="#335C5F" stroke-width="1.5" stroke-miterlimit="10" stroke-linecap="round" stroke-linejoin="round"/>
<path id="Vector_31" d="M25.7797 57.7807V56.0007C25.7797 55.0223 24.9805 54.2231 24.0029 54.2231H16.8901C15.9117 54.2231 15.1133 55.0223 15.1133 56.0007V57.7807H25.7797Z" stroke="#335C5F" stroke-width="1.5" stroke-miterlimit="10" stroke-linecap="round" stroke-linejoin="round"/>
<path id="Vector_32" d="M15.1133 68.444V70.224C15.1133 71.2016 15.9125 72.0008 16.8901 72.0008H24.0029C24.9805 72.0008 25.7797 71.2016 25.7797 70.224V68.444H15.1133Z" stroke="#335C5F" stroke-width="1.5" stroke-miterlimit="10" stroke-linecap="round" stroke-linejoin="round"/>
<path id="Vector_33" d="M50.668 32.8888V36.4448H59.5576C60.536 36.4448 61.3344 35.6432 61.3344 34.6656V32.8888H50.668Z" stroke="#335C5F" stroke-width="1.5" stroke-miterlimit="10" stroke-linecap="round" stroke-linejoin="round"/>
<path id="Vector_34" d="M32.8908 58.6672V50.6672H23.9988C23.9988 51.8944 23.8436 53.0832 23.5684 54.2232H24.002C24.9796 54.2232 25.7788 55.0224 25.7788 56.0008V58.6672H32.8908Z" stroke="#335C5F" stroke-width="1.5" stroke-miterlimit="10" stroke-linecap="round" stroke-linejoin="round"/>
<path id="Vector_35" d="M32.8912 46.6648H8C8 48.8752 9.7952 50.6672 12 50.6672H32.8912V46.6648Z" stroke="#335C5F" stroke-width="1.5" stroke-miterlimit="10" stroke-linecap="round" stroke-linejoin="round"/>
<path id="Vector_36" d="M32.8912 40.8856C32.8912 39.9072 33.6904 39.1088 34.668 39.1088H50.6672V25.3328C50.6672 23.1256 48.8728 21.3328 46.668 21.3328H12C9.7952 21.3328 8 23.1256 8 25.3328V46.6648H32.8912V40.8856Z" stroke="#335C5F" stroke-width="1.5" stroke-miterlimit="10" stroke-linecap="round" stroke-linejoin="round"/>
</g>
</svg>
