<svg width="442" height="293" viewBox="0 0 442 293" fill="none" xmlns="http://www.w3.org/2000/svg">
<path d="M298.903 72.1767L283.377 63.7971C266.159 54.5044 244.754 54.3899 227.415 63.4958L200.292 77.742L43.7332 160.03C24.4492 170.135 24.4463 195.408 43.7289 205.515L174.081 273.023C207.676 290.633 249.055 290.675 282.694 273.133L423.036 199.828C447.959 186.832 448.405 154.325 423.847 140.769L298.903 72.1767Z" fill="white"/>
<path d="M29.3477 180.834C29.3694 180.558 29.3969 180.283 29.4273 180.006C29.381 180.277 29.3535 180.554 29.3477 180.834Z" fill="#9BA2BD"/>
<path d="M423.035 199.828L282.693 273.133C249.054 290.675 207.675 290.633 174.08 273.023L43.7278 205.515C34.774 200.822 29.9798 192.858 29.3423 184.661L29.3408 187.403C29.335 198.11 35.6244 208.005 45.8358 213.358L167.193 276.151C209.174 298.932 251.251 295.943 288.965 276.276L425.237 205.094C435.557 199.713 441.934 189.74 441.964 178.933L441.987 170.922C441.686 182.227 435.347 193.409 423.035 199.828Z" fill="#9BA2BD"/>
<path d="M335.381 233.92C357.07 233.92 374.652 225.683 374.652 215.521C374.652 205.359 357.07 197.121 335.381 197.121C313.692 197.121 296.11 205.359 296.11 215.521C296.11 225.683 313.692 233.92 335.381 233.92Z" fill="#DDDFE6"/>
<path d="M305.806 185.497V211.235C305.806 211.235 312.328 213.988 316.753 211.692C316.911 210.83 317.747 185.789 317.747 185.789L318.128 205.853C318.128 205.853 324.252 209.692 328.56 205.637C328.652 205.214 328.664 195.437 328.397 187.456C328.384 187.049 339.398 183.272 339.384 182.876C339.216 177.905 327.729 177.241 327.729 177.241C327.729 177.241 325.626 177.095 317.796 176.067C311.472 175.24 305.806 179.693 305.806 185.497Z" fill="#333333"/>
<path d="M308.646 176.522L317.628 181.238C318.107 181.489 318.698 181.49 319.178 181.238L332.596 174.202C332.781 174.104 332.882 173.942 332.904 173.774V174.24C332.904 174.433 332.791 174.611 332.607 174.708L319.179 181.74C318.7 181.992 318.109 181.992 317.629 181.74L308.635 177.026C308.522 176.967 308.452 176.857 308.452 176.738V176.254C308.465 176.361 308.53 176.461 308.646 176.522Z" fill="#585971"/>
<path d="M322.886 167.652L322.96 157.699L322.734 157.578C322.595 157.504 322.423 157.503 322.282 157.576L308.22 164.946C307.929 165.098 307.749 165.38 307.749 165.678V175.265C307.749 175.421 307.84 175.566 307.99 175.645L308.287 175.801L322.4 168.418C322.701 168.259 322.886 167.968 322.886 167.652Z" fill="#585971"/>
<path d="M317.628 181.24L308.646 176.525C308.38 176.385 308.38 176.035 308.646 175.896L322.603 168.577C322.956 168.391 323.394 168.391 323.747 168.577L332.596 173.223C333.011 173.441 333.011 173.986 332.596 174.203L319.178 181.239C318.698 181.492 318.107 181.492 317.628 181.24Z" fill="#EBEDF6"/>
<path d="M323.175 167.786V158.017C323.175 157.74 322.845 157.566 322.58 157.705L308.507 165.08C308.216 165.232 308.036 165.514 308.036 165.819V175.404C308.036 175.762 308.464 175.987 308.805 175.808L322.688 168.551C322.99 168.393 323.175 168.102 323.175 167.786Z" fill="#333333"/>
<path d="M322.871 167.632V158.45C322.871 158.187 322.558 158.024 322.307 158.154L308.73 165.303C308.455 165.448 308.285 165.715 308.285 166.003V175.011C308.285 175.35 308.689 175.562 309.012 175.393L322.408 168.355C322.695 168.207 322.871 167.931 322.871 167.632Z" fill="#FDA601"/>
<path d="M328.118 175.542C327.485 175.208 325.645 174.245 324.917 173.863C324.73 173.766 324.5 173.766 324.313 173.865L318.711 176.82C318.612 176.871 318.612 177 318.711 177.051L321.952 178.764C322.118 178.852 322.325 178.852 322.492 178.764L328.118 175.775C328.216 175.722 328.216 175.595 328.118 175.542Z" fill="#9BA2BD"/>
<path d="M315.532 178.001C315.474 177.964 311.275 175.751 311.235 175.75C311.194 175.75 309.568 176.609 309.568 176.609L313.876 178.879L315.532 178.001Z" fill="#DDDFE6"/>
<path d="M328.218 171.321C328.16 171.285 323.962 169.072 323.921 169.07C323.88 169.069 322.255 169.929 322.255 169.929L326.562 172.199L328.218 171.321Z" fill="#DDDFE6"/>
<path d="M325.692 171.97L326.306 172.294C326.334 172.308 326.334 172.344 326.306 172.358L325.728 172.662C325.715 172.669 325.699 172.669 325.688 172.662L325.073 172.339C325.046 172.324 325.046 172.289 325.073 172.274L325.651 171.97C325.663 171.964 325.679 171.964 325.692 171.97Z" fill="#444444"/>
<path d="M324.953 172.358L325.567 172.682C325.595 172.696 325.595 172.732 325.567 172.746L324.989 173.05C324.976 173.057 324.96 173.057 324.948 173.05L324.334 172.727C324.307 172.712 324.307 172.677 324.334 172.662L324.912 172.358C324.924 172.352 324.94 172.352 324.953 172.358Z" fill="#444444"/>
<path d="M324.269 172.742L324.883 173.066C324.911 173.08 324.911 173.116 324.883 173.13L324.305 173.434C324.292 173.441 324.276 173.441 324.265 173.434L323.651 173.111C323.623 173.096 323.623 173.061 323.651 173.046L324.229 172.742C324.24 172.736 324.256 172.736 324.269 172.742Z" fill="#444444"/>
<path d="M323.534 173.125L324.156 173.453C324.18 173.466 324.18 173.499 324.156 173.512L323.369 173.925C323.358 173.932 323.343 173.932 323.331 173.925L322.71 173.598C322.685 173.584 322.685 173.552 322.71 173.538L323.497 173.125C323.508 173.12 323.523 173.12 323.534 173.125Z" fill="#444444"/>
<path d="M322.619 173.608L323.232 173.93C323.259 173.945 323.259 173.982 323.232 173.996L319.707 175.846C319.694 175.853 319.678 175.853 319.665 175.846L319.052 175.524C319.024 175.509 319.024 175.472 319.052 175.458L322.577 173.608C322.59 173.602 322.606 173.602 322.619 173.608Z" fill="#444444"/>
<path d="M324.111 171.969L324.876 171.568C324.89 171.561 324.905 171.561 324.917 171.568L325.531 171.891C325.559 171.906 325.559 171.941 325.531 171.956L324.766 172.357C324.753 172.364 324.737 172.364 324.726 172.357L324.111 172.033C324.084 172.019 324.084 171.983 324.111 171.969Z" fill="#444444"/>
<path d="M322.355 171.266L323.346 170.748C323.359 170.741 323.375 170.741 323.386 170.748L324 171.072C324.028 171.086 324.028 171.122 324 171.136L323.01 171.654C322.996 171.661 322.981 171.661 322.969 171.654L322.355 171.331C322.327 171.316 322.327 171.281 322.355 171.266Z" fill="#444444"/>
<path d="M322.989 171.748L324.112 171.158C324.125 171.152 324.141 171.152 324.154 171.158L324.761 171.482C324.789 171.496 324.789 171.532 324.761 171.546L323.638 172.136C323.625 172.142 323.61 172.142 323.596 172.136L322.989 171.812C322.962 171.798 322.962 171.762 322.989 171.748Z" fill="#444444"/>
<path d="M322.479 171.119L321.901 171.423C321.888 171.429 321.872 171.429 321.861 171.423L321.246 171.099C321.219 171.085 321.219 171.049 321.246 171.035L321.824 170.731C321.837 170.724 321.853 170.724 321.865 170.731L322.479 171.054C322.505 171.069 322.505 171.106 322.479 171.119Z" fill="#444444"/>
<path d="M321.985 170.647L322.563 170.343C322.576 170.336 322.592 170.336 322.603 170.343L323.217 170.666C323.245 170.681 323.245 170.716 323.217 170.731L322.639 171.035C322.626 171.041 322.61 171.041 322.599 171.035L321.985 170.711C321.957 170.697 321.957 170.661 321.985 170.647Z" fill="#444444"/>
<path d="M321.739 171.507L321.161 171.811C321.148 171.817 321.132 171.817 321.12 171.811L320.506 171.487C320.478 171.473 320.478 171.437 320.506 171.423L321.084 171.119C321.097 171.112 321.113 171.112 321.125 171.119L321.739 171.442C321.766 171.457 321.766 171.492 321.739 171.507Z" fill="#444444"/>
<path d="M321.061 171.889L320.476 172.196C320.464 172.203 320.449 172.203 320.438 172.196L319.816 171.869C319.792 171.856 319.792 171.823 319.816 171.81L320.402 171.502C320.413 171.495 320.428 171.495 320.439 171.502L321.061 171.829C321.086 171.843 321.086 171.875 321.061 171.889Z" fill="#444444"/>
<path d="M320.323 172.277L319.737 172.585C319.726 172.591 319.711 172.591 319.7 172.585L319.078 172.257C319.053 172.244 319.053 172.211 319.078 172.198L319.663 171.89C319.675 171.883 319.689 171.883 319.701 171.89L320.323 172.217C320.347 172.231 320.347 172.263 320.323 172.277Z" fill="#444444"/>
<path d="M319.583 172.665L318.998 172.973C318.986 172.979 318.972 172.979 318.96 172.973L318.339 172.645C318.314 172.632 318.314 172.599 318.339 172.586L318.924 172.278C318.936 172.271 318.95 172.271 318.962 172.278L319.583 172.606C319.608 172.619 319.608 172.652 319.583 172.665Z" fill="#444444"/>
<path d="M318.859 173.045L318.273 173.353C318.262 173.36 318.247 173.36 318.236 173.353L317.614 173.025C317.59 173.012 317.59 172.979 317.614 172.966L318.2 172.658C318.211 172.652 318.226 172.652 318.237 172.658L318.859 172.986C318.883 172.999 318.883 173.032 318.859 173.045Z" fill="#444444"/>
<path d="M318.106 173.44L317.529 173.742C317.516 173.749 317.5 173.749 317.487 173.742L316.874 173.42C316.847 173.405 316.847 173.369 316.874 173.354L317.451 173.052C317.464 173.045 317.48 173.045 317.493 173.052L318.106 173.374C318.135 173.388 318.135 173.425 318.106 173.44Z" fill="#444444"/>
<path d="M317.366 173.828L316.79 174.13C316.777 174.137 316.761 174.137 316.748 174.13L316.135 173.808C316.107 173.794 316.107 173.757 316.135 173.742L316.712 173.44C316.725 173.433 316.741 173.433 316.754 173.44L317.366 173.762C317.394 173.777 317.394 173.813 317.366 173.828Z" fill="#444444"/>
<path d="M316.628 174.216L316.052 174.519C316.038 174.525 316.023 174.525 316.009 174.519L315.397 174.196C315.369 174.182 315.369 174.145 315.397 174.13L315.973 173.828C315.986 173.821 316.002 173.821 316.015 173.828L316.628 174.15C316.656 174.165 316.656 174.2 316.628 174.216Z" fill="#444444"/>
<path d="M315.889 174.603L315.312 174.905C315.299 174.912 315.283 174.912 315.27 174.905L314.657 174.583C314.63 174.569 314.63 174.532 314.657 174.517L315.234 174.215C315.247 174.208 315.263 174.208 315.276 174.215L315.889 174.537C315.916 174.553 315.916 174.588 315.889 174.603Z" fill="#444444"/>
<path d="M314.536 174.601L315.153 174.926C315.179 174.941 315.179 174.975 315.153 174.988L314.572 175.294C314.561 175.3 314.545 175.3 314.533 175.294L313.916 174.969C313.89 174.954 313.89 174.92 313.916 174.907L314.497 174.601C314.509 174.596 314.525 174.596 314.536 174.601Z" fill="#444444"/>
<path d="M313.804 174.986L314.421 175.311C314.447 175.325 314.447 175.359 314.421 175.372L313.84 175.678C313.828 175.684 313.812 175.684 313.801 175.678L313.184 175.353C313.158 175.338 313.158 175.304 313.184 175.291L313.765 174.986C313.776 174.98 313.792 174.98 313.804 174.986Z" fill="#444444"/>
<path d="M322.243 172.035L321.629 171.711C321.602 171.697 321.602 171.661 321.629 171.647L322.207 171.343C322.22 171.336 322.236 171.336 322.248 171.343L322.862 171.666C322.89 171.681 322.89 171.716 322.862 171.731L322.284 172.035C322.272 172.041 322.256 172.041 322.243 172.035Z" fill="#444444"/>
<path d="M322.145 172.1L321.567 172.404C321.554 172.411 321.538 172.411 321.527 172.404L320.912 172.081C320.885 172.066 320.885 172.031 320.912 172.016L321.49 171.712C321.503 171.706 321.519 171.706 321.531 171.712L322.145 172.036C322.173 172.05 322.173 172.086 322.145 172.1Z" fill="#444444"/>
<path d="M321.467 172.482L320.882 172.79C320.87 172.796 320.856 172.796 320.844 172.79L320.223 172.462C320.198 172.449 320.198 172.416 320.223 172.403L320.808 172.095C320.819 172.089 320.834 172.089 320.846 172.095L321.467 172.423C321.492 172.436 321.492 172.469 321.467 172.482Z" fill="#444444"/>
<path d="M320.728 172.87L320.143 173.178C320.131 173.184 320.116 173.184 320.105 173.178L319.483 172.85C319.459 172.837 319.459 172.804 319.483 172.791L320.069 172.483C320.08 172.477 320.095 172.477 320.106 172.483L320.728 172.811C320.752 172.824 320.752 172.857 320.728 172.87Z" fill="#444444"/>
<path d="M319.99 173.257L319.404 173.565C319.393 173.571 319.378 173.571 319.367 173.565L318.745 173.237C318.72 173.224 318.72 173.191 318.745 173.178L319.33 172.87C319.342 172.863 319.356 172.863 319.368 172.87L319.99 173.198C320.014 173.212 320.014 173.244 319.99 173.257Z" fill="#444444"/>
<path d="M319.263 173.637L318.678 173.945C318.666 173.952 318.652 173.952 318.64 173.945L318.018 173.617C317.994 173.604 317.994 173.571 318.018 173.558L318.604 173.25C318.615 173.244 318.63 173.244 318.641 173.25L319.263 173.578C319.289 173.592 319.289 173.625 319.263 173.637Z" fill="#444444"/>
<path d="M318.511 174.033L317.934 174.336C317.921 174.342 317.905 174.342 317.892 174.336L317.279 174.013C317.252 173.999 317.252 173.962 317.279 173.948L317.856 173.645C317.869 173.638 317.885 173.638 317.898 173.645L318.511 173.967C318.538 173.982 318.538 174.019 318.511 174.033Z" fill="#444444"/>
<path d="M317.773 174.42L317.196 174.723C317.183 174.729 317.167 174.729 317.154 174.723L316.541 174.4C316.514 174.386 316.514 174.349 316.541 174.334L317.118 174.032C317.131 174.025 317.147 174.025 317.16 174.032L317.773 174.354C317.8 174.37 317.8 174.405 317.773 174.42Z" fill="#444444"/>
<path d="M317.033 174.808L316.457 175.111C316.444 175.117 316.428 175.117 316.415 175.111L315.802 174.788C315.774 174.774 315.774 174.737 315.802 174.722L316.379 174.42C316.392 174.413 316.408 174.413 316.421 174.42L317.033 174.742C317.061 174.758 317.061 174.794 317.033 174.808Z" fill="#444444"/>
<path d="M315.059 175.112L315.64 174.807C315.651 174.8 315.667 174.8 315.679 174.807L316.296 175.132C316.322 175.146 316.322 175.18 316.296 175.193L315.715 175.499C315.703 175.505 315.687 175.505 315.676 175.499L315.059 175.174C315.033 175.161 315.033 175.126 315.059 175.112Z" fill="#444444"/>
<path d="M314.319 175.5L314.9 175.195C314.912 175.188 314.928 175.188 314.939 175.195L315.557 175.52C315.583 175.534 315.583 175.569 315.557 175.582L314.976 175.887C314.964 175.894 314.948 175.894 314.937 175.887L314.319 175.562C314.293 175.549 314.293 175.515 314.319 175.5Z" fill="#444444"/>
<path d="M314.21 175.587L314.827 175.912C314.853 175.926 314.853 175.961 314.827 175.974L314.246 176.279C314.235 176.286 314.219 176.286 314.207 176.279L313.59 175.954C313.564 175.94 313.564 175.905 313.59 175.892L314.171 175.587C314.182 175.58 314.197 175.58 314.21 175.587Z" fill="#444444"/>
<path d="M312.85 176.284L313.443 175.972C313.456 175.966 313.47 175.966 313.484 175.972L314.102 176.304C314.128 176.318 314.128 176.353 314.102 176.366L314.043 176.397C314.017 176.411 314.017 176.445 314.043 176.459L314.667 176.799C314.693 176.813 314.693 176.847 314.667 176.861L314.272 177.068C314.26 177.075 314.244 177.075 314.233 177.068L312.853 176.346C312.823 176.332 312.823 176.297 312.85 176.284Z" fill="#444444"/>
<path d="M322.841 172.515L322.234 172.191C322.206 172.177 322.206 172.141 322.234 172.127L322.812 171.823C322.825 171.816 322.841 171.816 322.854 171.823L323.461 172.146C323.488 172.161 323.488 172.196 323.461 172.211L322.883 172.515C322.87 172.521 322.854 172.521 322.841 172.515Z" fill="#444444"/>
<path d="M322.101 172.903L321.494 172.579C321.467 172.565 321.467 172.529 321.494 172.515L322.072 172.211C322.085 172.204 322.101 172.204 322.114 172.211L322.721 172.535C322.749 172.549 322.749 172.585 322.721 172.599L322.143 172.903C322.13 172.909 322.114 172.909 322.101 172.903Z" fill="#444444"/>
<path d="M320.807 172.902L321.392 172.594C321.403 172.587 321.418 172.587 321.43 172.594L322.044 172.921C322.069 172.934 322.069 172.967 322.044 172.981L321.459 173.288C321.447 173.295 321.432 173.295 321.421 173.288L320.807 172.961C320.782 172.948 320.782 172.915 320.807 172.902Z" fill="#444444"/>
<path d="M320.067 173.29L320.653 172.982C320.664 172.975 320.679 172.975 320.69 172.982L321.305 173.309C321.329 173.323 321.329 173.356 321.305 173.369L320.719 173.677C320.708 173.683 320.693 173.683 320.682 173.677L320.067 173.349C320.043 173.334 320.043 173.303 320.067 173.29Z" fill="#444444"/>
<path d="M319.329 173.678L319.914 173.37C319.926 173.363 319.94 173.363 319.952 173.37L320.566 173.698C320.591 173.711 320.591 173.744 320.566 173.757L319.981 174.065C319.969 174.071 319.955 174.071 319.943 174.065L319.329 173.737C319.303 173.723 319.304 173.691 319.329 173.678Z" fill="#444444"/>
<path d="M318.604 174.058L319.189 173.75C319.2 173.744 319.215 173.744 319.227 173.75L319.841 174.078C319.865 174.091 319.865 174.124 319.841 174.137L319.256 174.445C319.244 174.451 319.229 174.451 319.218 174.445L318.604 174.117C318.577 174.103 318.577 174.071 318.604 174.058Z" fill="#444444"/>
<path d="M317.863 174.446L318.44 174.144C318.453 174.137 318.469 174.137 318.482 174.144L319.088 174.466C319.115 174.48 319.115 174.517 319.088 174.532L318.511 174.834C318.498 174.841 318.482 174.841 318.469 174.834L317.863 174.512C317.836 174.496 317.836 174.461 317.863 174.446Z" fill="#444444"/>
<path d="M317.125 174.834L317.702 174.532C317.715 174.525 317.731 174.525 317.744 174.532L318.349 174.854C318.377 174.869 318.377 174.905 318.349 174.92L317.773 175.223C317.76 175.229 317.744 175.229 317.731 175.223L317.125 174.9C317.098 174.884 317.098 174.849 317.125 174.834Z" fill="#444444"/>
<path d="M316.386 175.221L316.963 174.919C316.976 174.912 316.991 174.912 317.005 174.919L317.61 175.241C317.638 175.255 317.638 175.292 317.61 175.307L317.033 175.609C317.02 175.616 317.005 175.616 316.991 175.609L316.386 175.287C316.358 175.272 316.358 175.237 316.386 175.221Z" fill="#444444"/>
<path d="M315.644 175.612L316.225 175.307C316.238 175.3 316.252 175.3 316.264 175.307L316.874 175.632C316.9 175.646 316.9 175.68 316.874 175.694L316.293 175.999C316.28 176.005 316.265 176.005 316.254 175.999L315.644 175.674C315.616 175.659 315.616 175.625 315.644 175.612Z" fill="#444444"/>
<path d="M314.905 176.007L315.486 175.701C315.498 175.695 315.514 175.695 315.525 175.701L316.135 176.026C316.162 176.041 316.162 176.075 316.135 176.088L315.554 176.393C315.543 176.4 315.527 176.4 315.515 176.393L314.905 176.068C314.878 176.055 314.878 176.021 314.905 176.007Z" fill="#444444"/>
<path d="M314.172 176.391L314.753 176.086C314.766 176.079 314.78 176.079 314.792 176.086L315.402 176.41C315.428 176.425 315.428 176.459 315.402 176.472L314.821 176.778C314.808 176.784 314.793 176.784 314.782 176.778L314.172 176.453C314.146 176.439 314.146 176.405 314.172 176.391Z" fill="#444444"/>
<path d="M324.62 172.435L324.042 172.738C324.029 172.745 324.013 172.745 324.001 172.738L323.387 172.415C323.359 172.4 323.359 172.365 323.387 172.35L323.965 172.046C323.978 172.04 323.994 172.04 324.006 172.046L324.62 172.37C324.647 172.383 324.647 172.42 324.62 172.435Z" fill="#444444"/>
<path d="M322.694 172.737L323.272 172.433C323.285 172.427 323.301 172.427 323.313 172.433L323.927 172.757C323.955 172.771 323.955 172.807 323.927 172.821L323.349 173.125C323.336 173.132 323.32 173.132 323.309 173.125L322.694 172.802C322.668 172.787 322.668 172.752 322.694 172.737Z" fill="#444444"/>
<path d="M321.958 173.124L322.543 172.816C322.555 172.81 322.569 172.81 322.581 172.816L323.203 173.144C323.227 173.157 323.227 173.19 323.203 173.203L322.617 173.511C322.606 173.517 322.591 173.517 322.58 173.511L321.958 173.183C321.932 173.17 321.932 173.137 321.958 173.124Z" fill="#444444"/>
<path d="M321.219 173.512L321.804 173.204C321.816 173.198 321.83 173.198 321.842 173.204L322.463 173.532C322.488 173.545 322.488 173.578 322.463 173.591L321.878 173.899C321.866 173.905 321.852 173.905 321.84 173.899L321.219 173.571C321.193 173.558 321.193 173.525 321.219 173.512Z" fill="#444444"/>
<path d="M320.48 173.9L321.066 173.592C321.077 173.586 321.092 173.586 321.103 173.592L321.725 173.92C321.75 173.933 321.75 173.966 321.725 173.979L321.14 174.287C321.128 174.294 321.114 174.294 321.102 174.287L320.48 173.959C320.454 173.946 320.454 173.913 320.48 173.9Z" fill="#444444"/>
<path d="M319.755 174.28L320.34 173.973C320.352 173.966 320.366 173.966 320.378 173.973L320.999 174.3C321.024 174.313 321.024 174.346 320.999 174.359L320.414 174.667C320.402 174.674 320.388 174.674 320.376 174.667L319.755 174.34C319.73 174.327 319.73 174.294 319.755 174.28Z" fill="#444444"/>
<path d="M319.016 174.669L319.592 174.366C319.605 174.359 319.621 174.359 319.634 174.366L320.247 174.688C320.275 174.703 320.275 174.74 320.247 174.754L319.671 175.057C319.658 175.063 319.642 175.063 319.629 175.057L319.016 174.734C318.988 174.72 318.988 174.683 319.016 174.669Z" fill="#444444"/>
<path d="M318.277 175.041L318.853 174.738C318.866 174.732 318.882 174.732 318.895 174.738L319.508 175.061C319.536 175.075 319.536 175.112 319.508 175.126L318.931 175.429C318.918 175.436 318.902 175.436 318.889 175.429L318.277 175.107C318.249 175.092 318.249 175.055 318.277 175.041Z" fill="#444444"/>
<path d="M317.537 175.429L318.114 175.126C318.127 175.12 318.143 175.12 318.156 175.126L318.769 175.449C318.796 175.463 318.796 175.5 318.769 175.515L318.192 175.817C318.179 175.824 318.163 175.824 318.15 175.817L317.537 175.495C317.51 175.48 317.51 175.443 317.537 175.429Z" fill="#444444"/>
<path d="M316.794 175.826L317.375 175.521C317.387 175.515 317.402 175.515 317.414 175.521L318.031 175.846C318.057 175.861 318.057 175.895 318.031 175.908L317.45 176.213C317.439 176.22 317.423 176.22 317.411 176.213L316.794 175.888C316.768 175.875 316.768 175.84 316.794 175.826Z" fill="#444444"/>
<path d="M316.056 176.214L316.637 175.909C316.648 175.903 316.664 175.903 316.676 175.909L317.293 176.234C317.319 176.249 317.319 176.283 317.293 176.296L316.712 176.601C316.7 176.608 316.684 176.608 316.673 176.601L316.056 176.276C316.03 176.262 316.03 176.228 316.056 176.214Z" fill="#444444"/>
<path d="M317.603 176.605L317.872 176.747C317.898 176.762 317.898 176.796 317.872 176.809L317.291 177.114C317.279 177.121 317.264 177.121 317.252 177.114L316.982 176.972C316.956 176.958 316.956 176.924 316.982 176.911L317.563 176.605C317.575 176.599 317.59 176.599 317.603 176.605Z" fill="#444444"/>
<path d="M316.4 177.582L315.819 177.887C315.808 177.893 315.792 177.893 315.78 177.887L315.511 177.745C315.485 177.73 315.485 177.696 315.511 177.683L316.092 177.378C316.103 177.371 316.119 177.371 316.131 177.378L316.4 177.52C316.426 177.533 316.426 177.567 316.4 177.582Z" fill="#444444"/>
<path d="M315.903 177.118L316.483 176.815C316.494 176.808 316.51 176.808 316.522 176.815L316.851 176.98L317.141 177.133C317.167 177.147 317.167 177.182 317.141 177.195L316.56 177.5C316.548 177.507 316.532 177.507 316.52 177.5L316.192 177.328L315.905 177.183C315.876 177.167 315.876 177.132 315.903 177.118Z" fill="#444444"/>
<path d="M317.992 176.034L318.609 176.359C318.635 176.374 318.635 176.408 318.609 176.421L318.028 176.726C318.017 176.733 318.001 176.733 317.989 176.726L317.372 176.401C317.346 176.387 317.346 176.353 317.372 176.339L317.953 176.034C317.965 176.028 317.981 176.028 317.992 176.034Z" fill="#444444"/>
<path d="M318.927 175.538L319.54 175.861C319.568 175.875 319.568 175.912 319.54 175.926L318.769 176.33C318.756 176.337 318.74 176.337 318.727 176.33L318.114 176.008C318.087 175.994 318.087 175.957 318.114 175.942L318.885 175.538C318.898 175.53 318.914 175.53 318.927 175.538Z" fill="#444444"/>
<path d="M316.563 176.68L315.049 177.475C315.037 177.481 315.021 177.481 315.01 177.475L314.393 177.15C314.367 177.135 314.367 177.101 314.393 177.088L315.907 176.293C315.918 176.287 315.934 176.287 315.946 176.293L316.563 176.618C316.589 176.633 316.589 176.667 316.563 176.68Z" fill="#444444"/>
<path d="M313.682 175.762L312.734 176.259C312.723 176.266 312.707 176.266 312.695 176.259L312.078 175.934C312.052 175.92 312.052 175.886 312.078 175.872L313.026 175.375C313.037 175.368 313.053 175.368 313.065 175.375L313.682 175.7C313.708 175.713 313.708 175.747 313.682 175.762Z" fill="#444444"/>
<path d="M321.485 170.368L322.064 170.065C322.077 170.058 322.091 170.058 322.104 170.065L322.481 170.26C322.508 170.274 322.508 170.31 322.481 170.324L321.903 170.627C321.89 170.633 321.875 170.633 321.862 170.627L321.485 170.432C321.458 170.418 321.458 170.382 321.485 170.368Z" fill="#444444"/>
<path d="M311.922 175.407L312.303 175.604C312.329 175.617 312.329 175.653 312.303 175.666L311.952 175.85C311.941 175.857 311.925 175.857 311.913 175.85L311.532 175.653C311.506 175.64 311.506 175.604 311.532 175.591L311.883 175.407C311.896 175.4 311.91 175.4 311.922 175.407Z" fill="#444444"/>
<path d="M312.421 175.583L312.044 175.388C312.017 175.374 312.017 175.337 312.044 175.323L321.322 170.452C321.335 170.445 321.351 170.445 321.364 170.452L321.741 170.647C321.769 170.661 321.769 170.698 321.741 170.712L312.463 175.583C312.45 175.59 312.434 175.59 312.421 175.583Z" fill="#444444"/>
<path d="M327.111 177.081L326.93 176.995C326.833 176.947 326.716 176.95 326.62 177L324.55 178.085C324.477 178.123 324.479 178.22 324.552 178.255L324.719 178.335L327.111 177.081Z" fill="#9BA2BD"/>
<path d="M309.87 177.387C309.87 177.449 309.796 177.487 309.738 177.456L309.275 177.213C309.243 177.196 309.223 177.164 309.223 177.131C309.223 177.07 309.295 177.031 309.355 177.062L309.814 177.299C309.849 177.317 309.87 177.351 309.87 177.387Z" fill="#DDDFE6"/>
<path d="M310.928 177.945C310.928 178.006 310.854 178.045 310.796 178.014L310.332 177.771C310.301 177.754 310.28 177.722 310.28 177.689C310.28 177.627 310.353 177.589 310.412 177.62L310.871 177.856C310.906 177.875 310.928 177.908 310.928 177.945Z" fill="#DDDFE6"/>
<path d="M321.338 167.699L321.354 160.28L321.223 160.217C321.119 160.162 320.99 160.162 320.886 160.216L310.377 165.689C310.16 165.802 310.025 166.011 310.025 166.234V173.233C310.025 173.349 310.093 173.457 310.205 173.515L310.427 173.621L320.974 168.183C321.199 168.066 321.338 167.934 321.338 167.699Z" fill="#585971"/>
<path d="M321.575 167.641V160.533C321.575 160.329 321.333 160.203 321.139 160.304L310.628 165.839C310.415 165.951 310.283 166.157 310.283 166.381V173.355C310.283 173.619 310.596 173.783 310.847 173.652L321.219 168.202C321.439 168.086 321.575 167.873 321.575 167.641Z" fill="white"/>
<path d="M320.313 161.834V161.875C320.313 161.934 320.279 161.988 320.223 162.017L312.169 166.255C312.049 166.318 311.898 166.239 311.898 166.113V166.072C311.898 166.013 311.933 165.959 311.988 165.93L320.042 161.692C320.163 161.629 320.313 161.708 320.313 161.834Z" fill="#DDDFE6"/>
<path d="M318.874 163.635V163.66C318.874 163.696 318.853 163.727 318.82 163.746L313.995 166.285C313.923 166.323 313.833 166.276 313.833 166.199V166.174C313.833 166.139 313.853 166.107 313.887 166.089L318.711 163.55C318.784 163.513 318.874 163.56 318.874 163.635Z" fill="#DDDFE6"/>
<path d="M316.61 166.578V166.603C316.61 166.639 316.59 166.67 316.556 166.689L311.732 169.228C311.659 169.266 311.569 169.219 311.569 169.143V169.118C311.569 169.082 311.59 169.051 311.623 169.032L316.448 166.493C316.519 166.456 316.61 166.503 316.61 166.578Z" fill="#DDDFE6"/>
<path d="M318.893 164.813V164.838C318.893 164.873 318.873 164.905 318.839 164.923L314.015 167.463C313.942 167.501 313.853 167.453 313.853 167.377V167.352C313.853 167.316 313.873 167.285 313.906 167.267L318.731 164.727C318.803 164.69 318.893 164.738 318.893 164.813Z" fill="#DDDFE6"/>
<path d="M313.657 166.373V166.398C313.657 166.434 313.637 166.465 313.604 166.484L311.732 167.463C311.659 167.501 311.569 167.453 311.569 167.377V167.352C311.569 167.317 311.59 167.285 311.623 167.267L313.495 166.288C313.566 166.251 313.657 166.298 313.657 166.373Z" fill="#DDDFE6"/>
<path d="M316.497 165.486V165.511C316.497 165.547 316.477 165.578 316.443 165.597L314.571 166.576C314.499 166.614 314.409 166.566 314.409 166.49V166.465C314.409 166.43 314.429 166.398 314.463 166.38L316.335 165.401C316.406 165.363 316.497 165.41 316.497 165.486Z" fill="#DDDFE6"/>
<path d="M313.657 167.514V167.539C313.657 167.574 313.637 167.606 313.604 167.624L311.732 168.603C311.659 168.641 311.569 168.594 311.569 168.518V168.493C311.569 168.457 311.59 168.426 311.623 168.407L313.495 167.428C313.566 167.39 313.657 167.437 313.657 167.514Z" fill="#DDDFE6"/>
<path d="M318.893 165.382V165.407C318.893 165.443 318.873 165.475 318.84 165.493L316.968 166.472C316.896 166.51 316.806 166.463 316.806 166.386V166.361C316.806 166.326 316.826 166.294 316.859 166.276L318.731 165.297C318.804 165.26 318.893 165.307 318.893 165.382Z" fill="#DDDFE6"/>
<path d="M314.202 166.682V166.707C314.202 166.743 314.182 166.774 314.148 166.793L311.732 168.061C311.659 168.099 311.569 168.052 311.569 167.976V167.951C311.569 167.915 311.59 167.884 311.623 167.865L314.04 166.597C314.112 166.559 314.202 166.606 314.202 166.682Z" fill="#DDDFE6"/>
<path d="M318.893 164.215V164.24C318.893 164.276 318.873 164.308 318.82 164.344L316.948 165.323C316.895 165.343 316.806 165.296 316.806 165.219V165.194C316.806 165.159 316.826 165.127 316.859 165.109L318.731 164.13C318.804 164.092 318.893 164.139 318.893 164.215Z" fill="#DDDFE6"/>
<path d="M316.497 169.578V169.603C316.497 169.639 316.477 169.67 316.443 169.689L314.571 170.668C314.499 170.706 314.409 170.658 314.409 170.582V170.557C314.409 170.521 314.429 170.49 314.463 170.471L316.335 169.493C316.406 169.454 316.497 169.502 316.497 169.578Z" fill="#DDDFE6"/>
<path d="M314.202 170.774V170.799C314.202 170.835 314.182 170.866 314.148 170.885L311.732 172.153C311.659 172.191 311.569 172.144 311.569 172.067V172.042C311.569 172.007 311.59 171.975 311.623 171.957L314.04 170.689C314.112 170.65 314.202 170.698 314.202 170.774Z" fill="#DDDFE6"/>
<path d="M318.893 168.307V168.332C318.893 168.368 318.873 168.399 318.82 168.436L316.948 169.415C316.895 169.435 316.806 169.387 316.806 169.311V169.286C316.806 169.251 316.826 169.219 316.859 169.201L318.731 168.222C318.804 168.185 318.893 168.232 318.893 168.307Z" fill="#DDDFE6"/>
<path d="M318.874 165.963V165.988C318.874 166.023 318.853 166.055 318.82 166.073L313.995 168.612C313.923 168.651 313.833 168.603 313.833 168.527V168.502C313.833 168.466 313.853 168.435 313.887 168.416L318.711 165.877C318.784 165.839 318.874 165.886 318.874 165.963Z" fill="#DDDFE6"/>
<path d="M316.61 168.906V168.931C316.61 168.966 316.59 168.998 316.556 169.016L311.732 171.556C311.659 171.594 311.569 171.546 311.569 171.47V171.445C311.569 171.41 311.59 171.378 311.623 171.36L316.448 168.82C316.519 168.782 316.61 168.83 316.61 168.906Z" fill="#DDDFE6"/>
<path d="M318.893 167.139V167.164C318.893 167.199 318.873 167.231 318.839 167.249L314.015 169.789C313.942 169.827 313.853 169.779 313.853 169.703V169.678C313.853 169.643 313.873 169.611 313.906 169.593L318.731 167.053C318.803 167.016 318.893 167.064 318.893 167.139Z" fill="#DDDFE6"/>
<path d="M313.657 168.699V168.724C313.657 168.76 313.637 168.791 313.604 168.81L311.732 169.789C311.659 169.827 311.569 169.779 311.569 169.703V169.678C311.569 169.643 311.59 169.611 311.623 169.593L313.495 168.614C313.566 168.577 313.657 168.624 313.657 168.699Z" fill="#DDDFE6"/>
<path d="M316.497 167.813V167.837C316.497 167.873 316.477 167.905 316.443 167.923L314.571 168.902C314.499 168.94 314.409 168.893 314.409 168.816V168.791C314.409 168.756 314.429 168.724 314.463 168.706L316.335 167.727C316.406 167.689 316.497 167.736 316.497 167.813Z" fill="#DDDFE6"/>
<path d="M313.657 169.84V169.865C313.657 169.9 313.637 169.932 313.604 169.95L311.732 170.929C311.659 170.967 311.569 170.92 311.569 170.844V170.819C311.569 170.783 311.59 170.752 311.623 170.733L313.495 169.754C313.566 169.716 313.657 169.764 313.657 169.84Z" fill="#DDDFE6"/>
<path d="M318.893 167.71V167.735C318.893 167.77 318.873 167.802 318.84 167.82L316.968 168.799C316.896 168.837 316.806 168.79 316.806 168.714V168.689C316.806 168.653 316.826 168.622 316.859 168.603L318.731 167.624C318.804 167.586 318.893 167.634 318.893 167.71Z" fill="#DDDFE6"/>
<path d="M314.202 169.008V169.033C314.202 169.069 314.182 169.101 314.148 169.119L311.732 170.387C311.659 170.425 311.569 170.378 311.569 170.302V170.277C311.569 170.241 311.59 170.21 311.623 170.191L314.04 168.923C314.112 168.885 314.202 168.932 314.202 169.008Z" fill="#DDDFE6"/>
<path d="M318.893 166.542V166.567C318.893 166.602 318.873 166.634 318.82 166.67L316.948 167.649C316.895 167.669 316.806 167.622 316.806 167.545V167.52C316.806 167.485 316.826 167.453 316.859 167.435L318.731 166.456C318.804 166.418 318.893 166.465 318.893 166.542Z" fill="#DDDFE6"/>
<path d="M319.397 168.155L320.313 167.678V162.735L319.397 163.213V168.155Z" fill="#DDDFE6"/>
<path opacity="0.54" d="M310.389 164.431L310.719 164.258L320.61 169.302L320.28 169.476L310.389 164.431Z" fill="white"/>
<path opacity="0.54" d="M322.41 168.356L321.267 168.957L311.374 163.913L312.716 163.206L322.585 168.239C322.532 168.284 322.474 168.323 322.41 168.356Z" fill="white"/>
<path opacity="0.54" d="M309.734 164.776L319.624 169.82L319.25 170.016L309.36 164.973L309.734 164.776Z" fill="white"/>
<path d="M328.848 171.336C341.859 157.305 335.239 155.111 335.239 155.111C329.674 150.299 322.324 164.164 322.324 164.164L318.979 169.285L310.07 167.797L308.627 170.941C308.627 170.941 317.759 178.246 321.833 176.154C325.943 174.044 329.473 170.735 328.848 171.336Z" fill="#D35050"/>
<path d="M329.765 186.289C332.251 187.05 334.916 187.354 336.682 187.429C337.663 187.471 339.085 187.475 340.166 187.382C348.349 186.669 350.762 184.794 350.389 180.129C349.997 175.207 351.175 164.221 351.175 164.221C354.243 144.606 342.483 149.326 342.483 149.326C342.448 149.248 341.79 149.597 341.034 150.031C339.675 150.81 338.144 151.305 336.55 151.486C334.468 151.722 331.434 152.665 328.891 155.287C317.759 166.763 328.031 169.402 327.938 171.054C327.844 172.741 327.987 173.709 328.037 175.87C328.045 176.28 328.14 177.347 327.818 180.192C327.818 180.192 327.419 183.252 327.811 184.716C328.006 185.449 328.975 186.047 329.765 186.289Z" fill="#D35050"/>
<path d="M331.594 139.027C331.351 139.108 329.898 150.739 335.909 149.432C335.909 149.432 335.894 150.802 335.384 151.672C335.384 151.672 339.65 153.065 342.223 151.143C342.676 150.803 342.85 150.243 342.663 149.738C342.484 149.251 342.22 148.551 341.9 147.739C341.054 145.587 343.15 135.152 331.594 139.027Z" fill="#FBAA78"/>
<path d="M335.102 151.736L335.69 150.932C335.69 150.932 340.555 152.139 342.459 149.324C342.459 149.324 343.989 151.234 340.164 152.018C336.463 152.699 335.102 151.736 335.102 151.736Z" fill="white"/>
<path d="M328.902 171.278C328.936 171.25 328.921 171.266 328.848 171.336C328.865 171.318 328.883 171.298 328.902 171.278C328.822 171.344 328.468 171.65 327.912 172.1C327.945 173.958 328.07 176.234 328.048 177.162C333.124 173.899 336.415 168.068 335.891 161.802C334.796 164.114 332.683 167.193 328.902 171.278Z" fill="#A82D2D"/>
<path d="M347.998 149.426C347.999 149.426 347.999 149.427 348 149.427C347.999 149.427 347.998 149.427 347.998 149.426Z" fill="#333333"/>
<path d="M354.43 168.262L354.198 163.429C354.083 155.154 350.948 151.48 348.849 149.965C350.99 151.636 352.532 155.55 351.175 164.219C351.175 164.219 350.082 171.029 350.17 175.97L353.572 171.153C354.179 170.293 354.479 169.283 354.43 168.262Z" fill="#D35050"/>
<path d="M351.572 160.651C351.491 161.741 351.353 162.926 351.152 164.219C351.152 164.219 350.413 168.819 350.198 173.199C352.508 169.261 351.572 160.651 351.572 160.651Z" fill="#A82D2D"/>
<path d="M350.118 183.077C349.4 185.162 347.357 186.347 343.297 187.006C342.98 186.306 342.453 184.032 342.453 184.032C342.453 184.032 342.034 186.328 342.198 187.165C341.565 187.246 340.889 187.319 340.168 187.382C339.086 187.477 337.663 187.471 336.683 187.429C334.917 187.354 332.254 187.05 329.767 186.289C329.199 186.115 328.537 185.756 328.137 185.294C328.137 186.156 328.137 188.762 328.137 188.762C328.137 188.762 347.524 192.049 350.118 183.077Z" fill="#191919"/>
<path d="M318.13 205.854L318.04 200.723L317.356 200.557C317.356 200.557 317.223 200.553 316.988 200.531C316.946 203.244 316.905 205.66 316.869 207.544C317.653 207.805 318.502 208.086 319.408 208.392V209.2C319.408 209.2 325.678 212.471 328.577 208.48V204.614C328.577 205.227 328.571 205.583 328.56 205.636C324.254 209.693 318.13 205.854 318.13 205.854Z" fill="#191919"/>
<path d="M328.573 203.277C328.576 203.806 328.579 204.256 328.579 204.616V203.278L328.573 203.277Z" fill="#191919"/>
<path d="M316.755 211.08C312.329 213.377 305.807 210.624 305.807 210.624V205.829L305.644 205.79C305.644 205.79 304.588 205.76 303.156 205.357C301.49 204.889 299.699 205.762 299.286 207.302C299.278 207.336 299.205 208.34 299.198 208.374C298.627 210.891 302.033 211.704 307.697 213.625V214.433C307.697 214.433 313.967 217.703 316.866 213.713V208.508L316.84 208.501C316.804 210.029 316.777 210.963 316.755 211.08Z" fill="#191919"/>
<path d="M307.696 213.626C302.698 211.93 299.459 211.097 299.159 209.196C298.821 211.55 302.193 212.371 307.696 214.238V213.626Z" fill="#606060"/>
<path d="M307.695 214.434V215.046C307.695 215.046 313.966 218.316 316.865 214.326V213.714C313.966 217.705 307.695 214.434 307.695 214.434Z" fill="#606060"/>
<path d="M319.403 209.184V209.796C319.403 209.796 325.674 213.067 328.573 209.076V208.465C325.675 212.455 319.403 209.184 319.403 209.184Z" fill="#606060"/>
<path d="M316.859 208.137C317.645 208.4 318.495 208.68 319.405 208.988V208.376C318.501 208.07 317.653 207.791 316.872 207.529C316.867 207.738 316.862 207.941 316.859 208.137Z" fill="#606060"/>
<path d="M313.237 187.752H313.063V210.931H313.237V187.752Z" fill="white"/>
<path d="M325.222 206.9L324.305 189.719L324.479 189.715L325.396 206.896L325.222 206.9Z" fill="white"/>
<path d="M309.85 168.276L309.037 166.938C308.882 166.681 308.47 166.674 308.315 166.931C308.156 167.194 308.324 167.516 308.389 167.834C307.759 167.856 307.747 167.655 307.747 166.782C307.747 166.486 305.694 167.107 305.478 167.33C304.967 167.856 304.725 169.189 306.333 170.018C307.684 170.714 308.153 170.443 308.153 170.443L308.773 170.677L309.85 168.276Z" fill="#FBAA78"/>
<path d="M307.747 166.781C307.747 166.485 305.841 166.898 305.478 167.328C305.009 167.886 304.725 169.187 306.333 170.016" fill="#FBAA78"/>
<path d="M333.017 133.382C330.591 132.906 325.906 137.145 333.081 139.613C333.081 139.613 332.694 144.208 334.092 144.433C334.521 144.502 334.479 139.917 336.719 145.597C338.958 151.276 341.61 147.88 342.053 147.211C342.182 147.017 345.653 144.927 344.25 142.929C345.264 142.929 347.802 139.757 344.467 138.375C345.643 137.515 345.881 134.591 342.576 134.849C342.576 134.849 341.324 131.611 338.133 133.382C338.131 133.382 335.825 130.564 333.017 133.382Z" fill="#120621"/>
<path d="M368.289 186.387C368.203 186.054 364.116 172.984 364.116 172.984C364.116 172.984 360.465 165.171 350.4 168.202C340.335 171.233 337.936 179.615 337.936 179.615C337.936 179.615 332.276 192.639 322.981 187.335C313.685 182.03 315.51 193.87 315.51 193.87L330.531 201.826C330.531 201.826 339.292 205.709 348.261 202.394C357.231 199.078 365.523 193.917 365.523 193.917C365.523 193.917 369.488 191.075 368.289 186.387Z" fill="#FF9E26"/>
<path d="M322.29 199.544L324.995 200.977L319.721 216.47C319.472 217.202 318.618 217.611 317.813 217.385C317.007 217.159 316.557 216.384 316.806 215.652L322.29 199.544Z" fill="#585971"/>
<path d="M346.186 205.124L350.231 230.404C350.352 231.16 349.774 231.864 348.94 231.973C348.107 232.084 347.332 231.559 347.211 230.801L343.189 205.667C344.169 205.558 345.171 205.382 346.186 205.124Z" fill="#585971"/>
<path d="M364.41 196.671L372.474 217.461C372.754 218.182 372.337 218.974 371.543 219.228C370.749 219.482 369.877 219.103 369.597 218.382L361.762 198.18C362.863 197.572 363.765 197.05 364.41 196.671Z" fill="#585971"/>
<path d="M348.263 202.394C357.232 199.078 365.524 193.917 365.524 193.917C365.524 193.917 367.951 192.176 368.432 189.173C369.093 193.441 365.524 196 365.524 196C365.524 196 357.232 201.161 348.263 204.477C339.293 207.792 330.532 203.908 330.532 203.908L315.771 196.089C315.771 196.089 315.716 195.743 315.512 193.868L330.532 201.824C330.53 201.826 339.293 205.709 348.263 202.394Z" fill="#585971"/>
<path d="M289.951 148.659L308.317 138.94V162.364" stroke="#4C4C4C" stroke-width="6" stroke-miterlimit="10"/>
<path d="M284.854 189.646C287.573 184.337 275.461 173.988 257.801 166.53C240.142 159.073 223.622 157.331 220.903 162.64C218.184 167.949 230.296 178.298 247.956 185.756C265.615 193.213 282.135 194.955 284.854 189.646Z" fill="#EBECED"/>
<path d="M228.726 145.571L275.134 169.974C279.483 172.282 284.951 169.434 284.951 164.858V38.4373C284.951 33.568 282.104 29.0644 277.475 26.608L231.986 2.6928C227.312 0.212731 221.438 3.27433 221.438 8.18973V134.039C221.438 138.786 224.213 143.176 228.726 145.571Z" fill="#333333"/>
<path d="M284.95 164.821V38.4005C284.95 33.5311 282.103 29.0275 277.474 26.5712L231.544 2.46912C230.113 1.70997 228.025 1.48761 225.848 2.23756C231.421 -0.349083 236.737 -0.866148 241.392 1.60339L283.565 23.7332C288.195 26.1896 291.041 30.6932 291.041 35.5626V163.301C291.041 164.4 290.383 165.412 289.324 165.943L282.005 169.776C283.74 168.744 284.95 166.973 284.95 164.821Z" fill="#585971"/>
<path d="M233.767 8.26469L240.874 11.9907V14.4945C240.874 15.4746 241.45 16.3812 242.385 16.8706L262.552 27.4342C263.819 28.0973 265.399 27.2685 265.402 25.9422L265.404 24.8502L274.077 29.3972C278.07 31.5155 280.524 35.3994 280.524 39.5978V161.067C280.524 165.012 277.828 166.694 274.077 164.705L232.041 142.545C228.15 140.481 225.758 136.695 225.758 132.602V10.9934C225.756 7.48975 229.028 5.71752 233.767 8.26469Z" fill="#FF9E26"/>
<path opacity="0.54" d="M280.388 64.9142L280.444 66.8838L225.719 98.0037L225.665 96.0302L280.388 64.9142Z" fill="white"/>
<path opacity="0.54" d="M226.013 108.745L225.826 101.918L280.556 70.7992L280.784 78.8104L226.187 109.858C226.081 109.499 226.022 109.125 226.013 108.745Z" fill="white"/>
<path opacity="0.54" d="M280.276 60.9987L225.558 92.116L225.497 89.8819L280.214 58.7699L280.276 60.9987Z" fill="white"/>
<path d="M298.249 107.107V36.7164C298.249 34.7034 300.65 33.4443 302.569 34.4508L406.651 89.2609C408.764 90.3674 410.065 92.4133 410.065 94.6276V163.684C410.065 166.285 406.965 167.911 404.484 166.614L301.783 112.655C299.596 111.514 298.249 109.397 298.249 107.107Z" fill="#EBEDF6"/>
<path d="M299.987 34.3152C299.996 34.3126 300.003 34.3087 300.012 34.306L299.987 34.3152Z" fill="#444444"/>
<path d="M408.101 88.5702L303.863 33.6798C303.266 33.3653 302.541 33.3246 301.907 33.5706L300.018 34.3021C300.8 34.0035 301.73 34.01 302.569 34.4495L406.651 89.2596C408.763 90.3661 410.064 92.412 410.064 94.6263V163.683C410.064 164.971 409.303 166.021 408.234 166.593L410.287 165.573C411.043 165.198 411.514 164.477 411.514 163.695V93.9369C411.514 91.7226 410.213 89.6767 408.101 88.5702Z" fill="#444444"/>
<path d="M380.443 102.827V102.869C380.443 105.761 382.143 108.433 384.9 109.879L390.266 112.692C396.243 115.825 403.706 111.866 403.635 105.599C403.603 102.756 401.93 100.136 399.229 98.6996L393.863 95.8433C387.921 92.683 380.443 96.5735 380.443 102.827Z" fill="#FF9E26"/>
<path d="M384.9 109.88L388.138 111.578L390.267 112.693C392.918 114.083 395.86 114.076 398.309 113.093C397.667 109.722 395.952 106.656 392.007 105.844C392.007 105.844 389.529 107.712 388.648 105.357C388.618 105.277 385.633 105.095 383.939 109.298C384.244 109.509 384.564 109.704 384.9 109.88Z" fill="#D35050"/>
<path d="M391.927 104.303C391.905 104.073 392.26 104.301 392.527 103.968C392.466 104.048 392.269 104.332 392.283 104.648C392.292 104.833 392.146 104.878 392.005 104.879C391.973 104.678 391.941 104.454 391.927 104.303Z" fill="#120621"/>
<path d="M387.319 101.901C387.319 101.901 387.025 106.529 388.607 106.135C388.607 106.135 388.918 106.303 388.763 106.783C388.607 107.262 391.275 107.378 391.927 106.025C391.927 106.025 391.959 104.643 391.928 104.304C391.898 103.966 392.673 104.615 392.798 103.036C392.796 103.036 391.376 98.7562 387.319 101.901Z" fill="#FBAA78"/>
<path d="M392.124 100.236C392.592 100.334 392.984 100.635 393.144 101.047C393.245 101.309 393.26 101.623 393.044 101.965C392.609 102.655 392.796 103.036 392.796 103.036C392.796 103.036 392.438 102.576 392.095 102.948C392.038 103.009 391.996 103.08 391.97 103.156C391.854 103.489 391.443 103.864 391.151 103.599C391.063 103.519 391.524 101.881 390.749 101.852C389.974 101.824 387.057 102.951 386.84 101.035C386.622 99.1194 387.989 98.6089 388.236 99.4285L392.124 100.236Z" fill="#120621"/>
<path d="M391.929 105.833C391.926 105.95 391.925 106.025 391.925 106.025C391.273 107.378 388.606 107.262 388.761 106.783C388.916 106.304 388.606 106.135 388.606 106.135C388.399 106.186 388.223 106.15 388.075 106.052C387.683 106.686 387.512 107.554 389.316 107.754C392.345 108.044 392.526 105.969 392.526 105.969L392.005 105.845L391.929 105.833Z" fill="white"/>
<path d="M302.767 101.759V42.9528C302.767 41.27 304.772 40.2188 306.376 41.0595L309.224 42.5896C310.989 43.5146 312.075 45.2236 312.075 47.0735V104.765C312.075 106.937 309.486 108.296 307.413 107.214L305.718 106.396C303.892 105.44 302.767 103.672 302.767 101.759Z" fill="#333333"/>
<path d="M315.659 49.7693C319.307 51.5586 322.955 53.348 326.603 55.1373C327.262 55.4609 327.852 54.5479 327.191 54.2242C323.543 52.4349 319.895 50.6455 316.247 48.8562C315.586 48.5325 314.998 49.4456 315.659 49.7693Z" fill="#333333"/>
<path d="M314.695 78.7355C317.146 79.938 319.597 81.1405 322.05 82.3431C322.381 82.5049 322.675 82.0484 322.344 81.8865C319.893 80.684 317.442 79.4815 314.989 78.2789C314.658 78.1171 314.364 78.5736 314.695 78.7355Z" fill="#333333"/>
<path d="M314.695 85.7389C317.146 86.9414 319.597 88.144 322.05 89.3465C322.381 89.5083 322.675 89.0518 322.344 88.89C319.893 87.6874 317.442 86.4849 314.989 85.2823C314.658 85.1205 314.364 85.5771 314.695 85.7389Z" fill="#333333"/>
<path d="M314.695 93.7067C317.146 94.9092 319.597 96.1117 322.05 97.3143C322.381 97.4761 322.675 97.0196 322.344 96.8577C319.893 95.6552 317.442 94.4527 314.989 93.2501C314.658 93.0883 314.364 93.5448 314.695 93.7067Z" fill="#333333"/>
<path d="M314.695 101.598C317.146 102.801 319.597 104.003 322.05 105.206C322.381 105.368 322.675 104.911 322.344 104.749C319.893 103.547 317.442 102.344 314.989 101.142C314.658 100.98 314.364 101.436 314.695 101.598Z" fill="#333333"/>
<path d="M314.695 109.491C317.146 110.694 319.597 111.896 322.05 113.099C322.381 113.26 322.675 112.804 322.344 112.642C319.893 111.44 317.442 110.237 314.989 109.034C314.658 108.871 314.364 109.328 314.695 109.491Z" fill="#333333"/>
<path d="M325.435 117.763C327.887 118.965 330.338 120.168 332.791 121.37C333.122 121.532 333.416 121.076 333.085 120.914C330.634 119.711 328.182 118.509 325.73 117.306C325.401 117.144 325.105 117.601 325.435 117.763Z" fill="#333333"/>
<path d="M339.486 125.409C341.937 126.612 344.388 127.814 346.841 129.017C347.172 129.179 347.466 128.722 347.135 128.56C344.684 127.358 342.233 126.155 339.78 124.953C339.449 124.791 339.155 125.246 339.486 125.409Z" fill="#333333"/>
<path d="M354.342 132.8C356.793 134.002 359.245 135.205 361.698 136.407C362.028 136.569 362.322 136.113 361.992 135.951C359.54 134.748 357.089 133.546 354.636 132.343C354.306 132.181 354.012 132.638 354.342 132.8Z" fill="#333333"/>
<path d="M382.2 114.575C385.848 116.364 389.496 118.153 393.145 119.943C393.475 120.105 393.769 119.648 393.439 119.486C389.791 117.697 386.142 115.907 382.494 114.118C382.165 113.956 381.87 114.413 382.2 114.575Z" fill="#333333"/>
<path d="M382.014 121.256C385.662 123.045 389.31 124.834 392.958 126.624C393.289 126.786 393.583 126.329 393.252 126.167C389.604 124.378 385.956 122.589 382.308 120.799C381.978 120.637 381.684 121.094 382.014 121.256Z" fill="#333333"/>
<path d="M382.2 127.937C385.848 129.726 389.496 131.516 393.145 133.305C393.475 133.467 393.769 133.01 393.439 132.848C389.791 131.059 386.142 129.27 382.494 127.48C382.165 127.319 381.87 127.775 382.2 127.937Z" fill="#333333"/>
<path d="M316.591 58.5133V57.2424C316.591 56.1214 317.927 55.4201 318.996 55.9806L375.666 86.5045C376.841 87.1203 377.565 88.2597 377.565 89.4925V90.0214C377.565 91.4686 375.841 92.3751 374.459 91.6528L318.558 61.6025C317.341 60.9657 316.591 59.7882 316.591 58.5133Z" fill="#A82D2D"/>
<path d="M380.443 135.41V145.593C380.443 146.201 380.8 146.762 381.379 147.066L397.653 155.6C398.245 155.911 398.986 155.523 398.986 154.902V144.208C398.986 143.678 398.674 143.188 398.17 142.924L382.152 134.515C381.392 134.117 380.443 134.614 380.443 135.41Z" fill="#333333"/>
<path d="M324.478 73.5437V74.4015L330.353 77.4329L330.351 76.6342L324.478 73.5437Z" fill="#5267D1"/>
<path d="M344.799 84.314V85.1718L350.674 88.2031L350.672 87.4045L344.799 84.314Z" fill="#A82D2D"/>
<path d="M364.603 95.1407V95.9999L370.478 99.0299L370.476 98.2326L364.603 95.1407Z" fill="#FF9E26"/>
<path d="M316.904 68.2034V73.3306L321.719 75.8449L321.717 70.7782L316.904 68.2034Z" fill="#5267D1"/>
<path d="M305.014 53.7138V56.111C305.014 56.5307 305.26 56.9175 305.661 57.1267L307.892 58.2924C308.753 58.7423 309.828 58.1779 309.828 57.2753L309.827 54.9058C309.827 54.4913 309.585 54.1072 309.191 53.8953L306.959 52.702C306.099 52.2428 305.014 52.8073 305.014 53.7138Z" fill="#F2F2F2"/>
<path d="M305.014 63.4657V65.8628C305.014 66.2825 305.26 66.6694 305.661 66.8786L307.892 68.0443C308.753 68.4942 309.828 67.9298 309.828 67.0272L309.827 64.6577C309.827 64.2432 309.585 63.8591 309.191 63.6472L306.959 62.4539C306.099 61.996 305.014 62.5592 305.014 63.4657Z" fill="#F2F2F2"/>
<path d="M305.014 73.7069V76.1041C305.014 76.5238 305.26 76.9106 305.661 77.1198L307.892 78.2855C308.753 78.7355 309.828 78.1711 309.828 77.2685L309.827 74.8989C309.827 74.4845 309.585 74.1003 309.191 73.8885L306.959 72.6952C306.099 72.236 305.014 72.8004 305.014 73.7069Z" fill="#F2F2F2"/>
<path d="M337.226 79.0262V84.1522L342.04 86.6678L342.039 81.601L337.226 79.0262Z" fill="#A82D2D"/>
<path d="M357.03 89.4438V94.5711L361.845 97.0853L361.843 92.0186L357.03 89.4438Z" fill="#FF9E26"/>
<path d="M353.358 104.789V105.735C353.358 106.074 353.558 106.387 353.881 106.556L356.608 107.981C357.304 108.344 358.173 107.887 358.173 107.158V106.246C358.173 105.911 357.977 105.6 357.659 105.431L354.933 103.973C354.236 103.601 353.358 104.056 353.358 104.789Z" fill="#333333"/>
<path d="M322.663 112.959C323.133 111.866 323.757 110.828 324.516 109.878C325.164 109.067 325.987 108.191 327.139 108.024C328.237 107.865 329.332 108.383 330.122 109.037C331.016 109.776 331.6 110.763 332.204 111.699C332.799 112.621 333.447 113.505 334.3 114.25C335.102 114.95 336.036 115.531 337.056 115.935C339.144 116.761 341.54 116.813 343.638 115.985C345.597 115.212 346.836 113.675 348.118 112.199C349.328 110.805 350.75 109.387 352.825 109.228C355.153 109.05 357.292 110.255 358.594 111.943C359.245 112.788 359.723 113.733 360.062 114.713C360.452 115.84 360.658 117.01 360.915 118.167C361.363 120.186 362.062 122.302 363.875 123.67C364.687 124.282 365.66 124.673 366.721 124.727C367.961 124.788 369.164 124.396 370.258 123.903C370.827 123.645 371.378 123.353 371.922 123.057C372.244 122.882 371.951 122.424 371.628 122.6C369.607 123.699 367.118 124.915 364.842 123.656C362.837 122.548 362.03 120.393 361.566 118.422C361.288 117.236 361.091 116.032 360.72 114.867C360.405 113.873 359.961 112.902 359.352 112.028C358.132 110.268 356.214 108.942 353.896 108.713C352.827 108.608 351.746 108.782 350.788 109.229C349.922 109.633 349.19 110.245 348.547 110.903C347.233 112.246 346.2 113.892 344.542 114.929C342.614 116.134 340.088 116.359 337.895 115.669C336.85 115.342 335.88 114.814 335.048 114.155C334.145 113.438 333.456 112.58 332.847 111.647C331.7 109.893 330.42 107.766 327.936 107.492C326.8 107.367 325.783 107.824 324.993 108.538C324.132 109.316 323.447 110.292 322.882 111.26C322.588 111.764 322.33 112.287 322.103 112.818C321.965 113.137 322.528 113.273 322.663 112.959Z" fill="#A82D2D"/>
<path d="M323.549 101.228C326.342 100.313 327.456 97.6498 328.556 95.3842C329.149 94.1645 329.821 92.9541 330.913 92.0371C331.861 91.2424 333.131 90.7003 334.444 90.8977C335.745 91.0937 336.867 91.8989 337.582 92.8817C338.402 94.0106 338.707 95.3829 338.796 96.713C338.898 98.2234 338.778 99.7483 338.637 101.253C338.492 102.797 338.298 104.337 338.165 105.882C337.918 108.725 337.891 111.638 338.733 114.409C339.474 116.855 340.932 119.084 343.178 120.627C345.316 122.097 348.001 122.704 350.626 122.115C353.373 121.497 355.694 119.805 357.633 118.001C358.751 116.96 359.797 115.851 360.781 114.704C361.718 113.61 362.604 112.479 363.6 111.428C365.449 109.479 367.928 107.707 370.91 107.761C371.581 107.773 372.233 107.896 372.856 108.124C373.203 108.25 373.354 107.74 373.011 107.613C370.325 106.635 367.305 107.658 365.186 109.248C362.812 111.025 361.204 113.483 359.24 115.598C357.349 117.635 355.236 119.657 352.591 120.88C351.343 121.456 349.97 121.82 348.563 121.823C347.249 121.826 345.958 121.503 344.8 120.943C342.376 119.769 340.631 117.706 339.693 115.389C338.612 112.721 338.488 109.829 338.666 107.017C338.863 103.891 339.438 100.781 339.416 97.6445C339.399 95.1039 338.736 92.266 336.117 90.8964C334.976 90.299 333.612 90.1569 332.372 90.5872C331.142 91.0148 330.147 91.8595 329.402 92.8291C327.711 95.0289 327.28 97.9353 325.038 99.8009C324.562 100.198 324.011 100.519 323.401 100.719C323.045 100.832 323.195 101.344 323.549 101.228Z" fill="#FF9E26"/>
<path d="M54.6367 88.4753V159.064C54.6367 161.368 57.3939 162.8 59.5802 161.631L181.067 96.7036C183.473 95.4169 184.951 93.0697 184.951 90.5344V20.2504C184.951 18.2216 182.533 16.9546 180.599 17.9703L58.8079 81.9114C56.2261 83.2665 54.6367 85.7676 54.6367 88.4753Z" fill="#EBEDF6"/>
<path d="M54.6367 159.063V88.4753C54.6367 85.7676 56.2261 83.2665 58.8065 81.9113L180.599 17.9716C181.3 17.6032 182.063 17.5375 182.753 17.6953L180.991 17.1546C179.469 16.6375 177.772 16.7665 176.365 17.5046L56.242 80.5128C53.6616 81.8679 52.0723 84.369 52.0723 87.0767V158.245C52.0723 160.549 56.3304 161.67 56.3304 161.67C55.3466 161.175 54.6367 160.231 54.6367 159.063Z" fill="#444444"/>
<path d="M172.737 75.8315C169.386 77.5721 166.035 79.3115 162.684 81.0521C159.332 82.7928 155.981 84.5321 152.63 86.2728C150.732 87.2582 148.836 88.2437 146.938 89.2291C146.432 89.4909 146.215 90.1554 146.539 90.6106C146.868 91.0737 147.52 91.254 148.06 90.9724C151.412 89.2317 154.763 87.4924 158.114 85.7518C161.465 84.0111 164.816 82.2718 168.167 80.5311C170.065 79.5457 171.962 78.5602 173.86 77.5748C174.366 77.313 174.583 76.6485 174.258 76.1933C173.929 75.7302 173.277 75.5513 172.737 75.8315Z" fill="#585971"/>
<path d="M172.737 82.5534C169.386 84.294 166.035 86.0334 162.684 87.774C159.332 89.5147 155.981 91.254 152.63 92.9947C150.732 93.9801 148.836 94.9656 146.938 95.951C146.432 96.2128 146.215 96.8773 146.539 97.3325C146.868 97.7956 147.52 97.9759 148.06 97.6943C151.412 95.9536 154.763 94.2143 158.114 92.4737C161.465 90.733 164.816 88.9937 168.167 87.253C170.065 86.2676 171.962 85.2821 173.86 84.2967C174.366 84.0348 174.583 83.3704 174.258 82.9152C173.929 82.4534 173.277 82.2731 172.737 82.5534Z" fill="#585971"/>
<path d="M172.737 89.7594C169.386 91.5001 166.035 93.2394 162.684 94.9801C159.332 96.7207 155.981 98.4601 152.63 100.201C150.732 101.186 148.836 102.172 146.938 103.157C146.432 103.419 146.215 104.083 146.539 104.539C146.868 105.002 147.52 105.182 148.06 104.9C151.412 103.16 154.763 101.42 158.114 99.6797C161.465 97.939 164.816 96.1997 168.167 94.4591C170.065 93.4736 171.962 92.4882 173.86 91.5027C174.366 91.2409 174.583 90.5765 174.258 90.1212C173.929 89.6594 173.277 89.4792 172.737 89.7594Z" fill="#585971"/>
<path d="M70.0005 86.3176C67.549 87.5202 65.0976 88.7227 62.6447 89.9252C62.3144 90.0871 62.6085 90.5436 62.9388 90.3818C65.3903 89.1792 67.8417 87.9767 70.2946 86.7742C70.6235 86.6123 70.3308 86.1558 70.0005 86.3176Z" fill="#333333"/>
<path d="M70.0005 93.6315C67.549 94.834 65.0976 96.0365 62.6447 97.2391C62.3144 97.4009 62.6085 97.8575 62.9388 97.6956C65.3903 96.4931 67.8417 95.2905 70.2946 94.088C70.6235 93.9262 70.3308 93.4696 70.0005 93.6315Z" fill="#333333"/>
<path d="M70.0005 100.94C67.549 102.143 65.0976 103.345 62.6447 104.548C62.3144 104.71 62.6085 105.166 62.9388 105.004C65.3903 103.802 67.8417 102.599 70.2946 101.397C70.6235 101.235 70.3308 100.778 70.0005 100.94Z" fill="#333333"/>
<path d="M70.0005 108.571C67.549 109.774 65.0976 110.976 62.6447 112.179C62.3144 112.34 62.6085 112.797 62.9388 112.635C65.3903 111.433 67.8417 110.23 70.2946 109.028C70.6235 108.866 70.3308 108.409 70.0005 108.571Z" fill="#333333"/>
<path d="M70.0005 116.539C67.549 117.741 65.0976 118.944 62.6447 120.146C62.3144 120.308 62.6085 120.765 62.9388 120.603C65.3903 119.4 67.8417 118.198 70.2946 116.995C70.6235 116.834 70.3308 116.377 70.0005 116.539Z" fill="#333333"/>
<path d="M106.101 114.389V129.787C106.101 132.472 104.524 134.955 101.966 136.301L68.8061 153.733C66.1345 155.137 62.792 153.387 62.792 150.585L62.7934 135.473C62.7934 132.642 64.4538 130.023 67.1501 128.602L100.084 111.242C102.752 109.834 106.101 111.584 106.101 114.389Z" fill="#FF9E26"/>
<path d="M117.302 104.416C119.806 100.805 123.213 98.2153 126.625 97.0049L126.924 109.707H138.443C138.488 109.564 138.53 109.424 138.571 109.282C138.023 111.184 137.106 113.13 135.814 114.996C131.073 121.835 123.087 125.011 117.974 122.09C112.863 119.169 112.561 111.256 117.302 104.416Z" fill="#FF9E26"/>
<path d="M126.925 109.706L126.627 97.0049C129.677 95.9234 132.729 95.9431 135.142 97.3219C138.962 99.506 140.095 104.478 138.445 109.706H126.925Z" fill="#333333"/>
<path d="M126.925 109.707L114.109 116.276C113.489 112.759 114.538 108.405 117.304 104.416C119.807 100.805 123.215 98.2153 126.627 97.0049L126.925 109.707Z" fill="#A82D2D"/>
<path d="M76.6038 113.1C76.3966 110.278 76.5792 107.438 77.1819 104.663C77.7426 102.077 78.6032 99.4705 79.9521 97.1286C82.0833 93.4302 86.0575 89.62 91.1081 90.637C95.614 91.5448 98.7435 95.1643 103.16 96.3142C108.472 97.697 113.488 94.5156 116.109 90.5028C117.555 88.2898 118.454 85.8176 119.207 83.3494C119.952 80.9088 120.576 78.4379 121.318 75.996C122.741 71.3096 124.686 66.2547 128.874 62.9905C130.819 61.4735 133.363 60.4038 135.976 60.7709C138.361 61.1051 140.393 62.426 142.384 63.572C144.422 64.7456 146.58 65.8416 149.043 65.9679C151.599 66.0981 154.107 65.1942 156.146 63.847C160.842 60.7472 162.773 55.7345 165.097 51.1256C167.41 46.5391 170.648 42.4737 174.939 39.245C175.971 38.4687 177.056 37.753 178.18 37.0912C178.75 36.7557 178.22 35.9229 177.646 36.261C173.057 38.9634 169.163 42.6 166.343 46.8575C164.825 49.1521 163.709 51.6269 162.511 54.0662C161.354 56.4239 160.097 58.8303 158.228 60.8012C156.499 62.6247 154.251 64.1667 151.652 64.7706C149.146 65.3521 146.775 64.7759 144.57 63.6509C142.474 62.5813 140.561 61.2117 138.32 60.3854C135.918 59.5 133.378 59.5789 131.029 60.5722C126.071 62.6681 123.269 67.5941 121.547 72.0582C119.694 76.8604 118.893 81.9548 116.915 86.7176C115.909 89.141 114.492 91.4961 112.329 93.2276C110.357 94.8064 107.764 95.8576 105.1 95.6734C102.754 95.5103 100.659 94.3643 98.7363 93.2223C96.8267 92.0882 94.9606 90.8488 92.812 90.1054C90.6054 89.341 88.2104 89.316 86.0256 90.1554C83.8176 91.0041 82.0442 92.5592 80.6432 94.2946C79.0842 96.226 78.0222 98.4311 77.2167 100.702C76.2619 103.391 75.6939 106.196 75.5172 109.017C75.4317 110.379 75.4433 111.743 75.5433 113.105C75.5896 113.714 76.6487 113.718 76.6038 113.1Z" fill="#A82D2D"/>
<path d="M212.261 11.9406L219.368 15.6666V18.1704C219.368 19.1505 219.944 20.057 220.879 20.5465L241.047 31.1101C242.313 31.7732 243.894 30.9443 243.897 29.6181L243.898 28.5261L252.571 33.0731C256.564 35.1914 259.018 39.0753 259.018 43.2736V164.743C259.018 168.687 256.322 170.37 252.571 168.381L210.536 146.221C206.644 144.156 204.252 140.371 204.252 136.278V14.6693C204.252 11.167 207.522 9.39473 212.261 11.9406Z" fill="#EBEDF6"/>
<path d="M209.761 41.7698C209.779 50.1546 209.744 68.7716 209.732 74.2856C209.731 75.2763 210.309 76.192 211.251 76.692L244.67 94.1117C246.307 94.9787 248.364 93.9064 248.364 92.1842V59.6118C248.364 58.375 247.635 57.2317 246.452 56.6173L213.802 39.6383C212.001 38.7016 209.759 39.8844 209.761 41.7698Z" fill="white"/>
<path d="M208.853 87.2636C208.871 95.6485 208.836 114.265 208.824 119.78C208.823 120.77 209.401 121.686 210.343 122.186L224.472 129.717C226.109 130.584 228.166 129.512 228.166 127.789V95.217C228.166 93.9802 227.437 92.8369 226.254 92.2225L212.894 85.1322C211.093 84.1955 208.849 85.3783 208.853 87.2636Z" fill="#6F7184"/>
<path d="M230.798 97.8891C230.815 106.274 230.78 124.891 230.769 130.405C230.767 131.396 231.345 132.311 232.287 132.811L246.416 140.342C248.053 141.209 250.111 140.137 250.111 138.415V105.842C250.111 104.606 249.382 103.462 248.198 102.848L234.838 95.7577C233.037 94.821 230.793 96.0038 230.798 97.8891Z" fill="#5F98F4"/>
<path d="M222.918 104.783C220.487 101.137 216.286 99.41 213.531 100.924C210.779 102.439 210.516 106.621 212.946 110.266C215.377 113.911 219.579 115.639 222.333 114.125C225.087 112.61 225.349 108.429 222.918 104.783ZM221.058 112.21C219.196 113.234 216.288 111.966 214.563 109.379C212.837 106.791 212.947 103.864 214.809 102.84C216.671 101.816 219.579 103.085 221.304 105.671C223.03 108.258 222.918 111.187 221.058 112.21Z" fill="#A82D2D"/>
<path d="M217.923 102.824C219.161 103.314 220.396 104.31 221.303 105.671C222.276 107.13 222.665 108.696 222.486 109.968L224.471 111.031C224.828 109.183 224.324 106.892 222.917 104.783C221.602 102.81 219.765 101.398 217.922 100.759V102.824H217.923Z" fill="#FF9E26"/>
<path d="M209.169 22.9582C212.52 24.6988 215.871 26.4381 219.223 28.1788C222.574 29.9194 225.925 31.6588 229.276 33.3994C231.174 34.3849 233.071 35.3703 234.969 36.3558C235.474 36.6176 236.207 36.4781 236.49 35.994C236.769 35.5137 236.63 34.8927 236.091 34.6125C232.74 32.8718 229.389 31.1325 226.038 29.3919C222.687 27.6512 219.336 25.9119 215.984 24.1712C214.086 23.1858 212.19 22.2003 210.292 21.2149C209.786 20.9531 209.053 21.0925 208.771 21.5767C208.491 22.0569 208.63 22.6779 209.169 22.9582Z" fill="#585971"/>
<path d="M209.169 30.4746C212.52 32.2153 215.871 33.9546 219.223 35.6953C222.574 37.4359 225.925 39.1753 229.276 40.9159C231.174 41.9014 233.071 42.8868 234.969 43.8723C235.474 44.1341 236.207 43.9946 236.49 43.5105C236.769 43.0302 236.63 42.4092 236.091 42.129C232.74 40.3883 229.389 38.649 226.038 36.9083C222.687 35.1677 219.336 33.4284 215.984 31.6877C214.086 30.7023 212.19 29.7168 210.292 28.7314C209.786 28.4695 209.053 28.609 208.771 29.0932C208.491 29.5734 208.63 30.1944 209.169 30.4746Z" fill="#585971"/>
<path d="M209.747 44.7106L209.687 44.8048L248.32 65.3658L248.381 65.2716L209.747 44.7106Z" fill="#A0A0A0"/>
<path d="M209.747 50.4426L209.687 50.5369L248.32 71.0979L248.381 71.0036L209.747 50.4426Z" fill="#A0A0A0"/>
<path d="M209.746 56.6027L209.686 56.6969L248.319 77.2579L248.38 77.1637L209.746 56.6027Z" fill="#A0A0A0"/>
<path d="M209.746 62.565L209.686 62.6592L248.319 83.2202L248.38 83.126L209.746 62.565Z" fill="#A0A0A0"/>
<path d="M209.745 68.4447L209.685 68.5389L248.318 89.0999L248.379 89.0057L209.745 68.4447Z" fill="#A0A0A0"/>
<path d="M210.352 58.5712C210.978 57.8081 211.629 57.0042 212.518 56.474C213.346 55.9793 214.429 55.7056 215.37 56.1043C217.325 56.9292 217.528 59.2527 217.77 60.9434C218.032 62.7814 218.245 64.6457 218.869 66.4179C219.488 68.1704 220.544 69.7769 222.136 70.9399C222.907 71.503 223.856 72.1254 224.87 72.2017C225.867 72.2767 226.828 71.707 227.499 71.0873C228.813 69.8729 229.347 68.1625 229.767 66.5508C230.001 65.6561 230.222 64.7536 230.577 63.8905C230.915 63.0708 231.41 62.1775 232.196 61.6367C232.562 61.3841 233.029 61.196 233.492 61.3117C233.855 61.4025 234.108 61.663 234.297 61.9446C234.741 62.6116 234.924 63.3932 235.377 64.0589C235.895 64.8207 236.655 65.4996 237.551 65.8877C238.547 66.3206 239.531 66.2364 240.515 65.8232C241.48 65.418 242.355 64.8891 243.365 64.5681C244.337 64.2589 245.37 64.0747 246.403 64.1681C246.899 64.2128 247.391 64.3339 247.843 64.5233C248.263 64.6996 248.633 64.1326 248.208 63.955C246.248 63.1353 244.069 63.5208 242.172 64.301C241.209 64.697 240.282 65.3904 239.214 65.5233C238.159 65.6548 237.171 65.0141 236.502 64.3352C235.863 63.6879 235.585 62.9064 235.208 62.1262C234.888 61.4617 234.389 60.7921 233.548 60.65C232.539 60.4789 231.623 61.092 231.034 61.7762C230.396 62.5156 229.978 63.3774 229.669 64.2681C229.079 65.9666 228.881 67.7889 227.955 69.3822C227.526 70.1203 226.942 70.7965 226.144 71.2268C225.654 71.4912 225.111 71.6294 224.552 71.4833C224.042 71.3491 223.569 71.0715 223.135 70.8018C221.406 69.7269 220.243 68.1191 219.597 66.3285C218.948 64.5273 218.736 62.6314 218.467 60.7618C218.204 58.9435 217.935 56.8068 216.083 55.7135C215.234 55.2122 214.187 55.1425 213.236 55.4293C212.224 55.7359 211.399 56.3674 210.712 57.0937C210.365 57.4621 210.044 57.8515 209.726 58.2396C209.448 58.5791 210.076 58.908 210.352 58.5712Z" fill="#FF9E26"/>
<path d="M210.239 67.6823C212.734 65.364 215.599 62.6879 219.382 62.4511C220.93 62.3537 222.571 62.6419 223.822 63.5155C225.246 64.5115 225.753 66.0942 225.989 67.6454C226.238 69.2808 226.27 70.9531 226.896 72.5214C227.502 74.0383 228.526 75.433 229.923 76.4408C231.372 77.4868 233.184 78.0959 235.04 78.1051C236.742 78.1143 238.319 77.5657 239.71 76.7013C240.987 75.9066 242.102 74.9251 243.269 74.0081C244.385 73.1318 245.595 72.2701 247.022 71.8648C247.361 71.7688 247.71 71.6951 248.064 71.6556C248.52 71.6056 248.526 70.9465 248.064 70.9978C244.898 71.3478 242.752 73.6555 240.425 75.3909C239.201 76.304 237.835 77.1026 236.251 77.3591C234.404 77.6591 232.445 77.217 230.895 76.2763C229.388 75.3632 228.257 73.9594 227.628 72.4253C226.98 70.8465 226.945 69.1624 226.695 67.5112C226.456 65.9324 225.935 64.3273 224.579 63.2326C223.377 62.263 221.777 61.8143 220.188 61.7735C216.38 61.6762 213.307 63.9576 210.756 66.2666C210.41 66.5797 210.068 66.8968 209.727 67.2139C209.4 67.5204 209.911 67.9862 210.239 67.6823Z" fill="#A82D2D"/>
<path d="M232.158 110.997C232.158 113.746 232.158 116.494 232.158 119.243C232.158 119.676 232.9 119.677 232.9 119.243C232.9 116.494 232.9 113.746 232.9 110.997C232.9 110.564 232.158 110.563 232.158 110.997Z" fill="white"/>
<path d="M235.265 111.224C235.265 114.381 235.265 117.538 235.265 120.695C235.265 121.41 235.265 122.124 235.265 122.838C235.265 123.271 236.006 123.273 236.006 122.838C236.006 119.681 236.006 116.524 236.006 113.367C236.006 112.652 236.006 111.938 236.006 111.224C236.006 110.789 235.265 110.789 235.265 111.224Z" fill="white"/>
<path d="M238.201 115.605C238.201 117.755 238.201 119.903 238.201 122.053C238.201 122.486 238.943 122.487 238.943 122.053C238.943 119.903 238.943 117.755 238.943 115.605C238.943 115.171 238.201 115.171 238.201 115.605Z" fill="white"/>
<path d="M241.309 118.976C241.309 120.302 241.309 121.627 241.309 122.953C241.309 123.386 242.05 123.387 242.05 122.953C242.05 121.627 242.05 120.302 242.05 118.976C242.049 118.541 241.309 118.541 241.309 118.976Z" fill="white"/>
<path d="M244.283 117.965C244.283 120.602 244.283 123.237 244.283 125.874C244.283 126.511 244.283 127.147 244.283 127.783C244.283 128.216 245.025 128.217 245.025 127.783C245.025 125.146 245.025 122.511 245.025 119.874C245.025 119.237 245.025 118.601 245.025 117.965C245.024 117.532 244.283 117.531 244.283 117.965Z" fill="white"/>
<path d="M247.39 123.582C247.39 123.983 247.39 124.383 247.39 124.784C247.39 125.217 248.131 125.218 248.131 124.784V124.783C248.131 124.35 247.39 124.349 247.39 124.783C247.39 125.184 247.39 125.584 247.39 125.985C247.39 126.418 248.131 126.42 248.131 125.985C248.131 125.584 248.131 125.184 248.131 124.783C248.131 124.35 247.39 124.349 247.39 124.783V124.784C247.39 125.217 248.131 125.218 248.131 124.784C248.131 124.383 248.131 123.983 248.131 123.582C248.131 123.149 247.39 123.148 247.39 123.582Z" fill="white"/>
<path d="M228.398 145.296C230.204 144.349 230.181 141.244 228.348 138.36C226.514 135.476 223.564 133.906 221.758 134.853C219.952 135.799 219.975 138.905 221.808 141.789C223.642 144.673 226.592 146.243 228.398 145.296Z" fill="#FF9E26"/>
<path d="M224.927 137.416C224.927 139.19 224.927 140.965 224.927 142.739C224.927 142.925 225.244 142.925 225.244 142.739C225.244 140.965 225.244 139.191 225.244 137.416C225.244 137.231 224.927 137.231 224.927 137.416Z" fill="white"/>
<path d="M222.41 139.448C224.165 139.961 225.921 140.474 227.675 140.987C227.871 141.044 227.953 140.766 227.759 140.709C226.005 140.196 224.249 139.683 222.494 139.17C222.3 139.112 222.216 139.391 222.41 139.448Z" fill="white"/>
<path d="M210.888 135.155V136.276L211.741 136.727V135.616L210.888 135.155Z" fill="white"/>
<path d="M212.132 134.707V136.927L212.985 137.378V135.168L212.132 134.707Z" fill="white"/>
<path d="M213.348 134.248V137.568L214.201 138.019V134.71L213.348 134.248Z" fill="white"/>
<path d="M214.536 133.777V138.195L215.389 138.646V134.238L214.536 133.777Z" fill="white"/>
<path d="M215.742 133.303V138.82L216.596 139.271V133.765L215.742 133.303Z" fill="white"/>
<path d="M234.661 142.622V146.723C234.661 147.092 234.878 147.431 235.232 147.614L239.167 149.647C239.919 150.035 240.853 149.542 240.853 148.756V144.687C240.853 144.321 240.639 143.983 240.29 143.8L236.355 141.736C235.601 141.341 234.661 141.834 234.661 142.622Z" fill="white"/>
<path d="M213.524 43.2828C217.522 45.355 221.519 47.4272 225.515 49.4994C229.495 51.5624 233.474 53.6254 237.453 55.6884C239.705 56.8554 241.956 58.0225 244.208 59.1908C244.614 59.4013 244.979 58.8329 244.573 58.6224C240.576 56.5502 236.578 54.478 232.583 52.4058C228.603 50.3428 224.624 48.2798 220.644 46.2168C218.393 45.0498 216.141 43.8828 213.89 42.7145C213.484 42.5039 213.119 43.0723 213.524 43.2828Z" fill="#6F7184"/>
<path d="M213.524 75.3658C217.522 77.438 221.519 79.5102 225.515 81.5824C229.495 83.6454 233.474 85.7084 237.453 87.7714C239.705 88.9384 241.956 90.1055 244.208 91.2738C244.614 91.4843 244.979 90.9159 244.573 90.7054C240.576 88.6332 236.578 86.561 232.583 84.4888C228.603 82.4258 224.624 80.3628 220.644 78.2998C218.393 77.1328 216.141 75.9658 213.89 74.7974C213.484 74.5882 213.119 75.1566 213.524 75.3658Z" fill="#6F7184"/>
<path d="M192.802 75.6685L212.139 85.844C212.787 86.1848 213.185 86.8137 213.185 87.4926L213.184 99.5955C213.184 101.064 211.431 101.981 210.031 101.244L196.196 93.9473C192.157 94.2894 190.75 94.4775 190.75 94.4775L191.993 91.7317L190.698 91.0554C190.05 90.7147 189.653 90.0871 189.653 89.4069V77.317C189.652 75.8487 191.404 74.933 192.802 75.6685Z" fill="#DDDFE6"/>
<path d="M213.184 99.5969L213.185 87.4939C213.185 86.8136 212.787 86.1861 212.139 85.8453L192.802 75.6698C192.323 75.4185 191.805 75.3593 191.328 75.4501C191.964 74.8856 192.977 74.7001 193.853 75.1606L213.191 85.3361C213.839 85.6769 214.237 86.3058 214.237 86.9847L214.236 99.0877C214.236 100.295 212.59 101.514 211.226 101.501C212.265 101.434 213.184 100.66 213.184 99.5969Z" fill="#333333"/>
<path d="M193.201 85.473V85.619C193.201 85.8282 193.324 86.0203 193.523 86.1256L204.663 91.9488C205.093 92.1751 205.631 91.8935 205.631 91.4423V91.2962C205.631 91.087 205.508 90.8949 205.309 90.7897L194.169 84.9665C193.74 84.7402 193.201 85.0217 193.201 85.473Z" fill="#333333"/>
<path d="M193.201 82.1667V82.3127C193.201 82.5219 193.324 82.714 193.523 82.8192L207.908 90.366C208.339 90.5923 208.876 90.3108 208.876 89.8595V89.7134C208.876 89.5042 208.753 89.3122 208.555 89.2069L194.169 81.6601C193.74 81.4338 193.201 81.7167 193.201 82.1667Z" fill="#333333"/>
<path d="M325.098 123.407L305.76 133.582C305.112 133.923 304.714 134.552 304.714 135.231L304.715 147.334C304.715 148.802 306.468 149.719 307.868 148.982L321.703 141.685C325.742 142.027 327.149 142.216 327.149 142.216L325.906 139.47L327.201 138.794C327.849 138.453 328.246 137.825 328.246 137.145V125.055C328.249 123.588 326.497 122.671 325.098 123.407Z" fill="#DDDFE6"/>
<path d="M304.715 147.335L304.714 135.232C304.714 134.552 305.112 133.924 305.76 133.583L325.098 123.408C325.576 123.157 326.094 123.097 326.571 123.188C325.935 122.624 324.921 122.438 324.046 122.899L304.708 133.074C304.061 133.415 303.662 134.044 303.662 134.723L303.664 146.826C303.664 148.034 305.309 149.252 306.673 149.239C305.635 149.172 304.715 148.398 304.715 147.335Z" fill="#333333"/>
<path d="M324.698 133.211V133.357C324.698 133.566 324.575 133.758 324.377 133.864L313.236 139.687C312.806 139.913 312.269 139.632 312.269 139.18V139.034C312.269 138.825 312.392 138.633 312.59 138.528L323.73 132.705C324.161 132.478 324.698 132.76 324.698 133.211Z" fill="#333333"/>
<path d="M324.697 129.905V130.051C324.697 130.26 324.574 130.452 324.376 130.557L309.99 138.104C309.56 138.33 309.022 138.049 309.022 137.598V137.452C309.022 137.242 309.146 137.05 309.344 136.945L323.73 129.398C324.16 129.173 324.697 129.455 324.697 129.905Z" fill="#333333"/>
<path d="M209.156 156.036L209.15 215.866C209.15 217.106 209.878 218.25 211.06 218.87L287.86 259.129C288.635 259.535 289.601 259.022 289.593 258.209L288.9 197.148C288.887 196.052 288.244 195.043 287.202 194.489L212.077 154.513C210.785 153.827 209.156 154.674 209.156 156.036Z" fill="#EBEDF6"/>
<path d="M259.1 243.876C259.401 242.163 259.68 240.628 259.842 239.413C260.805 232.256 270.889 219.027 270.889 219.027C270.889 219.027 262.968 221.48 259.745 216.583C249.587 227.092 248.586 233.646 247.986 236.021C247.901 236.362 247.872 237.054 247.87 237.988L259.1 243.876Z" fill="#585971"/>
<path d="M271.472 250.361C271.426 247.651 271.6 245.448 272.504 244.572L272.846 251.082L282.38 256.08L281.926 234.253C281.926 234.253 281.676 222.959 269.671 218.64C269.671 218.64 259.968 232.427 258.363 239.488C258.108 240.608 257.879 241.831 257.681 243.131L271.472 250.361Z" fill="white"/>
<path d="M248.983 238.572C249.048 237.05 249.113 236.002 249.205 235.642C249.804 233.268 249.623 227.119 259.783 216.61C247.473 212.322 244.251 227.131 243.376 235.632L248.983 238.572Z" fill="white"/>
<path d="M254.125 215.848C253.111 217.1 252.225 218.435 251.487 219.837C250.747 221.244 249.963 222.793 249.889 224.374C249.869 224.799 250.596 224.797 250.616 224.374C250.654 223.568 250.925 222.797 251.234 222.047C251.52 221.354 251.844 220.673 252.201 220.007C252.922 218.664 253.779 217.383 254.754 216.179C255.031 215.839 254.399 215.508 254.125 215.848Z" fill="#444444"/>
<path d="M259.783 216.61L253.247 217.502V220.421L249.205 222.958C249.205 222.958 247.304 229.899 248.994 238.407C248.995 238.407 247.716 228.986 259.783 216.61Z" fill="#DDDFE6"/>
<path d="M259.031 205.991C258.862 205.767 258.909 198.444 258.909 198.444L257.085 197.148C257.075 197.09 257.039 197.049 256.975 197.07C256.975 197.07 255.986 197.207 255.008 198.224C254.717 198.478 254.454 198.752 254.233 199.033C253.52 199.941 253.003 200.862 252.704 201.94C252.394 203.062 252.281 204.228 252.311 205.383C252.343 206.622 252.545 207.854 252.829 209.066C253.123 210.317 253.51 211.547 253.905 212.774C253.915 212.805 253.924 212.835 253.934 212.865C253.925 213.117 253.907 213.368 253.876 213.615C253.672 215.307 252.869 216.753 255.81 217.374C256.459 217.511 257.646 217.543 258.304 217.449C259.082 217.34 259.766 216.579 260.132 216.316C261.678 215.214 259.202 206.216 259.031 205.991ZM253.207 209.555C252.9 208.358 252.665 207.142 252.587 205.913C252.514 204.778 252.574 203.63 252.82 202.515C252.994 201.728 253.321 201.029 253.733 200.344C253.26 201.629 252.982 203.413 253.159 205.889C253.302 207.893 253.865 210.008 253.937 212.051C253.675 211.223 253.423 210.393 253.207 209.555Z" fill="#120621"/>
<path d="M270.222 219.207C270.309 219.146 270.355 219.112 270.355 219.112C268.579 217.173 269.293 209.917 269.293 209.917C274.658 207.505 269.615 204.025 269.615 204.025C264.918 191.029 257.207 197.891 257.207 197.891C252.138 214.572 260.199 214.194 260.199 214.194C260.199 214.194 260.947 215.628 259.783 216.61C259.783 216.61 261.999 221.053 270.222 219.207Z" fill="#FCB697"/>
<path d="M269.671 218.64L271.764 222.857C271.764 222.857 267.407 225.53 267.407 225.839C267.407 226.149 266.84 230.981 266.84 230.981L257.914 241.716C257.914 241.716 257.914 235.454 269.671 218.64Z" fill="#DDDFE6"/>
<path d="M279.773 210.85C278.894 209.785 278.218 208.595 277.774 207.328C277.297 205.971 277.035 204.557 276.728 203.163C276.661 202.863 276.596 202.563 276.529 202.262C276.448 201.738 276.338 201.239 276.199 200.764C276.197 200.754 276.194 200.746 276.193 200.737C276.19 200.727 276.187 200.718 276.183 200.708C273.185 190.651 257.814 191.631 256.984 197.11C256.89 197.728 256.923 198.39 257.077 199.057C257.346 200.496 258.014 201.86 258.963 203.04C260.053 204.395 261.494 205.53 263.133 206.308C264.185 206.807 265.35 207.154 266.548 207.11C266.707 207.105 266.709 206.878 266.548 206.884C265.508 206.922 264.489 206.655 263.558 206.249C262.72 205.883 261.933 205.417 261.218 204.88C260.009 203.975 258.989 202.858 258.272 201.592C259.988 203.909 263.646 206.57 268.368 205.9C268.368 205.9 271.319 205.878 269.615 208.466C269.451 208.618 268.785 209.513 268.036 209.447C268.036 209.447 269.533 212.417 267.259 215.769C265.69 218.082 268.559 221.28 272.732 220.828C276.762 220.39 279.782 216.768 278.931 213.164C278.688 212.134 278.062 210.876 277.672 209.119C277.311 207.489 276.79 205.821 276.693 204.159C276.762 204.474 276.833 204.788 276.904 205.103C277.214 206.464 277.598 207.809 278.275 209.063C278.636 209.731 279.067 210.367 279.559 210.961C279.653 211.079 279.869 210.967 279.773 210.85Z" fill="#120621"/>
<path d="M268.127 228.392C265.606 228.619 263.98 232.622 264.494 237.331C264.522 237.578 264.555 237.821 264.591 238.062C264.594 238.108 264.606 238.148 264.622 238.191C264.826 238.746 265.346 239.105 265.895 239.369C266.497 239.657 267.166 239.807 267.847 239.768C268.24 239.746 268.169 239.195 267.777 239.217C267.23 239.249 266.698 239.116 266.213 238.894C265.774 238.692 265.339 238.44 265.175 237.999C265.172 237.99 265.165 237.958 265.165 237.958C265.165 237.958 265.122 237.541 265.093 237.277C264.623 232.983 266.019 229.342 268.208 229.144C270.398 228.947 272.554 232.268 273.022 236.561C273.279 238.901 272.98 241.047 272.301 242.549C272.299 242.549 272.299 242.549 272.298 242.549C272.251 242.527 272.194 242.518 272.146 242.5C272.028 242.452 271.924 242.387 271.826 242.314C271.621 242.167 271.434 241.997 271.259 241.822C270.895 241.458 270.577 241.054 270.317 240.621C270.1 240.258 269.433 240.496 269.654 240.864C270.035 241.503 270.506 242.079 271.082 242.583C271.44 242.896 272.37 243.551 272.786 243.013C272.788 243.013 272.788 243.013 272.789 243.013C272.79 243.01 272.79 243.008 272.792 243.005C272.806 242.987 272.819 242.966 272.832 242.945C272.859 242.901 272.872 242.858 272.874 242.818C273.58 241.185 273.886 238.941 273.621 236.507C273.108 231.798 270.648 228.164 268.127 228.392Z" fill="#D3D5DD"/>
<path d="M273.624 236.508C273.223 232.839 271.641 229.822 269.769 228.776C269.779 228.75 269.786 228.721 269.789 228.69C269.864 227.981 270.318 227.408 270.7 226.809C271.131 226.137 271.525 225.437 271.799 224.699C272.303 223.336 272.327 221.737 271.38 220.523C271.112 220.179 270.48 220.508 270.752 220.855C271.686 222.05 271.519 223.568 270.96 224.867C270.663 225.556 270.256 226.204 269.835 226.837C269.485 227.366 269.198 227.885 269.091 228.488C268.773 228.396 268.45 228.36 268.127 228.39C266.403 228.546 265.096 230.469 264.609 233.177L265.177 233.474C265.592 231.018 266.716 229.279 268.21 229.143C270.4 228.946 272.555 232.266 273.024 236.56C273.063 236.921 273.089 237.278 273.104 237.629L273.715 237.95C273.707 237.48 273.678 236.999 273.624 236.508Z" fill="#444444"/>
<path d="M287.965 260.625L287.968 260.626C287.975 260.629 287.982 260.631 287.989 260.634C287.981 260.631 287.974 260.627 287.965 260.625Z" fill="#585971"/>
<path d="M290.378 197.856C290.365 196.76 289.722 195.751 288.68 195.197L213.555 155.221C212.644 154.736 210.882 155.255 209.92 156.08C210.51 155.675 211.347 155.574 212.076 155.962L287.201 195.938C288.241 196.492 288.886 197.501 288.899 198.597L289.592 259.658C289.6 260.417 288.756 260.915 288.012 260.644C289.184 261.109 290.972 260.425 291.069 258.917L290.378 197.856Z" fill="#585971"/>
<path d="M214.32 173.192V207.593L241.957 222.629V187.911L214.32 173.192Z" fill="#D35050"/>
<path d="M235.254 194.826C231.632 189.395 225.37 186.82 221.269 189.076C217.165 191.333 216.776 197.564 220.398 202.995C224.02 208.426 230.282 211.001 234.383 208.745C238.487 206.489 238.876 200.257 235.254 194.826ZM232.481 205.892C229.708 207.417 225.375 205.528 222.804 201.673C220.234 197.818 220.398 193.455 223.172 191.93C225.947 190.405 230.279 192.294 232.849 196.149C235.419 200.004 235.254 204.367 232.481 205.892Z" fill="#333333"/>
<path d="M227.81 191.908C229.654 192.637 231.494 194.121 232.847 196.149C234.296 198.323 234.876 200.657 234.609 202.553L237.568 204.137C238.102 201.383 237.35 197.97 235.254 194.826C233.292 191.884 230.557 189.782 227.81 188.829V191.908Z" fill="#FF9E26"/>
<path d="M124.93 204.5C130.436 204.5 134.9 202.409 134.9 199.828C134.9 197.248 130.436 195.156 124.93 195.156C119.424 195.156 114.961 197.248 114.961 199.828C114.961 202.409 119.424 204.5 124.93 204.5Z" fill="#BFBFBF"/>
<path d="M124.746 176.166C119.626 176.166 115.405 174.544 114.807 172.45C114.756 172.393 114.734 172.361 114.734 172.361L119.687 201.138C119.687 201.138 121.421 202.511 124.715 202.511C127.975 202.511 129.665 201.138 129.665 201.138L134.673 172.489C134.039 174.563 129.836 176.166 124.746 176.166Z" fill="#585971"/>
<path d="M124.756 188.814C127.657 188.814 130.269 188.293 132.098 187.46L132.621 184.466C130.786 185.437 127.96 186.061 124.787 186.061C121.554 186.061 118.68 185.414 116.849 184.41L117.37 187.44C119.203 188.285 121.833 188.814 124.756 188.814Z" fill="#EBEDF6"/>
<path d="M124.757 190.833C122.027 190.833 119.554 190.371 117.747 189.624L117.998 191.08C119.783 191.776 122.167 192.201 124.787 192.201C127.349 192.201 129.686 191.795 131.456 191.127L131.715 189.644C129.916 190.379 127.462 190.833 124.757 190.833Z" fill="#EBEDF6"/>
<path d="M124.746 176.378C130.275 176.378 134.757 174.486 134.757 172.152C134.757 169.818 130.275 167.926 124.746 167.926C119.217 167.926 114.734 169.818 114.734 172.152C114.734 174.486 119.217 176.378 124.746 176.378Z" fill="#727B8E"/>
<path d="M124.889 175.328C129.492 175.328 133.223 173.84 133.223 172.006C133.223 170.171 129.492 168.684 124.889 168.684C120.287 168.684 116.556 170.171 116.556 172.006C116.556 173.84 120.287 175.328 124.889 175.328Z" fill="#EBEDF6"/>
<path d="M131.912 166.117C131.912 166.117 137.044 169.72 145.912 164.663C153.979 160.063 160.556 168.31 160.556 168.31C160.556 168.31 151.093 152.822 137.167 159.213C137.166 159.215 132.145 161.429 131.912 166.117Z" fill="#7BC980"/>
<path d="M120.581 169.77C120.581 169.77 114.838 172.51 107.072 166.133C100.007 160.33 91.9531 167.415 91.9531 167.415C91.9531 167.415 104.233 153.655 116.727 162.145C116.725 162.145 121.247 165.117 120.581 169.77Z" fill="#7BC980"/>
<path d="M126.865 164.162C126.865 164.162 132.757 164.012 137.065 155.344C139.586 150.269 148.951 148.846 148.951 148.846C148.951 148.846 136.075 142.55 128.276 154.39C128.274 154.391 124.89 160.089 126.865 164.162Z" fill="#7BC980"/>
<path d="M121.29 162.47C121.29 162.47 115.415 162.909 110.083 154.726C106.961 149.934 97.4814 149.456 97.4814 149.456C97.4814 149.456 109.514 141.911 118.704 152.898C118.704 152.899 122.758 158.225 121.29 162.47Z" fill="#7BC980"/>
<path d="M124.542 160.675C124.542 160.675 131.027 155.337 126.837 146.622C122.738 138.098 124.252 132.343 124.252 132.343C124.252 132.343 121.214 133.31 119.341 145.088C118.767 148.698 118.764 152.256 120.184 155.669C120.987 157.602 123.06 159.688 124.542 160.675Z" fill="#7BC980"/>
<path d="M127.053 175.241C127.851 170.749 130.997 166.697 135.261 164.339C136.459 163.677 137.741 163.154 139.086 162.791C139.361 162.717 139.243 162.325 138.967 162.399C134.057 163.723 129.936 167.157 127.861 171.39C127.276 172.586 126.853 173.84 126.623 175.133C126.576 175.388 127.007 175.499 127.053 175.241Z" fill="#4DA34F"/>
<path d="M123.032 175.267C122.27 170.985 119.284 167.126 115.21 164.889C114.063 164.259 112.828 163.763 111.543 163.415C111.266 163.34 111.149 163.733 111.424 163.808C115.9 165.015 119.623 168.118 121.501 171.983C122.027 173.065 122.394 174.208 122.602 175.375C122.647 175.633 123.077 175.524 123.032 175.267Z" fill="#4DA34F"/>
<path d="M126.369 175.321C126.008 171.515 126.198 167.674 127.183 163.952C128.067 160.608 129.549 157.399 131.724 154.574C132.919 153.02 134.32 151.603 135.901 150.365C136.119 150.194 135.802 149.909 135.585 150.078C132.757 152.291 130.522 155.087 128.933 158.149C127.215 161.462 126.231 165.079 125.886 168.72C125.679 170.918 125.714 173.127 125.921 175.321C125.946 175.579 126.393 175.582 126.369 175.321Z" fill="#4DA34F"/>
<path d="M123.68 175.328C123.837 173.683 123.897 172.028 123.687 170.386C123.498 168.901 123.098 167.452 122.637 166.019C122.098 164.343 121.523 162.679 120.745 161.079C119.991 159.529 119.079 158.042 118.007 156.656C116.795 155.089 115.386 153.653 113.789 152.403C113.572 152.234 113.254 152.519 113.473 152.69C116.277 154.883 118.48 157.644 120.055 160.678C120.867 162.241 121.459 163.868 122.008 165.521C122.488 166.967 122.935 168.427 123.175 169.924C123.46 171.715 123.403 173.531 123.234 175.328C123.209 175.588 123.656 175.587 123.68 175.328Z" fill="#4DA34F"/>
<path d="M123.435 149.471C124.346 156.153 124.666 162.899 124.382 169.627C124.302 171.527 124.173 173.425 123.998 175.321C123.974 175.582 124.421 175.58 124.446 175.321C125.064 168.611 125.091 161.859 124.514 155.146C124.352 153.251 124.14 151.357 123.882 149.471C123.847 149.214 123.4 149.211 123.435 149.471Z" fill="#4DA34F"/>
<path d="M187.523 220.876C198.795 220.876 207.933 216.595 207.933 211.313C207.933 206.031 198.795 201.749 187.523 201.749C176.251 201.749 167.113 206.031 167.113 211.313C167.113 216.595 176.251 220.876 187.523 220.876Z" fill="#DDDFE6"/>
<path d="M196.642 140.631C183.23 126.168 190.054 123.906 190.054 123.906C195.79 118.948 203.366 133.239 203.366 133.239L206.302 137.732L214.467 131.306L217.392 133.765C217.392 133.765 208.071 147.753 203.872 145.597C199.635 143.422 195.997 140.01 196.642 140.631Z" fill="#5267D1"/>
<path d="M197.374 153.965V213.417C197.374 213.417 190.65 216.254 186.089 213.886C185.926 212.998 185.376 167.283 185.376 167.283L184.67 207.868C184.67 207.868 178.356 211.826 173.917 207.646C173.755 206.907 174.772 149.503 174.772 149.503C174.772 149.503 178.963 156.583 197.374 153.965Z" fill="#333333"/>
<path d="M195.696 156.043C193.133 156.829 190.388 157.142 188.566 157.22C187.557 157.263 186.089 157.267 184.973 157.171C176.538 156.435 174.051 154.503 174.436 149.694C174.842 144.619 173.626 133.295 173.626 133.295C170.463 113.077 182.586 117.942 182.586 117.942C182.622 117.862 183.298 118.221 184.079 118.669C185.48 119.471 187.058 119.982 188.703 120.169C190.848 120.412 193.976 121.384 196.597 124.087C208.074 135.915 197.486 138.637 197.58 140.339C197.677 142.077 197.529 143.076 197.478 145.303C197.468 145.727 197.372 146.826 197.703 149.758C197.703 149.758 198.114 152.913 197.71 154.422C197.51 155.179 196.51 155.795 195.696 156.043Z" fill="#5267D1"/>
<path d="M193.638 164.349H193.46V211.383H193.638V164.349Z" fill="white"/>
<path d="M181.892 165.4L180.948 207.215L181.126 207.218L182.071 165.404L181.892 165.4Z" fill="white"/>
<path d="M193.786 107.326C194.037 107.41 195.535 119.4 189.338 118.053C189.338 118.053 189.353 119.466 189.879 120.361C189.879 120.361 185.481 121.796 182.83 119.815C182.362 119.465 182.182 118.887 182.375 118.366C182.561 117.863 182.832 117.144 183.162 116.306C184.036 114.089 181.874 103.332 193.786 107.326Z" fill="#FBAA78"/>
<path d="M216.963 133.403L214.787 131.647L215.762 129.361C215.909 129.019 216.243 128.772 216.643 128.713L218.431 128.446L221.476 125.517C221.476 125.517 222.196 125.577 221.866 125.99C221.536 126.405 219.38 129.006 219.38 129.006C219.38 129.006 221.239 130.878 220.078 131.857C219.497 132.348 218.918 132.561 218.567 132.65C218.312 132.716 218.073 132.828 217.866 132.978L216.963 133.403Z" fill="#FBAA78"/>
<path d="M190.171 120.428L189.566 119.6C189.566 119.6 184.551 120.844 182.588 117.943C182.588 117.943 181.01 119.911 184.953 120.719C188.766 121.42 190.171 120.428 190.171 120.428Z" fill="white"/>
<path d="M196.587 140.571C196.55 140.542 196.568 140.559 196.642 140.631C196.623 140.61 196.605 140.591 196.587 140.571C196.669 140.638 197.033 140.955 197.607 141.418C197.572 143.333 197.443 145.678 197.466 146.636C192.234 143.272 188.841 137.262 189.382 130.803C190.51 133.186 192.688 136.359 196.587 140.571Z" fill="#2F2FA5"/>
<path d="M176.902 118.046C176.901 118.046 176.901 118.047 176.9 118.047C176.901 118.046 176.901 118.046 176.902 118.046Z" fill="#333333"/>
<path d="M170.273 137.462L170.512 132.48C170.631 123.95 173.862 120.162 176.025 118.6C173.817 120.323 172.229 124.358 173.627 133.294C173.627 133.294 174.756 140.313 174.664 145.406L171.158 140.441C170.531 139.555 170.222 138.515 170.273 137.462Z" fill="#5267D1"/>
<path d="M173.194 129.617C173.278 130.74 173.42 131.962 173.627 133.294C173.627 133.294 174.389 138.034 174.609 142.551C172.228 138.492 173.194 129.617 173.194 129.617Z" fill="#2F2FA5"/>
<path d="M182.882 156.947C183.536 157.031 184.231 157.106 184.975 157.171C186.09 157.268 187.556 157.263 188.568 157.22C190.389 157.142 193.134 156.829 195.697 156.043C196.283 155.864 196.967 155.495 197.378 155.018C197.378 155.907 197.378 157.614 197.378 157.614C197.378 157.614 177.391 161.98 174.717 152.732C175.457 154.882 177.564 156.101 181.748 156.781L182.882 156.947Z" fill="#191919"/>
<path d="M184.67 207.868L184.761 202.579L185.465 202.408C185.465 202.408 185.603 202.404 185.845 202.381C185.889 205.178 185.931 207.667 185.968 209.61C185.16 209.881 184.286 210.168 183.352 210.485V211.318C183.352 211.318 176.887 214.689 173.899 210.577V206.592C173.899 207.225 173.905 207.592 173.917 207.646C178.357 211.826 184.67 207.868 184.67 207.868Z" fill="#191919"/>
<path d="M173.905 205.212C173.901 205.757 173.899 206.221 173.899 206.592V205.213L173.905 205.212Z" fill="#191919"/>
<path d="M186.089 213.256C190.651 215.623 197.374 212.786 197.374 212.786V207.843L197.542 207.803C197.542 207.803 198.632 207.771 200.107 207.357C201.825 206.874 203.671 207.775 204.095 209.362C204.105 209.397 204.178 210.431 204.187 210.467C204.775 213.061 201.264 213.899 195.427 215.88V216.712C195.427 216.712 188.962 220.083 185.975 215.972V210.608L186.002 210.601C186.037 212.172 186.067 213.135 186.089 213.256Z" fill="#191919"/>
<path d="M195.427 215.879C200.579 214.131 203.917 213.273 204.227 211.313C204.575 213.739 201.099 214.585 195.427 216.51V215.879Z" fill="#606060"/>
<path d="M195.427 216.712V217.342C195.427 217.342 188.962 220.713 185.975 216.602V215.972C188.964 220.084 195.427 216.712 195.427 216.712Z" fill="#606060"/>
<path d="M183.357 211.301V211.931C183.357 211.931 176.893 215.302 173.905 211.19V210.56C176.893 214.673 183.357 211.301 183.357 211.301Z" fill="#606060"/>
<path d="M185.981 210.222C185.171 210.493 184.295 210.781 183.357 211.1V210.469C184.29 210.154 185.163 209.865 185.968 209.596C185.973 209.81 185.977 210.019 185.981 210.222Z" fill="#606060"/>
<path d="M190.725 113.418C190.286 113.489 190.328 108.797 188.036 114.609C185.742 120.421 182.212 116.987 182.577 116.261C182.942 115.535 180.827 113.092 180.829 112.805C180.832 112.519 176.074 108.677 180.896 103.295C183 100.946 191.52 101.189 192.784 99.8228C194.047 98.4572 199.102 105.957 191.759 108.484C191.759 108.485 192.155 113.188 190.725 113.418Z" fill="#120621"/>
</svg>
